<?xml version="1.0" encoding="UTF-8"?>
<!DOCTYPE svg PUBLIC "-//W3C//DTD SVG 1.1//EN" "http://www.w3.org/Graphics/SVG/1.1/DTD/svg11.dtd">
<svg xmlns="http://www.w3.org/2000/svg" version="1.1" width="225px" height="225px" style="shape-rendering:geometricPrecision; text-rendering:geometricPrecision; image-rendering:optimizeQuality; fill-rule:evenodd; clip-rule:evenodd" xmlns:xlink="http://www.w3.org/1999/xlink">
<g><path style="opacity:0.744" fill="#424242" d="M 165.5,13.5 C 131.833,12.1667 98.1667,12.1667 64.5,13.5C 80.9865,12.1671 97.8198,11.5005 115,11.5C 132.18,11.5005 149.014,12.1671 165.5,13.5 Z"/></g>
<g><path style="opacity:1" fill="#2c2c2c" d="M 165.5,13.5 C 166.333,58.9982 166.833,104.665 167,150.5C 171.667,158.5 176.333,166.5 181,174.5C 181.667,175.5 181.667,176.5 181,177.5C 175.963,180.7 170.796,183.7 165.5,186.5C 163.11,185.109 161.443,183.109 160.5,180.5C 157.694,179.883 155.361,180.883 153.5,183.5C 155.017,187.094 154.184,190.094 151,192.5C 150.759,195.289 150.092,197.956 149,200.5C 142.115,205.224 134.781,209.224 127,212.5C 123.439,210.945 120.439,208.612 118,205.5C 112.956,210.944 106.79,213.444 99.5,213C 96.9673,211.967 95.3006,210.133 94.5,207.5C 89.3177,207.416 85.6511,205.083 83.5,200.5C 77.644,199.648 74.644,196.314 74.5,190.5C 72.4176,190.528 70.5843,189.861 69,188.5C 67.3562,184.78 66.1895,180.947 65.5,177C 63.5061,177.657 62.0061,179.157 61,181.5C 60.2753,182.059 59.4419,182.392 58.5,182.5C 52.4959,180.169 47.1625,176.835 42.5,172.5C 49.5333,160.629 56.3667,148.629 63,136.5C 63.1674,95.3313 63.6674,54.3313 64.5,13.5C 98.1667,12.1667 131.833,12.1667 165.5,13.5 Z M 69.5,16.5 C 99.8333,16.5 130.167,16.5 160.5,16.5C 160.832,57.3368 160.499,98.0034 159.5,138.5C 157.443,133.39 154.609,128.723 151,124.5C 146.5,127 142,129.5 137.5,132C 134.014,133.947 133.681,136.28 136.5,139C 126.453,139.415 116.62,138.248 107,135.5C 103.372,136.228 99.8724,137.394 96.5,139C 92.8333,139.667 89.1667,139.667 85.5,139C 86.8403,136.651 88.1736,134.317 89.5,132C 89.2409,130.739 88.5742,129.739 87.5,129C 83.5,126.667 79.5,124.333 75.5,122C 72.7383,120.923 71.0717,121.756 70.5,124.5C 69.5016,88.6705 69.1682,52.6705 69.5,16.5 Z M 83.5,67.5 C 89.1581,66.6794 90.8248,68.846 88.5,74C 82.741,75.1387 81.0744,72.972 83.5,67.5 Z M 118.5,107.5 C 119.601,106.402 120.934,106.235 122.5,107C 121.874,107.75 121.374,108.584 121,109.5C 120.292,108.619 119.458,107.953 118.5,107.5 Z M 73.5,128.5 C 77.2259,128.899 80.2259,130.566 82.5,133.5C 74.2396,147.695 65.7396,161.695 57,175.5C 54.4334,174.132 51.9334,172.632 49.5,171C 57.9038,157.022 65.9038,142.855 73.5,128.5 Z M 147.5,132.5 C 148.822,132.33 149.989,132.663 151,133.5C 158.833,147.167 166.667,160.833 174.5,174.5C 172.258,176.539 169.758,178.205 167,179.5C 158.626,165.25 150.126,151.084 141.5,137C 143.389,135.236 145.389,133.736 147.5,132.5 Z M 97.5,152.5 C 95.2512,153.08 93.5846,154.413 92.5,156.5C 84.914,161.912 77.7473,167.912 71,174.5C 67.6223,172.784 66.9557,170.451 69,167.5C 73.3742,159.917 77.8742,152.417 82.5,145C 90.1185,146.297 97.4518,145.297 104.5,142C 112.16,141.995 118.494,144.995 123.5,151C 116.44,151.981 109.94,150.481 104,146.5C 101.336,147.998 99.1696,149.998 97.5,152.5 Z M 125.5,145.5 C 127.948,144.527 130.615,144.194 133.5,144.5C 136.009,145.113 138.509,145.78 141,146.5C 145.967,155.629 151.133,164.629 156.5,173.5C 154.469,175.522 152.135,177.189 149.5,178.5C 146.698,175.358 143.365,173.025 139.5,171.5C 137.402,171.957 135.736,172.957 134.5,174.5C 132.048,175.065 129.715,175.732 127.5,176.5C 126.167,177.167 125.167,178.167 124.5,179.5C 123.691,181.028 123.024,182.694 122.5,184.5C 121.206,185.29 120.039,186.29 119,187.5C 117.252,191.285 115.419,195.119 113.5,199C 114.451,199.718 114.617,200.551 114,201.5C 110.077,205.866 105.41,207.533 100,206.5C 99.3333,205.5 99.3333,204.5 100,203.5C 105,199.833 110,196.167 115,192.5C 116.254,188.889 115.088,187.389 111.5,188C 104.972,192.759 98.3058,197.259 91.5,201.5C 90.1667,200.833 89.1667,199.833 88.5,198.5C 94.8795,192.625 101.713,187.291 109,182.5C 110.254,178.889 109.088,177.389 105.5,178C 98.5505,182.615 91.8838,187.615 85.5,193C 82.7222,193.923 80.7222,193.089 79.5,190.5C 87.4996,184.006 95.6663,177.673 104,171.5C 104.722,169.339 104.055,167.672 102,166.5C 93.2202,172.28 84.7202,178.446 76.5,185C 74.4507,185.47 73.1174,184.636 72.5,182.5C 73.8974,179.594 75.8974,177.094 78.5,175C 86.8333,168 95.1667,161 103.5,154C 108.669,155.434 114.002,156.6 119.5,157.5C 124.339,157.815 127.672,155.815 129.5,151.5C 129.068,148.819 127.734,146.819 125.5,145.5 Z M 138.5,177.5 C 142.415,179.743 145.749,182.743 148.5,186.5C 147.635,187.583 146.635,187.749 145.5,187C 142.112,184.469 139.779,181.302 138.5,177.5 Z M 144.5,194.5 C 144.443,195.609 144.11,196.609 143.5,197.5C 138.369,192.87 133.369,188.037 128.5,183C 129.593,181.635 130.926,181.301 132.5,182C 136.704,186.036 140.704,190.202 144.5,194.5 Z M 137.5,200.5 C 136.292,201.234 134.959,201.567 133.5,201.5C 130.871,198.369 128.038,195.369 125,192.5C 124.517,191.552 124.351,190.552 124.5,189.5C 129.687,192.01 134.021,195.676 137.5,200.5 Z M 119.5,197.5 C 122.959,198.436 125.793,200.436 128,203.5C 128.749,204.635 128.583,205.635 127.5,206.5C 124.074,204.08 121.408,201.08 119.5,197.5 Z"/></g>
<g><path style="opacity:0.396" fill="#979797" d="M 160.5,16.5 C 161.665,57.6646 161.831,98.998 161,140.5C 160.283,139.956 159.783,139.289 159.5,138.5C 160.499,98.0034 160.832,57.3368 160.5,16.5 Z"/></g>
<g><path style="opacity:0.529" fill="#777777" d="M 69.5,16.5 C 69.1682,52.6705 69.5016,88.6705 70.5,124.5C 70.6309,125.376 70.2975,126.043 69.5,126.5C 68.1696,89.6689 68.1696,53.0022 69.5,16.5 Z"/></g>
<g><path style="opacity:1" fill="#1a1a1a" d="M 77.5,22.5 C 102.502,22.3334 127.502,22.5 152.5,23C 153.833,24.3333 153.833,25.6667 152.5,27C 127.5,27.6667 102.5,27.6667 77.5,27C 76.2721,25.5098 76.2721,24.0098 77.5,22.5 Z"/></g>
<g><path style="opacity:1" fill="#353535" d="M 77.5,35.5 C 102.502,35.3334 127.502,35.5 152.5,36C 153.991,38.0217 153.658,39.6883 151.5,41C 127.167,41.6667 102.833,41.6667 78.5,41C 76.3652,39.4443 76.0319,37.6109 77.5,35.5 Z"/></g>
<g><path style="opacity:1" fill="#393939" d="M 78.5,48.5 C 103.169,48.3334 127.836,48.5 152.5,49C 153.833,50.6667 153.833,52.3333 152.5,54C 127.833,54.6667 103.167,54.6667 78.5,54C 75.9824,52.1899 75.9824,50.3566 78.5,48.5 Z"/></g>
<g><path style="opacity:1" fill="#333333" d="M 83.5,61.5 C 92.4238,61.3534 96.2571,65.6868 95,74.5C 92.3674,79.7315 88.2008,81.5649 82.5,80C 76.0427,76.1083 74.8761,70.9416 79,64.5C 80.6516,63.6006 82.1516,62.6006 83.5,61.5 Z M 83.5,67.5 C 81.0744,72.972 82.741,75.1387 88.5,74C 90.8248,68.846 89.1581,66.6794 83.5,67.5 Z"/></g>
<g><path style="opacity:1" fill="#393939" d="M 99.5,61.5 C 116.837,61.3334 134.17,61.5001 151.5,62C 153.658,63.3117 153.991,64.9783 152.5,67C 134.833,67.6667 117.167,67.6667 99.5,67C 96.9824,65.1899 96.9824,63.3566 99.5,61.5 Z"/></g>
<g><path style="opacity:1" fill="#363636" d="M 100.5,74.5 C 117.503,74.3334 134.503,74.5001 151.5,75C 153.527,76.3957 153.86,78.0624 152.5,80C 134.491,80.833 116.491,80.6663 98.5,79.5C 97.2182,77.1006 97.8848,75.4339 100.5,74.5 Z"/></g>
<g><path style="opacity:1" fill="#1d1d1d" d="M 77.5,88.5 C 102.502,88.3334 127.502,88.5 152.5,89C 153.833,90.3333 153.833,91.6667 152.5,93C 127.5,93.6667 102.5,93.6667 77.5,93C 76.2721,91.5098 76.2721,90.0098 77.5,88.5 Z"/></g>
<g><path style="opacity:1" fill="#292929" d="M 128.5,108.5 C 133.221,102.533 136.554,103.199 138.5,110.5C 143.132,111.328 147.798,111.828 152.5,112C 153.833,113.333 153.833,114.667 152.5,116C 147.447,116.217 142.447,116.717 137.5,117.5C 134.763,116.931 133.263,115.264 133,112.5C 131.5,114.667 130,116.833 128.5,119C 125.731,119.21 123.231,118.377 121,116.5C 118.914,118.249 116.581,119.583 114,120.5C 112.5,120.333 111.667,119.5 111.5,118C 112.487,115.679 114.154,114.013 116.5,113C 111.439,106.265 113.105,102.098 121.5,100.5C 125.98,101.312 128.313,103.979 128.5,108.5 Z M 118.5,107.5 C 119.458,107.953 120.292,108.619 121,109.5C 121.374,108.584 121.874,107.75 122.5,107C 120.934,106.235 119.601,106.402 118.5,107.5 Z"/></g>
<g><path style="opacity:1" fill="#212121" d="M 77.5,101.5 C 86.8393,101.334 96.1726,101.5 105.5,102C 106.833,103.333 106.833,104.667 105.5,106C 96.1667,106.667 86.8333,106.667 77.5,106C 76.2721,104.51 76.2721,103.01 77.5,101.5 Z"/></g>
<g><path style="opacity:1" fill="#393939" d="M 77.5,114.5 C 86.8571,114.168 96.1904,114.502 105.5,115.5C 106.859,117.306 106.525,118.806 104.5,120C 95.8333,120.667 87.1667,120.667 78.5,120C 76.3652,118.444 76.0319,116.611 77.5,114.5 Z"/></g>
<g><path style="opacity:0.776" fill="#707070" d="M 133.5,144.5 C 130.615,144.194 127.948,144.527 125.5,145.5C 124.711,145.217 124.044,144.717 123.5,144C 127.027,143.192 130.36,143.359 133.5,144.5 Z"/></g>
<g><path style="opacity:0.694" fill="#787878" d="M 97.5,152.5 C 96.4154,154.587 94.7488,155.92 92.5,156.5C 93.5846,154.413 95.2512,153.08 97.5,152.5 Z"/></g>
<g><path style="opacity:1" fill="#323232" d="M 141.5,162.5 C 141.5,163.5 141.5,164.5 141.5,165.5C 139.833,165.5 138.167,165.5 136.5,165.5C 128.402,164.368 121.236,166.368 115,171.5C 112.681,170.591 112.014,168.925 113,166.5C 121.783,159.025 131.283,157.692 141.5,162.5 Z"/></g>
<g><path style="opacity:0.8" fill="#7a7a7a" d="M 141.5,162.5 C 142.434,163.568 142.768,164.901 142.5,166.5C 140.265,166.795 138.265,166.461 136.5,165.5C 138.167,165.5 139.833,165.5 141.5,165.5C 141.5,164.5 141.5,163.5 141.5,162.5 Z"/></g>
<g><path style="opacity:0.333" fill="#bdbdbd" d="M 134.5,174.5 C 132.721,176.344 130.388,177.01 127.5,176.5C 129.715,175.732 132.048,175.065 134.5,174.5 Z"/></g>
<g><path style="opacity:0.512" fill="#929292" d="M 124.5,179.5 C 124.923,181.781 124.256,183.448 122.5,184.5C 123.024,182.694 123.691,181.028 124.5,179.5 Z"/></g>
<g><path style="opacity:0.659" fill="#a2a2a2" d="M 144.5,194.5 C 145.885,195.947 145.552,196.947 143.5,197.5C 144.11,196.609 144.443,195.609 144.5,194.5 Z"/></g>
<g><path style="opacity:0.635" fill="#a4a4a4" d="M 137.5,200.5 C 137.38,201.586 136.713,202.253 135.5,202.5C 134.584,202.457 133.917,202.124 133.5,201.5C 134.959,201.567 136.292,201.234 137.5,200.5 Z"/></g>
</svg>
