<?xml version="1.0" encoding="UTF-8"?>
<!DOCTYPE svg PUBLIC "-//W3C//DTD SVG 1.1//EN" "http://www.w3.org/Graphics/SVG/1.1/DTD/svg11.dtd">
<svg xmlns="http://www.w3.org/2000/svg" version="1.1" width="225px" height="225px" style="shape-rendering:geometricPrecision; text-rendering:geometricPrecision; image-rendering:optimizeQuality; fill-rule:evenodd; clip-rule:evenodd" xmlns:xlink="http://www.w3.org/1999/xlink">
<g><path style="opacity:1" fill="#252525" d="M 106.5,6.5 C 125.466,3.82514 140.466,10.1585 151.5,25.5C 149.772,27.2255 147.772,28.5589 145.5,29.5C 126.189,9.04574 106.689,8.71241 87,28.5C 76.9724,47.1548 79.8057,63.4882 95.5,77.5C 94.5589,79.7721 93.2255,81.7721 91.5,83.5C 76.2324,72.2804 70.3991,57.2804 74,38.5C 78.8917,21.6653 89.7251,10.9987 106.5,6.5 Z"/></g>
<g><path style="opacity:1" fill="#242424" d="M 87.5,44.5 C 88.9238,42.4855 89.5905,40.1522 89.5,37.5C 96.0467,23.5706 107.047,18.0706 122.5,21C 129.397,22.7403 134.73,26.5737 138.5,32.5C 136.992,34.5075 135.158,36.1741 133,37.5C 121.375,25.5058 109.709,25.5058 98,37.5C 92.8194,48.4333 94.6528,58.0999 103.5,66.5C 102.243,68.6789 100.743,70.6789 99,72.5C 89.8663,65.2457 86.033,55.9124 87.5,44.5 Z"/></g>
<g><path style="opacity:1" fill="#242424" d="M 11.5,50.5 C 12.9063,50.0269 13.573,49.0269 13.5,47.5C 22.5651,34.9725 34.8984,29.4725 50.5,31C 56.6815,31.8927 62.3482,34.0593 67.5,37.5C 68.5827,38.365 68.7494,39.365 68,40.5C 66.6598,41.8678 65.3264,43.2011 64,44.5C 45.6892,34.561 30.3559,37.8943 18,54.5C 12.1825,67.9595 13.6825,80.4595 22.5,92C 21.392,94.1124 19.892,95.9458 18,97.5C 7.84508,87.5611 4.17841,75.5611 7,61.5C 7.64415,57.3812 9.14415,53.7145 11.5,50.5 Z"/></g>
<g><path style="opacity:1" fill="#1f1f1f" d="M 112.5,41.5 C 120.885,40.7159 124.051,44.3826 122,52.5C 117.667,57.8333 113.333,57.8333 109,52.5C 107.518,47.774 108.685,44.1074 112.5,41.5 Z"/></g>
<g><path style="opacity:1" fill="#151515" d="M 186.5,42.5 C 188.5,42.5 190.5,42.5 192.5,42.5C 192.5,43.8333 192.5,45.1667 192.5,46.5C 191.518,51.4701 189.684,56.1368 187,60.5C 170.587,85.5807 150.087,106.747 125.5,124C 120.349,127.583 114.682,129.417 108.5,129.5C 109.522,119.126 113.522,110.126 120.5,102.5C 121.906,102.027 122.573,101.027 122.5,99.5C 125.118,95.7093 127.951,92.0426 131,88.5C 132.97,91.9681 135.136,95.3015 137.5,98.5C 139.167,97.6667 140.833,96.8333 142.5,96C 139.857,91.5536 137.691,87.0536 136,82.5C 140.346,77.6549 144.846,72.9883 149.5,68.5C 153.674,71.0877 158.007,73.421 162.5,75.5C 163.752,73.9991 164.752,72.3325 165.5,70.5C 161.833,68.3333 158.167,66.1667 154.5,64C 163.975,55.0186 174.642,47.852 186.5,42.5 Z"/></g>
<g><path style="opacity:0.557" fill="#848484" d="M 89.5,37.5 C 89.5905,40.1522 88.9238,42.4855 87.5,44.5C 87.4095,41.8478 88.0762,39.5145 89.5,37.5 Z"/></g>
<g><path style="opacity:0.184" fill="#b3b3b3" d="M 186.5,42.5 C 188.607,41.5318 190.941,41.1984 193.5,41.5C 193.784,43.4147 193.451,45.0813 192.5,46.5C 192.5,45.1667 192.5,43.8333 192.5,42.5C 190.5,42.5 188.5,42.5 186.5,42.5 Z"/></g>
<g><path style="opacity:1" fill="#252525" d="M 40.5,44.5 C 51.69,43.5961 60.3566,47.7627 66.5,57C 64.9438,59.0515 62.9438,60.5515 60.5,61.5C 52.8213,51.828 43.8213,50.328 33.5,57C 26.8365,65.6862 26.8365,74.3529 33.5,83C 32.372,85.296 30.7054,87.1293 28.5,88.5C 19.2237,78.1034 18.057,66.7701 25,54.5C 29.3085,49.6647 34.4751,46.3314 40.5,44.5 Z"/></g>
<g><path style="opacity:0.404" fill="#959595" d="M 13.5,47.5 C 13.573,49.0269 12.9063,50.0269 11.5,50.5C 11.427,48.9731 12.0937,47.9731 13.5,47.5 Z"/></g>
<g><path style="opacity:1" fill="#1a1a1a" d="M 191.5,94.5 C 190.833,94.1667 190.167,93.8333 189.5,93.5C 186.394,89.4715 183.394,85.3049 180.5,81C 187.911,71.2499 194.078,60.7499 199,49.5C 202.458,53.5784 205.292,58.0784 207.5,63C 203.588,74.3251 198.255,84.8251 191.5,94.5 Z"/></g>
<g><path style="opacity:1" fill="#262626" d="M 126.5,56.5 C 132.271,59.2199 137.938,62.2199 143.5,65.5C 140.167,69.5 136.5,73.1667 132.5,76.5C 129.114,71.5629 126.114,66.3962 123.5,61C 124.315,59.3566 125.315,57.8566 126.5,56.5 Z"/></g>
<g><path style="opacity:1" fill="#393939" d="M 43.5,65.5 C 49.0204,66.0435 50.3538,68.5435 47.5,73C 41.2016,73.4954 39.8682,70.9954 43.5,65.5 Z"/></g>
<g><path style="opacity:1" fill="#2a2a2a" d="M 53.5,74.5 C 59.276,77.5581 64.9427,80.8915 70.5,84.5C 67.6828,87.8178 64.6828,90.9845 61.5,94C 60.365,94.7494 59.365,94.5827 58.5,93.5C 55.6993,88.7311 53.0326,83.8978 50.5,79C 52.0997,77.8767 53.0997,76.3767 53.5,74.5 Z"/></g>
<g><path style="opacity:0.42" fill="#919191" d="M 210.5,76.5 C 209.833,76.8333 209.167,77.1667 208.5,77.5C 209.032,74.5404 209.699,74.2071 210.5,76.5 Z"/></g>
<g><path style="opacity:1" fill="#242424" d="M 210.5,76.5 C 212.548,92.0854 208.715,106.085 199,118.5C 197.547,113.18 195.713,108.014 193.5,103C 199.524,95.1333 204.524,86.6333 208.5,77.5C 209.167,77.1667 209.833,76.8333 210.5,76.5 Z"/></g>
<g><path style="opacity:1" fill="#181818" d="M 174.5,86.5 C 175.822,86.33 176.989,86.6634 178,87.5C 181.429,91.7718 184.262,96.4385 186.5,101.5C 179.105,111.396 170.271,119.73 160,126.5C 155.311,123.311 151.477,119.311 148.5,114.5C 158.256,106.081 166.923,96.7474 174.5,86.5 Z"/></g>
<g><path style="opacity:1" fill="#171717" d="M 42.5,139.5 C 41.1667,139.5 39.8333,139.5 38.5,139.5C 38.5,138.5 38.5,137.5 38.5,136.5C 39.878,130.74 42.5446,125.74 46.5,121.5C 47.9063,121.027 48.573,120.027 48.5,118.5C 51.5119,113.831 55.0119,109.498 59,105.5C 59.9408,108.393 61.6074,110.726 64,112.5C 65.4728,112.097 66.8061,111.43 68,110.5C 66.9695,107.265 65.4695,104.099 63.5,101C 63.9778,99.3576 64.9778,98.1909 66.5,97.5C 68.7488,96.9202 70.4154,95.5869 71.5,93.5C 72.8502,91.3171 74.6836,89.6504 77,88.5C 82.7288,91.2807 88.2288,94.4474 93.5,98C 81.3442,112.828 67.3442,125.495 51.5,136C 48.6907,137.741 45.6907,138.908 42.5,139.5 Z"/></g>
<g><path style="opacity:0.016" fill="#c3c3c3" d="M 189.5,93.5 C 190.167,93.8333 190.833,94.1667 191.5,94.5C 190.377,95.7574 189.711,95.4241 189.5,93.5 Z"/></g>
<g><path style="opacity:0.824" fill="#717171" d="M 71.5,93.5 C 70.4154,95.5869 68.7488,96.9202 66.5,97.5C 67.5846,95.4131 69.2512,94.0798 71.5,93.5 Z"/></g>
<g><path style="opacity:0.537" fill="#898989" d="M 122.5,99.5 C 122.573,101.027 121.906,102.027 120.5,102.5C 120.427,100.973 121.094,99.9731 122.5,99.5 Z"/></g>
<g><path style="opacity:1" fill="#181818" d="M 102.5,108.5 C 102.427,110.027 103.094,111.027 104.5,111.5C 105.124,115.551 104.29,119.551 102,123.5C 96.5169,129.16 90.3503,133.827 83.5,137.5C 79.0024,135.168 75.6691,131.668 73.5,127C 82.3333,119.5 90.5,111.333 98,102.5C 100.102,104.095 101.602,106.095 102.5,108.5 Z"/></g>
<g><path style="opacity:1" fill="#1d1d1d" d="M 189.5,109.5 C 189.41,112.152 190.076,114.485 191.5,116.5C 194.903,122.061 193.903,126.561 188.5,130C 181.805,131.611 175.138,131.611 168.5,130C 167.289,129.107 167.289,128.274 168.5,127.5C 173.852,123.143 179.186,118.81 184.5,114.5C 185.906,114.027 186.573,113.027 186.5,111.5C 187.242,109.65 188.242,108.984 189.5,109.5 Z"/></g>
<g><path style="opacity:0.506" fill="#8e8e8e" d="M 102.5,108.5 C 103.906,108.973 104.573,109.973 104.5,111.5C 103.094,111.027 102.427,110.027 102.5,108.5 Z"/></g>
<g><path style="opacity:0.765" fill="#8b8b8b" d="M 186.5,111.5 C 186.573,113.027 185.906,114.027 184.5,114.5C 184.427,112.973 185.094,111.973 186.5,111.5 Z"/></g>
<g><path style="opacity:0.588" fill="#919191" d="M 189.5,109.5 C 190.924,111.515 191.59,113.848 191.5,116.5C 190.076,114.485 189.41,112.152 189.5,109.5 Z"/></g>
<g><path style="opacity:1" fill="#202020" d="M 142.5,118.5 C 145.785,122.452 149.452,126.119 153.5,129.5C 146.1,134.803 137.933,138.47 129,140.5C 124.844,139.339 121.011,137.505 117.5,135C 126.823,130.815 135.156,125.315 142.5,118.5 Z"/></g>
<g><path style="opacity:0.541" fill="#898989" d="M 48.5,118.5 C 48.573,120.027 47.9063,121.027 46.5,121.5C 46.427,119.973 47.0937,118.973 48.5,118.5 Z"/></g>
<g><path style="opacity:1" fill="#242424" d="M 67.5,131.5 C 68.4959,131.414 69.3292,131.748 70,132.5C 72.1386,135.939 74.6386,139.106 77.5,142C 70.5656,145.753 63.3989,148.92 56,151.5C 53,149.833 50,148.167 47,146.5C 46.3123,145.668 46.479,145.002 47.5,144.5C 54.9142,141.138 61.5808,136.805 67.5,131.5 Z"/></g>
<g><path style="opacity:1" fill="#2a2a2a" d="M 101.5,131.5 C 103.736,133.893 106.403,135.727 109.5,137C 111.007,137.837 111.507,139.004 111,140.5C 109.833,141.667 108.667,142.833 107.5,144C 102.011,144.932 96.6772,144.432 91.5,142.5C 90.479,141.998 90.3123,141.332 91,140.5C 94.6919,137.635 98.1919,134.635 101.5,131.5 Z"/></g>
<g><path style="opacity:1" fill="#363636" d="M 143.5,143.5 C 143.833,142.833 144.167,142.167 144.5,141.5C 149.734,138.966 154.901,136.3 160,133.5C 165.083,135.372 170.249,136.872 175.5,138C 165.226,143.154 154.559,144.987 143.5,143.5 Z"/></g>
<g><path style="opacity:0.463" fill="#b1b1b1" d="M 38.5,136.5 C 38.5,137.5 38.5,138.5 38.5,139.5C 39.8333,139.5 41.1667,139.5 42.5,139.5C 41.0813,140.451 39.4147,140.784 37.5,140.5C 37.2322,138.901 37.5655,137.568 38.5,136.5 Z"/></g>
<g><path style="opacity:1" fill="#101010" d="M 188.5,144.5 C 188.41,147.152 189.076,149.485 190.5,151.5C 191.657,154.273 192.324,157.273 192.5,160.5C 192.41,163.152 193.076,165.485 194.5,167.5C 195.451,168.919 195.784,170.585 195.5,172.5C 195.259,174.898 195.926,176.898 197.5,178.5C 198.341,180.379 198.675,182.379 198.5,184.5C 188.013,185.494 177.346,185.828 166.5,185.5C 170.897,170.976 175.897,156.643 181.5,142.5C 183.193,140.973 185.027,139.64 187,138.5C 188.128,140.345 188.628,142.345 188.5,144.5 Z"/></g>
<g><path style="opacity:0.62" fill="#9e9e9e" d="M 144.5,141.5 C 144.167,142.167 143.833,142.833 143.5,143.5C 141.207,142.699 141.54,142.032 144.5,141.5 Z"/></g>
<g><path style="opacity:1" fill="#2c2c2c" d="M 91.5,149.5 C 91.8333,150.167 92.1667,150.833 92.5,151.5C 90.0075,152.774 87.3408,153.44 84.5,153.5C 79.3054,153.821 74.3054,153.487 69.5,152.5C 74.1401,150.18 78.8068,147.847 83.5,145.5C 86.2585,146.879 88.9252,148.213 91.5,149.5 Z"/></g>
<g><path style="opacity:0.176" fill="#aaaaaa" d="M 91.5,149.5 C 92.675,149.281 93.675,149.614 94.5,150.5C 94.0431,151.298 93.3764,151.631 92.5,151.5C 92.1667,150.833 91.8333,150.167 91.5,149.5 Z"/></g>
<g><path style="opacity:0.584" fill="#888888" d="M 188.5,144.5 C 189.924,146.515 190.59,148.848 190.5,151.5C 189.076,149.485 188.41,147.152 188.5,144.5 Z"/></g>
<g><path style="opacity:1" fill="#121212" d="M 107.5,151.5 C 109.028,152.802 110.028,154.469 110.5,156.5C 112.283,164.97 113.616,173.636 114.5,182.5C 114.5,183.5 114.5,184.5 114.5,185.5C 105.833,185.5 97.1667,185.5 88.5,185.5C 90.8559,176.263 93.5226,167.097 96.5,158C 99.8359,155.33 103.503,153.163 107.5,151.5 Z"/></g>
<g><path style="opacity:0.133" fill="#a4a4a4" d="M 110.5,156.5 C 110.028,154.469 109.028,152.802 107.5,151.5C 108.008,149.767 108.841,149.434 110,150.5C 110.495,152.473 110.662,154.473 110.5,156.5 Z"/></g>
<g><path style="opacity:0.488" fill="#a2a2a2" d="M 69.5,152.5 C 74.3054,153.487 79.3054,153.821 84.5,153.5C 78.9871,154.816 73.3204,154.816 67.5,153.5C 67.9569,152.702 68.6236,152.369 69.5,152.5 Z"/></g>
<g><path style="opacity:0.588" fill="#898989" d="M 192.5,160.5 C 193.924,162.515 194.59,164.848 194.5,167.5C 193.076,165.485 192.41,163.152 192.5,160.5 Z"/></g>
<g><path style="opacity:0.886" fill="#7e7e7e" d="M 195.5,172.5 C 196.738,174.214 197.405,176.214 197.5,178.5C 195.926,176.898 195.259,174.898 195.5,172.5 Z"/></g>
<g><path style="opacity:0.189" fill="#cdcdcd" d="M 114.5,182.5 C 115.434,183.568 115.768,184.901 115.5,186.5C 106.318,186.827 97.3178,186.493 88.5,185.5C 97.1667,185.5 105.833,185.5 114.5,185.5C 114.5,184.5 114.5,183.5 114.5,182.5 Z"/></g>
<g><path style="opacity:0.188" fill="#cecece" d="M 198.5,184.5 C 199.043,184.56 199.376,184.893 199.5,185.5C 193.833,185.833 188.167,186.167 182.5,186.5C 176.417,186.523 171.084,186.19 166.5,185.5C 177.346,185.828 188.013,185.494 198.5,184.5 Z"/></g>
<g><path style="opacity:1" fill="#0f0f0f" d="M 71.5,192.5 C 91.5028,192.333 111.503,192.5 131.5,193C 132,193.5 132.5,194 133,194.5C 133.499,199.823 133.666,205.156 133.5,210.5C 112.167,210.5 90.8333,210.5 69.5,210.5C 69.334,205.156 69.5006,199.823 70,194.5C 70.7172,193.956 71.2172,193.289 71.5,192.5 Z"/></g>
<g><path style="opacity:1" fill="#0f0f0f" d="M 155.5,192.5 C 173.503,192.333 191.503,192.5 209.5,193C 210.475,198.741 210.808,204.575 210.5,210.5C 191.5,210.5 172.5,210.5 153.5,210.5C 153.334,205.156 153.501,199.823 154,194.5C 154.717,193.956 155.217,193.289 155.5,192.5 Z"/></g>
</svg>
