<?xml version="1.0" encoding="UTF-8"?>
<!DOCTYPE svg PUBLIC "-//W3C//DTD SVG 1.1//EN" "http://www.w3.org/Graphics/SVG/1.1/DTD/svg11.dtd">
<svg xmlns="http://www.w3.org/2000/svg" version="1.1" width="209px" height="241px" style="shape-rendering:geometricPrecision; text-rendering:geometricPrecision; image-rendering:optimizeQuality; fill-rule:evenodd; clip-rule:evenodd" xmlns:xlink="http://www.w3.org/1999/xlink">
<g><path style="opacity:0.925" fill="#797979" d="M 119.5,2.5 C 121.674,2.74973 123.341,3.74973 124.5,5.5C 117.286,4.16362 109.953,4.33029 102.5,6C 100.634,9.05427 97.967,10.5543 94.5,10.5C 100.504,1.59532 108.838,-1.07135 119.5,2.5 Z"/></g>
<g><path style="opacity:0.016" fill="#dddddd" d="M 124.5,5.5 C 127.167,6.16667 128.833,7.83333 129.5,10.5C 128.833,10.1667 128.167,9.83333 127.5,9.5C 126.5,8.16667 125.5,6.83333 124.5,5.5 Z"/></g>
<g><path style="opacity:1" fill="#282828" d="M 127.5,15.5 C 115.383,6.58043 104.217,7.91376 94,19.5C 92.4996,23.8952 90.9996,28.2285 89.5,32.5C 88.5084,32.6716 87.8417,32.3382 87.5,31.5C 89.1405,28.4725 89.9738,25.1391 90,21.5C 94.9814,15.8376 100.481,11.0042 106.5,7C 112.373,6.04867 118.04,6.71534 123.5,9C 125.321,10.8959 126.654,13.0625 127.5,15.5 Z"/></g>
<g><path style="opacity:0.871" fill="#818181" d="M 127.5,9.5 C 128.167,9.83333 128.833,10.1667 129.5,10.5C 132.496,13.4974 134.163,17.164 134.5,21.5C 132.17,17.5079 129.837,13.5079 127.5,9.5 Z"/></g>
<g><path style="opacity:1" fill="#070506" d="M 121.5,25.5 C 115.056,21.2671 109.056,21.9338 103.5,27.5C 104.901,28.5207 106.235,29.5207 107.5,30.5C 103.041,34.4679 101.375,39.4679 102.5,45.5C 101.833,45.5 101.167,45.5 100.5,45.5C 97.9471,44.7451 95.2804,44.0784 92.5,43.5C 92.8476,39.9153 92.181,36.582 90.5,33.5C 91.9217,33.2914 93.255,32.7914 94.5,32C 91.9722,31.3311 91.9722,30.4978 94.5,29.5C 95.6916,20.8107 100.525,15.4773 109,13.5C 114.243,12.9544 119.41,13.6211 124.5,15.5C 124.767,18.8749 125.767,22.0416 127.5,25C 127.22,26.395 126.553,27.5617 125.5,28.5C 124.717,26.7118 123.384,25.7118 121.5,25.5 Z"/></g>
<g><path style="opacity:1" fill="#b6b6b6" d="M 95.5,-0.5 C 101.833,-0.5 108.167,-0.5 114.5,-0.5C 116.261,0.312714 117.928,1.31271 119.5,2.5C 108.838,-1.07135 100.504,1.59532 94.5,10.5C 93.8561,13.144 92.1894,14.8106 89.5,15.5C 87.8684,16.9084 86.2018,18.4084 84.5,20C 82.5116,20.1805 80.5116,20.0138 78.5,19.5C 80.6751,13.1526 84.3417,7.81932 89.5,3.5C 91.249,1.74398 93.249,0.410642 95.5,-0.5 Z"/></g>
<g><path style="opacity:1" fill="#131313" d="M 127.5,15.5 C 127.833,16.1667 128.167,16.8333 128.5,17.5C 129.949,22.0284 130.783,26.6951 131,31.5C 131.196,39.8815 131.696,48.2149 132.5,56.5C 130.275,57.8935 127.942,59.0602 125.5,60C 123.689,61.0407 123.355,62.2073 124.5,63.5C 124.5,65.8333 124.5,68.1667 124.5,70.5C 123.5,70.5 122.5,70.5 121.5,70.5C 120.962,68.8828 120.629,67.2161 120.5,65.5C 120.5,64.1667 120.5,62.8333 120.5,61.5C 122.177,58.0729 121.844,55.0729 119.5,52.5C 118.89,51.609 118.557,50.609 118.5,49.5C 118.5,49.1667 118.5,48.8333 118.5,48.5C 119.79,47.9423 120.623,46.9423 121,45.5C 121.667,41.5 121.667,37.5 121,33.5C 120.302,32.3094 119.469,31.3094 118.5,30.5C 119.209,29.596 120.209,29.2627 121.5,29.5C 121.5,28.1667 121.5,26.8333 121.5,25.5C 123.384,25.7118 124.717,26.7118 125.5,28.5C 126.553,27.5617 127.22,26.395 127.5,25C 125.767,22.0416 124.767,18.8749 124.5,15.5C 119.41,13.6211 114.243,12.9544 109,13.5C 100.525,15.4773 95.6916,20.8107 94.5,29.5C 91.9722,30.4978 91.9722,31.3311 94.5,32C 93.255,32.7914 91.9217,33.2914 90.5,33.5C 89.8333,33.5 89.5,33.1667 89.5,32.5C 90.9996,28.2285 92.4996,23.8952 94,19.5C 104.217,7.91376 115.383,6.58043 127.5,15.5 Z"/></g>
<g><path style="opacity:0.778" fill="#535353" d="M 124.5,5.5 C 125.5,6.83333 126.5,8.16667 127.5,9.5C 129.837,13.5079 132.17,17.5079 134.5,21.5C 135.468,23.6074 135.802,25.9407 135.5,28.5C 135.5,34.8333 135.5,41.1667 135.5,47.5C 134.67,39.6515 133.837,31.6515 133,23.5C 132.617,22.944 132.117,22.6107 131.5,22.5C 131.727,20.0672 130.727,18.4006 128.5,17.5C 128.167,16.8333 127.833,16.1667 127.5,15.5C 126.654,13.0625 125.321,10.8959 123.5,9C 118.04,6.71534 112.373,6.04867 106.5,7C 100.481,11.0042 94.9814,15.8376 90,21.5C 89.9738,25.1391 89.1405,28.4725 87.5,31.5C 87.1667,31.5 86.8333,31.5 86.5,31.5C 85.7375,30.7321 84.7375,30.2321 83.5,30C 84,29.5 84.5,29 85,28.5C 85.3333,25.8333 85.6667,23.1667 86,20.5C 88.5562,19.7809 89.7229,18.1142 89.5,15.5C 92.1894,14.8106 93.8561,13.144 94.5,10.5C 97.967,10.5543 100.634,9.05427 102.5,6C 109.953,4.33029 117.286,4.16362 124.5,5.5 Z"/></g>
<g><path style="opacity:1" fill="#9fa0a0" d="M 89.5,15.5 C 89.7229,18.1142 88.5562,19.7809 86,20.5C 85.6667,23.1667 85.3333,25.8333 85,28.5C 84.5,29 84,29.5 83.5,30C 84.7375,30.2321 85.7375,30.7321 86.5,31.5C 81.0111,31.3254 78.6777,33.9921 79.5,39.5C 78.8333,40.5 78.1667,41.5 77.5,42.5C 78.0397,34.7503 78.3731,27.0836 78.5,19.5C 80.5116,20.0138 82.5116,20.1805 84.5,20C 86.2018,18.4084 87.8684,16.9084 89.5,15.5 Z"/></g>
<g><path style="opacity:1" fill="#2b2b2b" d="M 121.5,25.5 C 121.5,26.8333 121.5,28.1667 121.5,29.5C 120.209,29.2627 119.209,29.596 118.5,30.5C 118.167,30.5 117.833,30.5 117.5,30.5C 114.302,29.3 110.969,29.3 107.5,30.5C 106.235,29.5207 104.901,28.5207 103.5,27.5C 109.056,21.9338 115.056,21.2671 121.5,25.5 Z"/></g>
<g><path style="opacity:1" fill="#2d2e2e" d="M 128.5,17.5 C 130.727,18.4006 131.727,20.0672 131.5,22.5C 132.233,35.567 133.567,48.567 135.5,61.5C 135,61.8333 134.5,62.1667 134,62.5C 130.452,59.6832 127.286,60.0166 124.5,63.5C 123.355,62.2073 123.689,61.0407 125.5,60C 127.942,59.0602 130.275,57.8935 132.5,56.5C 131.696,48.2149 131.196,39.8815 131,31.5C 130.783,26.6951 129.949,22.0284 128.5,17.5 Z"/></g>
<g><path style="opacity:0.477" fill="#cececd" d="M 89.5,3.5 C 84.3417,7.81932 80.6751,13.1526 78.5,19.5C 78.3731,27.0836 78.0397,34.7503 77.5,42.5C 78.0295,51.3148 77.1962,59.9815 75,68.5C 74.6174,69.056 74.1174,69.3893 73.5,69.5C 75.2943,63.9858 76.2943,58.3192 76.5,52.5C 75.5559,43.1769 75.3893,33.8436 76,24.5C 77.1625,15.2044 81.6625,8.20444 89.5,3.5 Z"/></g>
<g><path style="opacity:1" fill="#dddedf" d="M 117.5,30.5 C 118.413,36.4406 118.746,42.4406 118.5,48.5C 118.5,48.8333 118.5,49.1667 118.5,49.5C 116.708,49.634 115.042,49.3007 113.5,48.5C 113.5,48.1667 113.5,47.8333 113.5,47.5C 115.432,44.8231 115.932,41.8231 115,38.5C 113.556,36.8446 111.722,36.178 109.5,36.5C 107.457,37.5794 106.124,39.246 105.5,41.5C 105.5,42.8333 105.5,44.1667 105.5,45.5C 104.5,45.5 103.5,45.5 102.5,45.5C 101.375,39.4679 103.041,34.4679 107.5,30.5C 110.969,29.3 114.302,29.3 117.5,30.5 Z"/></g>
<g><path style="opacity:1" fill="#e1dfdf" d="M 86.5,31.5 C 86.8333,31.5 87.1667,31.5 87.5,31.5C 87.8417,32.3382 88.5084,32.6716 89.5,32.5C 89.5,33.1667 89.8333,33.5 90.5,33.5C 92.181,36.582 92.8476,39.9153 92.5,43.5C 92.5,43.8333 92.5,44.1667 92.5,44.5C 91.8333,44.5 91.1667,44.5 90.5,44.5C 90.8337,41.509 89.8337,39.1757 87.5,37.5C 85.8466,36.2006 84.3466,36.5339 83,38.5C 82.2204,40.3869 82.3871,42.0536 83.5,43.5C 83.8925,45.2838 84.5592,46.9505 85.5,48.5C 84.8333,48.8333 84.1667,49.1667 83.5,49.5C 81.6001,46.4822 80.2667,43.1488 79.5,39.5C 78.6777,33.9921 81.0111,31.3254 86.5,31.5 Z"/></g>
<g><path style="opacity:1" fill="#777976" d="M 87.5,37.5 C 86.1798,39.4632 84.8465,41.4632 83.5,43.5C 82.3871,42.0536 82.2204,40.3869 83,38.5C 84.3466,36.5339 85.8466,36.2006 87.5,37.5 Z"/></g>
<g><path style="opacity:1" fill="#505651" d="M 109.5,36.5 C 109.918,37.2216 110.584,37.7216 111.5,38C 110.107,39.1711 109.273,40.6711 109,42.5C 108.586,42.9574 108.086,43.2907 107.5,43.5C 106.818,42.7573 106.151,42.0906 105.5,41.5C 106.124,39.246 107.457,37.5794 109.5,36.5 Z"/></g>
<g><path style="opacity:1" fill="#1a1814" d="M 109.5,36.5 C 111.722,36.178 113.556,36.8446 115,38.5C 115.932,41.8231 115.432,44.8231 113.5,47.5C 112.842,46.6016 112.176,45.6016 111.5,44.5C 109.821,46.1045 107.821,46.7711 105.5,46.5C 105.5,46.1667 105.5,45.8333 105.5,45.5C 105.5,44.1667 105.5,42.8333 105.5,41.5C 106.151,42.0906 106.818,42.7573 107.5,43.5C 108.086,43.2907 108.586,42.9574 109,42.5C 109.273,40.6711 110.107,39.1711 111.5,38C 110.584,37.7216 109.918,37.2216 109.5,36.5 Z"/></g>
<g><path style="opacity:0.037" fill="#d8d8d8" d="M 135.5,28.5 C 136.298,38.3439 136.964,48.3439 137.5,58.5C 135.783,55.1552 135.116,51.4885 135.5,47.5C 135.5,41.1667 135.5,34.8333 135.5,28.5 Z"/></g>
<g><path style="opacity:1" fill="#171717" d="M 87.5,37.5 C 89.8337,39.1757 90.8337,41.509 90.5,44.5C 89.5,44.5 88.5,44.5 87.5,44.5C 87.5,45.5 87.5,46.5 87.5,47.5C 87.1583,48.3382 86.4916,48.6716 85.5,48.5C 84.5592,46.9505 83.8925,45.2838 83.5,43.5C 84.8465,41.4632 86.1798,39.4632 87.5,37.5 Z"/></g>
<g><path style="opacity:1" fill="#6b490a" d="M 92.5,43.5 C 95.2804,44.0784 97.9471,44.7451 100.5,45.5C 97.6146,45.8064 94.9479,45.4731 92.5,44.5C 92.5,44.1667 92.5,43.8333 92.5,43.5 Z"/></g>
<g><path style="opacity:1" fill="#7f8788" d="M 117.5,30.5 C 117.833,30.5 118.167,30.5 118.5,30.5C 119.469,31.3094 120.302,32.3094 121,33.5C 121.667,37.5 121.667,41.5 121,45.5C 120.623,46.9423 119.79,47.9423 118.5,48.5C 118.746,42.4406 118.413,36.4406 117.5,30.5 Z"/></g>
<g><path style="opacity:1" fill="#6a5e2e" d="M 90.5,44.5 C 90.4431,45.609 90.1098,46.609 89.5,47.5C 88.8333,47.5 88.1667,47.5 87.5,47.5C 87.5,46.5 87.5,45.5 87.5,44.5C 88.5,44.5 89.5,44.5 90.5,44.5 Z"/></g>
<g><path style="opacity:1" fill="#644921" d="M 113.5,47.5 C 113.5,47.8333 113.5,48.1667 113.5,48.5C 113.167,48.5 112.833,48.5 112.5,48.5C 109.933,48.2785 107.599,47.6118 105.5,46.5C 107.821,46.7711 109.821,46.1045 111.5,44.5C 112.176,45.6016 112.842,46.6016 113.5,47.5 Z"/></g>
<g><path style="opacity:1" fill="#caaa63" d="M 112.5,48.5 C 112.833,48.5 113.167,48.5 113.5,48.5C 115.042,49.3007 116.708,49.634 118.5,49.5C 118.557,50.609 118.89,51.609 119.5,52.5C 116.454,52.2753 114.121,50.942 112.5,48.5 Z"/></g>
<g><path style="opacity:1" fill="#fbc80a" d="M 95.5,63.5 C 95.67,62.1779 95.3366,61.0113 94.5,60C 96.4574,57.8788 96.9574,55.3788 96,52.5C 94.6012,51.7734 93.1012,51.2734 91.5,51C 90.2617,50.31 90.2617,49.81 91.5,49.5C 95.3968,46.5184 98.5635,47.1851 101,51.5C 105.401,47.5381 109.568,47.8715 113.5,52.5C 112.752,54.3325 111.752,55.9991 110.5,57.5C 105.916,60.2835 100.916,62.2835 95.5,63.5 Z"/></g>
<g><path style="opacity:0.616" fill="#66645d" d="M 79.5,39.5 C 80.2667,43.1488 81.6001,46.4822 83.5,49.5C 82.925,51.4113 81.925,53.078 80.5,54.5C 79.5489,55.9187 79.2155,57.5853 79.5,59.5C 79.5,60.1667 79.5,60.8333 79.5,61.5C 77.9823,64.5341 77.1489,67.8675 77,71.5C 75.3952,74.1915 73.8952,76.8582 72.5,79.5C 72.7038,76.4824 73.0371,73.4824 73.5,70.5C 73.5,70.1667 73.5,69.8333 73.5,69.5C 74.1174,69.3893 74.6174,69.056 75,68.5C 77.1962,59.9815 78.0295,51.3148 77.5,42.5C 78.1667,41.5 78.8333,40.5 79.5,39.5 Z"/></g>
<g><path style="opacity:1" fill="#f6df6f" d="M 87.5,47.5 C 88.1667,47.5 88.8333,47.5 89.5,47.5C 87.7926,52.0422 89.4593,54.0422 94.5,53.5C 93.9052,56.4254 92.2385,58.4254 89.5,59.5C 86.9556,58.1487 84.2889,57.1487 81.5,56.5C 80.7025,56.0431 80.3691,55.3764 80.5,54.5C 81.925,53.078 82.925,51.4113 83.5,49.5C 84.1667,49.1667 84.8333,48.8333 85.5,48.5C 86.4916,48.6716 87.1583,48.3382 87.5,47.5 Z"/></g>
<g><path style="opacity:1" fill="#a06a2a" d="M 119.5,52.5 C 121.844,55.0729 122.177,58.0729 120.5,61.5C 119.391,61.5569 118.391,61.8902 117.5,62.5C 117.383,60.5165 118.05,58.8498 119.5,57.5C 119.167,57.1667 118.833,56.8333 118.5,56.5C 116.754,58.2516 114.754,59.5849 112.5,60.5C 114.862,57.808 117.196,55.1413 119.5,52.5 Z"/></g>
<g><path style="opacity:1" fill="#f8d031" d="M 89.5,47.5 C 90.8333,47.5 91.5,48.1667 91.5,49.5C 90.2617,49.81 90.2617,50.31 91.5,51C 93.1012,51.2734 94.6012,51.7734 96,52.5C 96.9574,55.3788 96.4574,57.8788 94.5,60C 95.3366,61.0113 95.67,62.1779 95.5,63.5C 92.7338,63.3303 90.0672,62.6636 87.5,61.5C 86.2739,61.5195 85.2739,61.8529 84.5,62.5C 83.078,61.075 81.4113,60.075 79.5,59.5C 79.2155,57.5853 79.5489,55.9187 80.5,54.5C 80.3691,55.3764 80.7025,56.0431 81.5,56.5C 84.2889,57.1487 86.9556,58.1487 89.5,59.5C 92.2385,58.4254 93.9052,56.4254 94.5,53.5C 89.4593,54.0422 87.7926,52.0422 89.5,47.5 Z"/></g>
<g><path style="opacity:1" fill="#e8aa18" d="M 90.5,44.5 C 91.1667,44.5 91.8333,44.5 92.5,44.5C 94.9479,45.4731 97.6146,45.8064 100.5,45.5C 101.167,45.5 101.833,45.5 102.5,45.5C 103.5,45.5 104.5,45.5 105.5,45.5C 105.5,45.8333 105.5,46.1667 105.5,46.5C 107.599,47.6118 109.933,48.2785 112.5,48.5C 114.121,50.942 116.454,52.2753 119.5,52.5C 117.196,55.1413 114.862,57.808 112.5,60.5C 108.477,63.0128 104.144,64.6795 99.5,65.5C 94.1059,65.8758 89.1059,64.8758 84.5,62.5C 85.2739,61.8529 86.2739,61.5195 87.5,61.5C 90.0672,62.6636 92.7338,63.3303 95.5,63.5C 100.916,62.2835 105.916,60.2835 110.5,57.5C 111.752,55.9991 112.752,54.3325 113.5,52.5C 109.568,47.8715 105.401,47.5381 101,51.5C 98.5635,47.1851 95.3968,46.5184 91.5,49.5C 91.5,48.1667 90.8333,47.5 89.5,47.5C 90.1098,46.609 90.4431,45.609 90.5,44.5 Z"/></g>
<g><path style="opacity:1" fill="#ae6914" d="M 79.5,59.5 C 81.4113,60.075 83.078,61.075 84.5,62.5C 89.1059,64.8758 94.1059,65.8758 99.5,65.5C 96.1332,66.1347 92.7999,67.1347 89.5,68.5C 87.8228,67.8131 86.1561,67.1465 84.5,66.5C 83.8333,66.5 83.1667,66.5 82.5,66.5C 82.7271,64.0672 81.7271,62.4006 79.5,61.5C 79.5,60.8333 79.5,60.1667 79.5,59.5 Z"/></g>
<g><path style="opacity:0.684" fill="#838383" d="M 137.5,58.5 C 139.642,62.9148 141.975,67.2481 144.5,71.5C 143.542,71.0472 142.708,70.3805 142,69.5C 141.667,69.8333 141.333,70.1667 141,70.5C 140.138,68.913 139.471,67.2464 139,65.5C 138.667,65.8333 138.333,66.1667 138,66.5C 138.281,63.9429 138.114,61.2763 137.5,58.5 Z"/></g>
<g><path style="opacity:1" fill="#8d4e11" d="M 117.5,62.5 C 114.61,66.7241 110.61,68.7241 105.5,68.5C 99.8864,68.073 94.5531,68.7396 89.5,70.5C 87.2512,69.9202 85.5846,68.5869 84.5,66.5C 86.1561,67.1465 87.8228,67.8131 89.5,68.5C 92.7999,67.1347 96.1332,66.1347 99.5,65.5C 104.144,64.6795 108.477,63.0128 112.5,60.5C 114.754,59.5849 116.754,58.2516 118.5,56.5C 118.833,56.8333 119.167,57.1667 119.5,57.5C 118.05,58.8498 117.383,60.5165 117.5,62.5 Z"/></g>
<g><path style="opacity:1" fill="#684d36" d="M 120.5,61.5 C 120.5,62.8333 120.5,64.1667 120.5,65.5C 119.391,65.5569 118.391,65.8902 117.5,66.5C 115.795,68.1921 113.795,69.5254 111.5,70.5C 105.796,72.6521 99.7963,73.6521 93.5,73.5C 91.5956,73.2624 90.2623,72.2624 89.5,70.5C 95.3622,73.6006 100.695,72.934 105.5,68.5C 110.61,68.7241 114.61,66.7241 117.5,62.5C 118.391,61.8902 119.391,61.5569 120.5,61.5 Z"/></g>
<g><path style="opacity:0.129" fill="#cbcbcb" d="M 71.5,74.5 C 71.1162,78.2725 69.4495,81.2725 66.5,83.5C 67.9166,80.331 69.5832,77.331 71.5,74.5 Z"/></g>
<g><path style="opacity:1" fill="#a8a7a7" d="M 120.5,65.5 C 120.629,67.2161 120.962,68.8828 121.5,70.5C 121.328,71.4916 121.662,72.1583 122.5,72.5C 122.5,72.8333 122.5,73.1667 122.5,73.5C 121.153,72.9717 119.819,72.805 118.5,73C 117.666,76.4911 116,79.4911 113.5,82C 111.382,82.2602 109.716,83.2602 108.5,85C 105.106,85.7517 101.773,85.5851 98.5,84.5C 96.4435,80.7771 93.4435,78.1104 89.5,76.5C 90.3256,75.549 90.4922,74.549 90,73.5C 87.9307,71.9146 85.764,70.5813 83.5,69.5C 82.8333,70.8333 82.1667,72.1667 81.5,73.5C 81.5,71.8333 81.5,70.1667 81.5,68.5C 82.3382,68.1583 82.6716,67.4916 82.5,66.5C 83.1667,66.5 83.8333,66.5 84.5,66.5C 85.5846,68.5869 87.2512,69.9202 89.5,70.5C 90.2623,72.2624 91.5956,73.2624 93.5,73.5C 93.5,74.8333 94.1667,75.5 95.5,75.5C 97.9075,80.8939 101.908,82.5606 107.5,80.5C 110.882,76.359 114.216,71.6924 117.5,66.5C 118.391,65.8902 119.391,65.5569 120.5,65.5 Z"/></g>
<g><path style="opacity:1" fill="#808080" d="M 117.5,66.5 C 114.216,71.6924 110.882,76.359 107.5,80.5C 101.908,82.5606 97.9075,80.8939 95.5,75.5C 97.4878,75.8271 99.4878,76.1604 101.5,76.5C 104.67,74.9129 108.003,73.9129 111.5,73.5C 111.5,72.5 111.5,71.5 111.5,70.5C 113.795,69.5254 115.795,68.1921 117.5,66.5 Z"/></g>
<g><path style="opacity:1" fill="#625e5a" d="M 111.5,70.5 C 111.5,71.5 111.5,72.5 111.5,73.5C 108.003,73.9129 104.67,74.9129 101.5,76.5C 99.4878,76.1604 97.4878,75.8271 95.5,75.5C 94.1667,75.5 93.5,74.8333 93.5,73.5C 99.7963,73.6521 105.796,72.6521 111.5,70.5 Z"/></g>
<g><path style="opacity:1" fill="#6b3509" d="M 105.5,68.5 C 100.695,72.934 95.3622,73.6006 89.5,70.5C 94.5531,68.7396 99.8864,68.073 105.5,68.5 Z"/></g>
<g><path style="opacity:0.799" fill="#858585" d="M 144.5,71.5 C 148.575,75.9756 151.908,80.9756 154.5,86.5C 153.18,85.0582 151.514,84.3915 149.5,84.5C 149.715,82.8212 149.048,81.8212 147.5,81.5C 145.369,78.5539 144.369,75.2206 144.5,71.5 Z"/></g>
<g><path style="opacity:1" fill="#0d0d0d" d="M 125.5,71.5 C 125.238,72.9778 125.571,74.3112 126.5,75.5C 128.116,76.1152 129.449,77.1152 130.5,78.5C 134.326,80.0304 138.493,81.6971 143,83.5C 143.129,86.0027 144.129,88.0027 146,89.5C 146.494,91.1341 146.66,92.8008 146.5,94.5C 142.469,94.2335 138.636,93.2335 135,91.5C 134.148,92.5707 133.315,93.5707 132.5,94.5C 132.068,93.2905 131.401,92.2905 130.5,91.5C 128.421,86.3444 126.088,81.3444 123.5,76.5C 123.443,75.391 123.11,74.391 122.5,73.5C 122.5,73.1667 122.5,72.8333 122.5,72.5C 123.209,71.596 124.209,71.2627 125.5,71.5 Z"/></g>
<g><path style="opacity:1" fill="#e6e6e6" d="M 83.5,69.5 C 83.3832,71.4835 84.0499,73.1502 85.5,74.5C 84.9747,75.1924 84.3081,75.6924 83.5,76C 87.9307,78.9342 91.5974,82.7676 94.5,87.5C 98.4161,88.8124 102.416,89.8124 106.5,90.5C 109.381,89.922 112.048,88.922 114.5,87.5C 114.351,86.448 114.517,85.448 115,84.5C 118.07,81.9615 120.903,79.2949 123.5,76.5C 126.088,81.3444 128.421,86.3444 130.5,91.5C 128.921,94.1 129.255,96.4334 131.5,98.5C 130.369,99.6039 129.535,99.2705 129,97.5C 128.496,100.185 127.33,102.519 125.5,104.5C 131.824,120.978 131.324,137.312 124,153.5C 121.404,155.02 118.571,155.853 115.5,156C 114.624,157.586 113.624,159.086 112.5,160.5C 111.707,160.069 110.873,159.735 110,159.5C 108.177,160.651 106.344,161.818 104.5,163C 98.8431,163.499 93.1764,163.666 87.5,163.5C 87.3068,159.551 86.8068,159.551 86,163.5C 85.5,162.333 84.6667,161.5 83.5,161C 83.8333,160.667 84.1667,160.333 84.5,160C 78.0037,156.464 72.3371,151.964 67.5,146.5C 68.8146,145.105 68.4812,144.105 66.5,143.5C 65.1188,138.522 63.4521,133.688 61.5,129C 61.7346,126.648 61.9012,124.148 62,121.5C 63.2181,117.72 64.3848,113.886 65.5,110C 64.7476,109.329 64.4142,108.496 64.5,107.5C 65.3507,105.118 66.684,103.118 68.5,101.5C 73.9188,92.6629 78.2521,83.3296 81.5,73.5C 82.1667,72.1667 82.8333,70.8333 83.5,69.5 Z"/></g>
<g><path style="opacity:1" fill="#cdcdcc" d="M 83.5,69.5 C 85.764,70.5813 87.9307,71.9146 90,73.5C 90.4922,74.549 90.3256,75.549 89.5,76.5C 93.4435,78.1104 96.4435,80.7771 98.5,84.5C 101.773,85.5851 105.106,85.7517 108.5,85C 109.716,83.2602 111.382,82.2602 113.5,82C 116,79.4911 117.666,76.4911 118.5,73C 119.819,72.805 121.153,72.9717 122.5,73.5C 123.11,74.391 123.443,75.391 123.5,76.5C 120.903,79.2949 118.07,81.9615 115,84.5C 114.517,85.448 114.351,86.448 114.5,87.5C 112.048,88.922 109.381,89.922 106.5,90.5C 102.416,89.8124 98.4161,88.8124 94.5,87.5C 91.5974,82.7676 87.9307,78.9342 83.5,76C 84.3081,75.6924 84.9747,75.1924 85.5,74.5C 84.0499,73.1502 83.3832,71.4835 83.5,69.5 Z"/></g>
<g><path style="opacity:0.125" fill="#dddddd" d="M 66.5,83.5 C 61.1866,93.4573 55.8533,103.457 50.5,113.5C 49.8333,113.833 49.1667,114.167 48.5,114.5C 53.7459,103.667 59.7459,93.334 66.5,83.5 Z"/></g>
<g><path style="opacity:1" fill="#131313" d="M 125.5,71.5 C 126.167,71.5 126.833,71.5 127.5,71.5C 127.703,73.6382 128.703,75.3049 130.5,76.5C 135.006,77.1387 139.34,78.1387 143.5,79.5C 145.541,83.2581 147.374,87.2581 149,91.5C 152.055,94.531 154.555,97.8643 156.5,101.5C 159.797,108.205 162.63,115.205 165,122.5C 164.928,127.308 165.761,131.808 167.5,136C 165.935,137.412 164.269,138.579 162.5,139.5C 158.204,138.537 153.871,138.371 149.5,139C 148.069,139.465 146.903,140.299 146,141.5C 145.536,140.906 145.369,140.239 145.5,139.5C 145.5,138.5 145.5,137.5 145.5,136.5C 147.117,135.962 148.784,135.629 150.5,135.5C 150.694,132.67 151.361,130.004 152.5,127.5C 152.5,126.833 152.5,126.167 152.5,125.5C 153.993,124.688 154.66,123.355 154.5,121.5C 154.158,119.133 153.658,116.8 153,114.5C 151.031,109.885 148.697,105.552 146,101.5C 141.794,99.8922 138.127,97.5588 135,94.5C 134.835,96.678 135.668,98.5114 137.5,100C 136.906,100.464 136.239,100.631 135.5,100.5C 134.5,98.5 133.5,96.5 132.5,94.5C 133.315,93.5707 134.148,92.5707 135,91.5C 138.636,93.2335 142.469,94.2335 146.5,94.5C 146.66,92.8008 146.494,91.1341 146,89.5C 144.129,88.0027 143.129,86.0027 143,83.5C 138.493,81.6971 134.326,80.0304 130.5,78.5C 129.449,77.1152 128.116,76.1152 126.5,75.5C 125.571,74.3112 125.238,72.9778 125.5,71.5 Z"/></g>
<g><path style="opacity:1" fill="#222122" d="M 81.5,68.5 C 81.5,70.1667 81.5,71.8333 81.5,73.5C 78.2521,83.3296 73.9188,92.6629 68.5,101.5C 66.684,103.118 65.3507,105.118 64.5,107.5C 62.9291,109.635 61.5957,111.968 60.5,114.5C 57.4317,109.384 58.4317,105.05 63.5,101.5C 65.0847,94.0884 68.5847,87.7551 74,82.5C 76.4892,76.8509 78.8225,71.1842 81,65.5C 81.4828,66.448 81.6495,67.448 81.5,68.5 Z"/></g>
<g><path style="opacity:1" fill="#484848" d="M 147.5,81.5 C 149.048,81.8212 149.715,82.8212 149.5,84.5C 151.514,84.3915 153.18,85.0582 154.5,86.5C 155.022,89.2529 155.856,91.9196 157,94.5C 157.667,95.8333 158.333,95.8333 159,94.5C 161.319,97.627 162.152,100.96 161.5,104.5C 162.188,105.855 163.188,106.855 164.5,107.5C 164.5,108.833 164.5,110.167 164.5,111.5C 163.357,111.092 162.357,110.425 161.5,109.5C 156.634,100.217 151.968,90.8836 147.5,81.5 Z"/></g>
<g><path style="opacity:0.959" fill="#848484" d="M 154.5,86.5 C 159.826,92.4763 164.159,99.1429 167.5,106.5C 165.804,104.871 164.804,105.204 164.5,107.5C 163.188,106.855 162.188,105.855 161.5,104.5C 162.152,100.96 161.319,97.627 159,94.5C 158.333,95.8333 157.667,95.8333 157,94.5C 155.856,91.9196 155.022,89.2529 154.5,86.5 Z"/></g>
<g><path style="opacity:1" fill="#f4f4f4" d="M 68.5,101.5 C 73.0377,100.14 75.871,97.1405 77,92.5C 78.2247,96.18 79.058,95.8466 79.5,91.5C 82.4475,91.7771 85.2809,91.4438 88,90.5C 88.9025,91.7014 90.0692,92.5348 91.5,93C 98.6758,93.0003 105.676,94.0003 112.5,96C 114.683,98.3504 117.016,100.517 119.5,102.5C 124.6,111.945 127.1,121.945 127,132.5C 125.38,135.575 123.88,138.742 122.5,142C 123.713,144.641 122.713,145.808 119.5,145.5C 116.121,151.881 110.787,155.881 103.5,157.5C 100.542,155.714 97.7088,153.714 95,151.5C 92.6221,153.383 90.1221,155.05 87.5,156.5C 83.3513,155.3 79.3513,153.8 75.5,152C 72.4787,148.053 69.6453,143.886 67,139.5C 65.094,130.158 65.094,120.825 67,111.5C 69.0568,109.766 69.5568,107.766 68.5,105.5C 69.0253,104.808 69.6919,104.308 70.5,104C 69.6195,103.292 68.9528,102.458 68.5,101.5 Z"/></g>
<g><path style="opacity:1" fill="#fdfdfd" d="M 87.5,100.5 C 95.8593,100.62 103.859,101.62 111.5,103.5C 111.351,104.552 111.517,105.552 112,106.5C 113.512,107.257 114.846,108.257 116,109.5C 116.441,113.048 117.941,116.048 120.5,118.5C 120.069,119.293 119.735,120.127 119.5,121C 120.689,122.895 121.689,124.895 122.5,127C 121.621,134.055 118.287,139.555 112.5,143.5C 111.614,144.325 111.281,145.325 111.5,146.5C 100.973,150.668 95.3068,147.001 94.5,135.5C 92.5,138.167 90.1667,140.5 87.5,142.5C 91.1899,144.051 91.1899,145.884 87.5,148C 84.854,148.497 82.1873,148.664 79.5,148.5C 79.6602,146.801 79.4935,145.134 79,143.5C 78.5172,144.448 78.3505,145.448 78.5,146.5C 75.9212,145.447 73.4212,144.113 71,142.5C 70.8485,139.881 70.0152,137.547 68.5,135.5C 64.212,121.966 67.712,110.966 79,102.5C 79.7247,103.059 80.5581,103.392 81.5,103.5C 83.5629,102.488 85.5629,101.488 87.5,100.5 Z"/></g>
<g><path style="opacity:1" fill="#3e3e3e" d="M 152.5,125.5 C 152.795,123.265 152.461,121.265 151.5,119.5C 151.293,116.759 150.293,114.426 148.5,112.5C 148.033,109.703 146.367,108.369 143.5,108.5C 144.84,115.015 146.673,121.348 149,127.5C 150.092,129.931 151.259,129.931 152.5,127.5C 151.361,130.004 150.694,132.67 150.5,135.5C 148.784,135.629 147.117,135.962 145.5,136.5C 145.817,132.298 145.483,128.298 144.5,124.5C 144.706,121.505 144.04,118.838 142.5,116.5C 140.703,110.908 138.37,105.575 135.5,100.5C 136.239,100.631 136.906,100.464 137.5,100C 135.668,98.5114 134.835,96.678 135,94.5C 138.127,97.5588 141.794,99.8922 146,101.5C 148.697,105.552 151.031,109.885 153,114.5C 153.658,116.8 154.158,119.133 154.5,121.5C 154.66,123.355 153.993,124.688 152.5,125.5 Z"/></g>
<g><path style="opacity:1" fill="#797979" d="M 73.5,70.5 C 73.0371,73.4824 72.7038,76.4824 72.5,79.5C 66.023,89.7758 60.023,100.442 54.5,111.5C 52.4875,116.652 50.6542,121.985 49,127.5C 48.6076,130.188 48.1076,132.855 47.5,135.5C 48.9028,137.417 48.5695,138.417 46.5,138.5C 45.4448,135.927 45.2782,133.261 46,130.5C 48.2839,125.03 49.7839,119.364 50.5,113.5C 55.8533,103.457 61.1866,93.4573 66.5,83.5C 69.4495,81.2725 71.1162,78.2725 71.5,74.5C 71.6596,72.847 72.3263,71.5137 73.5,70.5 Z"/></g>
<g><path style="opacity:1" fill="#464645" d="M 79.5,61.5 C 81.7271,62.4006 82.7271,64.0672 82.5,66.5C 82.6716,67.4916 82.3382,68.1583 81.5,68.5C 81.6495,67.448 81.4828,66.448 81,65.5C 78.8225,71.1842 76.4892,76.8509 74,82.5C 68.5847,87.7551 65.0847,94.0884 63.5,101.5C 58.4317,105.05 57.4317,109.384 60.5,114.5C 59.6373,116.421 58.9707,118.421 58.5,120.5C 57.5416,120.047 56.7083,119.381 56,118.5C 54.984,119.634 54.3173,119.301 54,117.5C 53.8195,115.512 53.9862,113.512 54.5,111.5C 60.023,100.442 66.023,89.7758 72.5,79.5C 73.8952,76.8582 75.3952,74.1915 77,71.5C 77.1489,67.8675 77.9823,64.5341 79.5,61.5 Z"/></g>
<g><path style="opacity:1" fill="#606060" d="M 148.5,112.5 C 147.399,111.2 146.066,110.7 144.5,111C 146.71,115.722 148.71,120.556 150.5,125.5C 151.466,123.604 151.799,121.604 151.5,119.5C 152.461,121.265 152.795,123.265 152.5,125.5C 152.5,126.167 152.5,126.833 152.5,127.5C 151.259,129.931 150.092,129.931 149,127.5C 146.673,121.348 144.84,115.015 143.5,108.5C 146.367,108.369 148.033,109.703 148.5,112.5 Z"/></g>
<g><path style="opacity:1" fill="#3a3a39" d="M 131.5,22.5 C 132.117,22.6107 132.617,22.944 133,23.5C 133.837,31.6515 134.67,39.6515 135.5,47.5C 135.116,51.4885 135.783,55.1552 137.5,58.5C 138.114,61.2763 138.281,63.9429 138,66.5C 138.333,66.1667 138.667,65.8333 139,65.5C 139.471,67.2464 140.138,68.913 141,70.5C 141.333,70.1667 141.667,69.8333 142,69.5C 142.708,70.3805 143.542,71.0472 144.5,71.5C 144.369,75.2206 145.369,78.5539 147.5,81.5C 151.968,90.8836 156.634,100.217 161.5,109.5C 162.357,110.425 163.357,111.092 164.5,111.5C 169.322,120.913 170.656,130.913 168.5,141.5C 166.214,141.405 164.214,140.738 162.5,139.5C 164.269,138.579 165.935,137.412 167.5,136C 165.761,131.808 164.928,127.308 165,122.5C 162.63,115.205 159.797,108.205 156.5,101.5C 154.555,97.8643 152.055,94.531 149,91.5C 147.374,87.2581 145.541,83.2581 143.5,79.5C 139.34,78.1387 135.006,77.1387 130.5,76.5C 128.703,75.3049 127.703,73.6382 127.5,71.5C 126.833,71.5 126.167,71.5 125.5,71.5C 124.209,71.2627 123.209,71.596 122.5,72.5C 121.662,72.1583 121.328,71.4916 121.5,70.5C 122.5,70.5 123.5,70.5 124.5,70.5C 124.5,68.1667 124.5,65.8333 124.5,63.5C 127.286,60.0166 130.452,59.6832 134,62.5C 134.5,62.1667 135,61.8333 135.5,61.5C 133.567,48.567 132.233,35.567 131.5,22.5 Z"/></g>
<g><path style="opacity:1" fill="#595959" d="M 130.5,73.5 C 131.5,73.5 132.5,73.5 133.5,73.5C 134.041,70.3484 133.041,67.8484 130.5,66C 129.4,65.5683 128.733,66.0683 128.5,67.5C 128.846,68.8492 129.179,70.1825 129.5,71.5C 128.833,71.5 128.167,71.5 127.5,71.5C 127.25,68.786 127.083,66.1194 127,63.5C 128.356,62.6198 129.856,62.2865 131.5,62.5C 132.119,65.633 133.786,68.133 136.5,70C 135.767,71.7659 135.433,73.5992 135.5,75.5C 133.302,75.8799 131.635,75.2132 130.5,73.5 Z"/></g>
<g><path style="opacity:1" fill="#919191" d="M 130.5,73.5 C 130.672,72.5084 130.338,71.8417 129.5,71.5C 129.179,70.1825 128.846,68.8492 128.5,67.5C 128.733,66.0683 129.4,65.5683 130.5,66C 133.041,67.8484 134.041,70.3484 133.5,73.5C 132.5,73.5 131.5,73.5 130.5,73.5 Z"/></g>
<g><path style="opacity:1" fill="#5f5d5b" d="M 54.5,111.5 C 53.9862,113.512 53.8195,115.512 54,117.5C 54.3173,119.301 54.984,119.634 56,118.5C 56.7083,119.381 57.5416,120.047 58.5,120.5C 57.6708,125.453 57.3375,130.453 57.5,135.5C 57.6567,136.873 57.49,138.207 57,139.5C 55.2348,133.549 55.0681,127.549 56.5,121.5C 55.1779,121.33 54.0113,121.663 53,122.5C 52.3333,128.5 52.3333,134.5 53,140.5C 55.4961,142.953 58.3294,144.62 61.5,145.5C 64.7852,148.118 67.7852,151.118 70.5,154.5C 70.0582,155.231 69.8915,156.231 70,157.5C 66.0854,153.8 61.9187,150.467 57.5,147.5C 54.9131,144.198 51.5798,141.864 47.5,140.5C 45.3023,140.591 44.9689,139.925 46.5,138.5C 48.5695,138.417 48.9028,137.417 47.5,135.5C 48.1076,132.855 48.6076,130.188 49,127.5C 50.6542,121.985 52.4875,116.652 54.5,111.5 Z"/></g>
<g><path style="opacity:1" fill="#8a8a8a" d="M 148.5,112.5 C 150.293,114.426 151.293,116.759 151.5,119.5C 151.799,121.604 151.466,123.604 150.5,125.5C 148.71,120.556 146.71,115.722 144.5,111C 146.066,110.7 147.399,111.2 148.5,112.5 Z"/></g>
<g><path style="opacity:0.953" fill="#a4a09d" d="M 50.5,113.5 C 49.7839,119.364 48.2839,125.03 46,130.5C 45.2782,133.261 45.4448,135.927 46.5,138.5C 44.9689,139.925 45.3023,140.591 47.5,140.5C 47.5,140.833 47.5,141.167 47.5,141.5C 45.7839,141.629 44.1172,141.962 42.5,142.5C 42.3345,138.486 42.5012,134.486 43,130.5C 44.746,125.094 46.5793,119.761 48.5,114.5C 49.1667,114.167 49.8333,113.833 50.5,113.5 Z"/></g>
<g><path style="opacity:0.986" fill="#949494" d="M 170.5,111.5 C 172.065,113.509 173.065,115.843 173.5,118.5C 175.036,127.587 174.702,136.587 172.5,145.5C 172.5,145.833 172.5,146.167 172.5,146.5C 172.5,147.167 172.167,147.5 171.5,147.5C 171.219,138.132 171.553,128.799 172.5,119.5C 171.238,116.978 170.571,114.311 170.5,111.5 Z"/></g>
<g><path style="opacity:1" fill="#b4b4b4" d="M 142.5,116.5 C 144.04,118.838 144.706,121.505 144.5,124.5C 144.5,128.167 144.5,131.833 144.5,135.5C 141.95,135.439 140.45,134.106 140,131.5C 136.222,135.286 134.388,139.953 134.5,145.5C 132.798,147.8 132.132,150.467 132.5,153.5C 131.127,153.343 129.793,153.51 128.5,154C 127.459,157.547 125.125,159.381 121.5,159.5C 121.5,160.5 121.5,161.5 121.5,162.5C 116.32,164.794 110.987,166.961 105.5,169C 100.648,169.815 95.9811,169.648 91.5,168.5C 96.9302,168.839 102.264,168.339 107.5,167C 111.052,165.784 114.385,164.117 117.5,162C 118.87,160.559 119.87,158.892 120.5,157C 121.938,156.781 123.271,156.281 124.5,155.5C 127.527,147.913 130.861,140.413 134.5,133C 135.213,127.524 135.713,122.024 136,116.5C 136.915,115.672 137.581,114.672 138,113.5C 139.829,115.156 141.163,117.156 142,119.5C 142.483,118.552 142.649,117.552 142.5,116.5 Z"/></g>
<g><path style="opacity:0.165" fill="#e4e4e0" d="M 48.5,114.5 C 46.5793,119.761 44.746,125.094 43,130.5C 42.5012,134.486 42.3345,138.486 42.5,142.5C 41.8333,142.833 41.1667,143.167 40.5,143.5C 40.2274,132.913 42.8941,123.247 48.5,114.5 Z"/></g>
<g><path style="opacity:0.263" fill="#c9c9c9" d="M 173.5,118.5 C 177.764,127.355 177.43,136.355 172.5,145.5C 174.702,136.587 175.036,127.587 173.5,118.5 Z"/></g>
<g><path style="opacity:1" fill="#878b8c" d="M 57.5,135.5 C 58.4242,138.928 59.7575,142.261 61.5,145.5C 58.3294,144.62 55.4961,142.953 53,140.5C 52.3333,134.5 52.3333,128.5 53,122.5C 54.0113,121.663 55.1779,121.33 56.5,121.5C 55.0681,127.549 55.2348,133.549 57,139.5C 57.49,138.207 57.6567,136.873 57.5,135.5 Z"/></g>
<g><path style="opacity:1" fill="#9c9b9a" d="M 144.5,124.5 C 145.483,128.298 145.817,132.298 145.5,136.5C 145.5,137.5 145.5,138.5 145.5,139.5C 143.926,141.102 143.259,143.102 143.5,145.5C 142.833,145.5 142.167,145.5 141.5,145.5C 141.38,144.414 140.713,143.747 139.5,143.5C 137.823,144.187 136.156,144.854 134.5,145.5C 134.388,139.953 136.222,135.286 140,131.5C 140.45,134.106 141.95,135.439 144.5,135.5C 144.5,131.833 144.5,128.167 144.5,124.5 Z"/></g>
<g><path style="opacity:1" fill="#3a3835" d="M 167.5,146.5 C 163.099,146.296 159.099,144.963 155.5,142.5C 152.815,143.171 150.148,143.838 147.5,144.5C 148.23,142.955 149.563,142.122 151.5,142C 155.167,141.333 158.833,141.333 162.5,142C 164.497,143.193 166.164,144.693 167.5,146.5 Z"/></g>
<g><path style="opacity:1" fill="#686867" d="M 167.5,106.5 C 168.89,107.899 169.89,109.566 170.5,111.5C 170.571,114.311 171.238,116.978 172.5,119.5C 171.553,128.799 171.219,138.132 171.5,147.5C 170.167,147.5 168.833,147.5 167.5,147.5C 167.5,147.167 167.5,146.833 167.5,146.5C 166.164,144.693 164.497,143.193 162.5,142C 158.833,141.333 155.167,141.333 151.5,142C 149.563,142.122 148.23,142.955 147.5,144.5C 146.508,144.328 145.842,144.662 145.5,145.5C 144.833,145.5 144.167,145.5 143.5,145.5C 143.259,143.102 143.926,141.102 145.5,139.5C 145.369,140.239 145.536,140.906 146,141.5C 146.903,140.299 148.069,139.465 149.5,139C 153.871,138.371 158.204,138.537 162.5,139.5C 164.214,140.738 166.214,141.405 168.5,141.5C 170.656,130.913 169.322,120.913 164.5,111.5C 164.5,110.167 164.5,108.833 164.5,107.5C 164.804,105.204 165.804,104.871 167.5,106.5 Z"/></g>
<g><path style="opacity:1" fill="#211a0e" d="M 167.5,146.5 C 167.5,146.833 167.5,147.167 167.5,147.5C 163.5,147.5 159.5,147.5 155.5,147.5C 152.061,147.212 148.728,146.546 145.5,145.5C 145.842,144.662 146.508,144.328 147.5,144.5C 150.148,143.838 152.815,143.171 155.5,142.5C 159.099,144.963 163.099,146.296 167.5,146.5 Z"/></g>
<g><path style="opacity:1" fill="#e0b652" d="M 141.5,145.5 C 142.167,145.5 142.833,145.5 143.5,145.5C 144.167,145.5 144.833,145.5 145.5,145.5C 148.728,146.546 152.061,147.212 155.5,147.5C 161.979,148.491 168.646,148.824 175.5,148.5C 176.933,150.558 177.6,152.892 177.5,155.5C 175.025,154.313 174.025,152.313 174.5,149.5C 166.466,149.698 158.466,149.365 150.5,148.5C 146.03,147.514 141.363,147.181 136.5,147.5C 135.838,151.466 135.505,155.466 135.5,159.5C 134.833,164.833 134.167,170.167 133.5,175.5C 133.5,172.5 133.5,169.5 133.5,166.5C 133.243,160.102 133.743,153.769 135,147.5C 136.897,145.984 139.064,145.317 141.5,145.5 Z"/></g>
<g><path style="opacity:1" fill="#a08f6d" d="M 141.5,145.5 C 139.064,145.317 136.897,145.984 135,147.5C 133.743,153.769 133.243,160.102 133.5,166.5C 133.167,166.5 132.833,166.5 132.5,166.5C 132.5,163.167 132.5,159.833 132.5,156.5C 132.5,155.5 132.5,154.5 132.5,153.5C 132.132,150.467 132.798,147.8 134.5,145.5C 136.156,144.854 137.823,144.187 139.5,143.5C 140.713,143.747 141.38,144.414 141.5,145.5 Z"/></g>
<g><path style="opacity:0.718" fill="#c59d60" d="M 172.5,146.5 C 173.71,146.932 174.71,147.599 175.5,148.5C 168.646,148.824 161.979,148.491 155.5,147.5C 159.5,147.5 163.5,147.5 167.5,147.5C 168.833,147.5 170.167,147.5 171.5,147.5C 172.167,147.5 172.5,147.167 172.5,146.5 Z"/></g>
<g><path style="opacity:1" fill="#f9bc05" d="M 150.5,148.5 C 149.127,148.343 147.793,148.51 146.5,149C 155.077,150.312 163.743,151.145 172.5,151.5C 172.296,153.685 171.63,155.685 170.5,157.5C 170.179,159.048 169.179,159.715 167.5,159.5C 167.5,160.5 167.5,161.5 167.5,162.5C 156.876,162.712 148.376,166.379 142,173.5C 141.667,175.833 141.333,178.167 141,180.5C 139.267,173.011 138.101,165.344 137.5,157.5C 136.818,158.243 136.151,158.909 135.5,159.5C 135.505,155.466 135.838,151.466 136.5,147.5C 141.363,147.181 146.03,147.514 150.5,148.5 Z"/></g>
<g><path style="opacity:1" fill="#f5d95d" d="M 38.5,150.5 C 36.7447,153.436 34.7447,156.269 32.5,159C 29.5184,159.498 26.5184,159.665 23.5,159.5C 25.7171,157.92 28.3837,156.92 31.5,156.5C 33.8528,154.477 36.1862,152.477 38.5,150.5 Z"/></g>
<g><path style="opacity:1" fill="#f7c810" d="M 44.5,143.5 C 44.5,143.833 44.5,144.167 44.5,144.5C 43.6087,146.291 42.6087,148.124 41.5,150C 43.4089,150.448 44.5756,149.615 45,147.5C 45.5613,148.022 46.228,148.355 47,148.5C 49.9207,151.789 52.754,155.123 55.5,158.5C 54.1966,160.937 52.5299,163.104 50.5,165C 48.8126,164.807 47.4792,163.807 46.5,162C 43.5628,161.9 40.8961,161.067 38.5,159.5C 36.4648,160.041 34.4648,160.708 32.5,161.5C 29.0637,169.721 27.397,169.388 27.5,160.5C 26.1667,160.5 24.8333,160.5 23.5,160.5C 23.8115,168.228 23.3115,175.895 22,183.5C 21.8138,180.964 21.3138,178.631 20.5,176.5C 19.2852,171.485 19.2852,166.485 20.5,161.5C 20.0431,160.702 19.3764,160.369 18.5,160.5C 19.9187,159.549 21.5853,159.216 23.5,159.5C 26.5184,159.665 29.5184,159.498 32.5,159C 34.7447,156.269 36.7447,153.436 38.5,150.5C 39.3481,147.112 41.3481,144.779 44.5,143.5 Z"/></g>
<g><path style="opacity:1" fill="#fabf03" d="M 44.5,144.5 C 49.1698,144.821 52.8365,146.821 55.5,150.5C 55.8333,152.5 56.1667,154.5 56.5,156.5C 58.6755,162.689 61.3421,168.689 64.5,174.5C 63.8551,175.646 63.0217,176.646 62,177.5C 59.828,176.415 57.828,175.081 56,173.5C 55.6667,174.167 55.3333,174.833 55,175.5C 51.8428,171.648 48.0095,170.314 43.5,171.5C 41.6803,171.351 40.1803,170.684 39,169.5C 36.6451,170.808 34.1451,171.808 31.5,172.5C 30.9917,176.303 30.1584,179.97 29,183.5C 27.908,180.956 27.2414,178.289 27,175.5C 25.1749,179.234 24.1749,183.234 24,187.5C 23.5831,188.756 22.7498,189.423 21.5,189.5C 21.1667,189.5 20.8333,189.5 20.5,189.5C 20.5,185.167 20.5,180.833 20.5,176.5C 21.3138,178.631 21.8138,180.964 22,183.5C 23.3115,175.895 23.8115,168.228 23.5,160.5C 24.8333,160.5 26.1667,160.5 27.5,160.5C 27.397,169.388 29.0637,169.721 32.5,161.5C 34.4648,160.708 36.4648,160.041 38.5,159.5C 40.8961,161.067 43.5628,161.9 46.5,162C 47.4792,163.807 48.8126,164.807 50.5,165C 52.5299,163.104 54.1966,160.937 55.5,158.5C 52.754,155.123 49.9207,151.789 47,148.5C 46.228,148.355 45.5613,148.022 45,147.5C 44.5756,149.615 43.4089,150.448 41.5,150C 42.6087,148.124 43.6087,146.291 44.5,144.5 Z"/></g>
<g><path style="opacity:1" fill="#15100f" d="M 57.5,147.5 C 61.9187,150.467 66.0854,153.8 70,157.5C 69.8915,156.231 70.0582,155.231 70.5,154.5C 73.2072,156.843 75.8739,159.177 78.5,161.5C 79.7888,162.637 80.7888,163.97 81.5,165.5C 81.634,167.292 81.3007,168.958 80.5,170.5C 78.8333,171.5 77.5,172.833 76.5,174.5C 75.8333,174.5 75.1667,174.5 74.5,174.5C 69.2242,165.23 63.5575,156.23 57.5,147.5 Z"/></g>
<g><path style="opacity:0.22" fill="#f8deb3" d="M 175.5,148.5 C 176.458,148.953 177.292,149.619 178,150.5C 178.72,154.716 180.053,158.716 182,162.5C 184.703,165.538 187.703,168.205 191,170.5C 192.663,173.56 192.83,176.56 191.5,179.5C 192.341,175.425 191.008,172.425 187.5,170.5C 182.074,166.768 178.741,161.768 177.5,155.5C 177.6,152.892 176.933,150.558 175.5,148.5 Z"/></g>
<g><path style="opacity:1" fill="#cecece" d="M 130.5,91.5 C 131.401,92.2905 132.068,93.2905 132.5,94.5C 133.5,96.5 134.5,98.5 135.5,100.5C 138.37,105.575 140.703,110.908 142.5,116.5C 142.649,117.552 142.483,118.552 142,119.5C 141.163,117.156 139.829,115.156 138,113.5C 137.581,114.672 136.915,115.672 136,116.5C 135.713,122.024 135.213,127.524 134.5,133C 130.861,140.413 127.527,147.913 124.5,155.5C 123.271,156.281 121.938,156.781 120.5,157C 119.87,158.892 118.87,160.559 117.5,162C 114.385,164.117 111.052,165.784 107.5,167C 102.264,168.339 96.9302,168.839 91.5,168.5C 86.3271,168.157 83.1604,165.49 82,160.5C 81.6667,161.167 81.3333,161.833 81,162.5C 80.3292,161.748 79.4959,161.414 78.5,161.5C 75.8739,159.177 73.2072,156.843 70.5,154.5C 67.7852,151.118 64.7852,148.118 61.5,145.5C 59.7575,142.261 58.4242,138.928 57.5,135.5C 57.3375,130.453 57.6708,125.453 58.5,120.5C 58.9707,118.421 59.6373,116.421 60.5,114.5C 61.5957,111.968 62.9291,109.635 64.5,107.5C 64.4142,108.496 64.7476,109.329 65.5,110C 64.3848,113.886 63.2181,117.72 62,121.5C 61.9012,124.148 61.7346,126.648 61.5,129C 63.4521,133.688 65.1188,138.522 66.5,143.5C 68.4812,144.105 68.8146,145.105 67.5,146.5C 72.3371,151.964 78.0037,156.464 84.5,160C 84.1667,160.333 83.8333,160.667 83.5,161C 84.6667,161.5 85.5,162.333 86,163.5C 86.8068,159.551 87.3068,159.551 87.5,163.5C 93.1764,163.666 98.8431,163.499 104.5,163C 106.344,161.818 108.177,160.651 110,159.5C 110.873,159.735 111.707,160.069 112.5,160.5C 113.624,159.086 114.624,157.586 115.5,156C 118.571,155.853 121.404,155.02 124,153.5C 131.324,137.312 131.824,120.978 125.5,104.5C 127.33,102.519 128.496,100.185 129,97.5C 129.535,99.2705 130.369,99.6039 131.5,98.5C 129.255,96.4334 128.921,94.1 130.5,91.5 Z"/></g>
<g><path style="opacity:1" fill="#cc8424" d="M 47.5,140.5 C 51.5798,141.864 54.9131,144.198 57.5,147.5C 63.5575,156.23 69.2242,165.23 74.5,174.5C 75.3007,176.042 75.634,177.708 75.5,179.5C 74.6252,177.432 73.4585,175.432 72,173.5C 71.5357,174.094 71.369,174.761 71.5,175.5C 71.1667,175.5 70.8333,175.5 70.5,175.5C 69.4,171.314 67.2334,167.647 64,164.5C 63.6667,162.833 63.3333,161.167 63,159.5C 60.4631,156.359 57.9631,153.359 55.5,150.5C 52.8365,146.821 49.1698,144.821 44.5,144.5C 44.5,144.167 44.5,143.833 44.5,143.5C 46.0269,143.573 47.0269,142.906 47.5,141.5C 47.5,141.167 47.5,140.833 47.5,140.5 Z"/></g>
<g><path style="opacity:1" fill="#a5a5a4" d="M 132.5,153.5 C 132.5,154.5 132.5,155.5 132.5,156.5C 125.588,159.881 119.588,164.715 114.5,171C 105.332,174.014 96.1658,174.18 87,171.5C 86.6667,171.833 86.3333,172.167 86,172.5C 83.9619,170.402 82.4619,168.069 81.5,165.5C 80.7888,163.97 79.7888,162.637 78.5,161.5C 79.4959,161.414 80.3292,161.748 81,162.5C 81.3333,161.833 81.6667,161.167 82,160.5C 83.1604,165.49 86.3271,168.157 91.5,168.5C 95.9811,169.648 100.648,169.815 105.5,169C 110.987,166.961 116.32,164.794 121.5,162.5C 121.5,161.5 121.5,160.5 121.5,159.5C 125.125,159.381 127.459,157.547 128.5,154C 129.793,153.51 131.127,153.343 132.5,153.5 Z"/></g>
<g><path style="opacity:1" fill="#f8b802" d="M 56.5,156.5 C 58.8251,157.655 59.9918,159.655 60,162.5C 62.7881,164.412 64.1214,167.079 64,170.5C 67.8172,174.747 69.9839,179.747 70.5,185.5C 68.6096,185.703 67.1096,185.037 66,183.5C 64.8138,176.602 63.8138,176.268 63,182.5C 57.5961,179.255 51.9295,176.589 46,174.5C 43.3333,174.5 40.6667,174.5 38,174.5C 36.7101,176.792 35.0435,178.792 33,180.5C 32.6667,180.167 32.3333,179.833 32,179.5C 31.5017,182.817 31.335,186.15 31.5,189.5C 29.5992,189.567 27.7659,189.233 26,188.5C 24.6898,189.13 23.8565,190.13 23.5,191.5C 22.1667,191.5 21.5,190.833 21.5,189.5C 22.7498,189.423 23.5831,188.756 24,187.5C 24.1749,183.234 25.1749,179.234 27,175.5C 27.2414,178.289 27.908,180.956 29,183.5C 30.1584,179.97 30.9917,176.303 31.5,172.5C 34.1451,171.808 36.6451,170.808 39,169.5C 40.1803,170.684 41.6803,171.351 43.5,171.5C 48.0095,170.314 51.8428,171.648 55,175.5C 55.3333,174.833 55.6667,174.167 56,173.5C 57.828,175.081 59.828,176.415 62,177.5C 63.0217,176.646 63.8551,175.646 64.5,174.5C 61.3421,168.689 58.6755,162.689 56.5,156.5 Z"/></g>
<g><path style="opacity:1" fill="#80807f" d="M 132.5,156.5 C 132.5,159.833 132.5,163.167 132.5,166.5C 132.5,166.833 132.5,167.167 132.5,167.5C 131.5,168.167 130.5,168.833 129.5,169.5C 128.768,168.192 127.934,166.858 127,165.5C 122.508,167.589 117.675,170.423 112.5,174C 106.545,175.491 100.545,176.658 94.5,177.5C 91.8518,175.981 89.0185,174.981 86,174.5C 83.9098,175.791 82.5764,175.124 82,172.5C 81.2825,173.451 80.4491,173.617 79.5,173C 80.2524,172.329 80.5858,171.496 80.5,170.5C 81.3007,168.958 81.634,167.292 81.5,165.5C 82.4619,168.069 83.9619,170.402 86,172.5C 86.3333,172.167 86.6667,171.833 87,171.5C 96.1658,174.18 105.332,174.014 114.5,171C 119.588,164.715 125.588,159.881 132.5,156.5 Z"/></g>
<g><path style="opacity:1" fill="#f0a30a" d="M 150.5,148.5 C 158.466,149.365 166.466,149.698 174.5,149.5C 174.025,152.313 175.025,154.313 177.5,155.5C 178.741,161.768 182.074,166.768 187.5,170.5C 187.539,171.583 187.873,172.583 188.5,173.5C 187.757,174.182 187.091,174.849 186.5,175.5C 180.787,179.871 174.787,183.871 168.5,187.5C 166.36,186.894 164.193,187.227 162,188.5C 162.195,186.874 162.195,185.207 162,183.5C 159.143,186.255 159.31,189.088 162.5,192C 159.013,194.081 155.346,195.581 151.5,196.5C 151.5,197.5 151.5,198.5 151.5,199.5C 146.666,200.08 141.999,201.08 137.5,202.5C 132.9,191.661 131.567,191.994 133.5,203.5C 132.883,203.389 132.383,203.056 132,202.5C 131.5,196.175 131.334,189.842 131.5,183.5C 132.768,181.095 133.435,178.428 133.5,175.5C 134.167,170.167 134.833,164.833 135.5,159.5C 135.334,167.507 135.5,175.507 136,183.5C 137.018,182.294 137.518,182.627 137.5,184.5C 137.518,186.373 137.018,186.706 136,185.5C 133.167,191.49 134.334,196.49 139.5,200.5C 142.109,199.77 144.776,199.27 147.5,199C 148.167,198 148.833,197 149.5,196C 148.956,193.082 148.289,189.915 147.5,186.5C 147.754,182.744 148.421,179.077 149.5,175.5C 151.288,175.785 152.955,175.452 154.5,174.5C 156.949,171.048 160.282,169.382 164.5,169.5C 168.101,169.943 171.435,171.11 174.5,173C 175.042,175.255 176.209,177.088 178,178.5C 178.374,177.584 178.874,176.75 179.5,176C 181.384,175.784 183.051,175.117 184.5,174C 181.29,172.799 178.623,170.799 176.5,168C 175.552,167.517 174.552,167.351 173.5,167.5C 173.413,163.668 172.413,160.335 170.5,157.5C 171.63,155.685 172.296,153.685 172.5,151.5C 163.743,151.145 155.077,150.312 146.5,149C 147.793,148.51 149.127,148.343 150.5,148.5 Z"/></g>
<g><path style="opacity:1" fill="#0a0807" d="M 132.5,167.5 C 132.528,172.862 132.194,178.195 131.5,183.5C 130.833,184.833 130.167,186.167 129.5,187.5C 129.5,186.167 129.5,184.833 129.5,183.5C 119.956,185.969 110.289,188.302 100.5,190.5C 94.2174,190.439 89.0508,188.106 85,183.5C 84.3083,182.563 84.475,181.897 85.5,181.5C 102.843,186.708 117.51,182.708 129.5,169.5C 130.5,168.833 131.5,168.167 132.5,167.5 Z"/></g>
<g><path style="opacity:1" fill="#f4ad03" d="M 55.5,150.5 C 57.9631,153.359 60.4631,156.359 63,159.5C 63.3333,161.167 63.6667,162.833 64,164.5C 67.2334,167.647 69.4,171.314 70.5,175.5C 70.2826,178.421 70.9493,181.087 72.5,183.5C 72.8436,187.228 73.5102,190.895 74.5,194.5C 73.9981,197.339 72.3314,198.672 69.5,198.5C 67.3178,198.303 65.3178,197.636 63.5,196.5C 60.0022,197.943 56.6689,197.776 53.5,196C 55.5845,194.229 57.9178,192.896 60.5,192C 57.3355,188.41 53.3355,186.577 48.5,186.5C 46.5966,188.562 44.2633,189.896 41.5,190.5C 37.4013,191.177 33.4013,192.177 29.5,193.5C 27.9121,192.99 26.7455,191.99 26,190.5C 25.3292,191.252 24.4959,191.586 23.5,191.5C 23.8565,190.13 24.6898,189.13 26,188.5C 27.7659,189.233 29.5992,189.567 31.5,189.5C 31.335,186.15 31.5017,182.817 32,179.5C 32.3333,179.833 32.6667,180.167 33,180.5C 35.0435,178.792 36.7101,176.792 38,174.5C 40.6667,174.5 43.3333,174.5 46,174.5C 51.9295,176.589 57.5961,179.255 63,182.5C 63.8138,176.268 64.8138,176.602 66,183.5C 67.1096,185.037 68.6096,185.703 70.5,185.5C 69.9839,179.747 67.8172,174.747 64,170.5C 64.1214,167.079 62.7881,164.412 60,162.5C 59.9918,159.655 58.8251,157.655 56.5,156.5C 56.1667,154.5 55.8333,152.5 55.5,150.5 Z"/></g>
<g><path style="opacity:1" fill="#eeb42b" d="M 18.5,160.5 C 19.3764,160.369 20.0431,160.702 20.5,161.5C 19.2852,166.485 19.2852,171.485 20.5,176.5C 20.5,180.833 20.5,185.167 20.5,189.5C 19.1667,189.5 18.5,190.167 18.5,191.5C 17.5233,188.713 17.19,185.713 17.5,182.5C 17.175,174.981 17.5084,167.648 18.5,160.5 Z"/></g>
<g><path style="opacity:1" fill="#f4ad04" d="M 170.5,157.5 C 172.413,160.335 173.413,163.668 173.5,167.5C 174.552,167.351 175.552,167.517 176.5,168C 178.623,170.799 181.29,172.799 184.5,174C 183.051,175.117 181.384,175.784 179.5,176C 178.874,176.75 178.374,177.584 178,178.5C 176.209,177.088 175.042,175.255 174.5,173C 171.435,171.11 168.101,169.943 164.5,169.5C 160.282,169.382 156.949,171.048 154.5,174.5C 152.955,175.452 151.288,175.785 149.5,175.5C 148.421,179.077 147.754,182.744 147.5,186.5C 148.289,189.915 148.956,193.082 149.5,196C 148.833,197 148.167,198 147.5,199C 144.776,199.27 142.109,199.77 139.5,200.5C 134.334,196.49 133.167,191.49 136,185.5C 137.018,186.706 137.518,186.373 137.5,184.5C 137.518,182.627 137.018,182.294 136,183.5C 135.5,175.507 135.334,167.507 135.5,159.5C 136.151,158.909 136.818,158.243 137.5,157.5C 138.101,165.344 139.267,173.011 141,180.5C 141.333,178.167 141.667,175.833 142,173.5C 148.376,166.379 156.876,162.712 167.5,162.5C 167.5,161.5 167.5,160.5 167.5,159.5C 169.179,159.715 170.179,159.048 170.5,157.5 Z"/></g>
<g><path style="opacity:1" fill="#696968" d="M 129.5,169.5 C 117.51,182.708 102.843,186.708 85.5,181.5C 83.3649,179.929 81.0316,178.596 78.5,177.5C 77.8333,176.5 77.1667,175.5 76.5,174.5C 77.5,172.833 78.8333,171.5 80.5,170.5C 80.5858,171.496 80.2524,172.329 79.5,173C 80.4491,173.617 81.2825,173.451 82,172.5C 82.5764,175.124 83.9098,175.791 86,174.5C 89.0185,174.981 91.8518,175.981 94.5,177.5C 100.545,176.658 106.545,175.491 112.5,174C 117.675,170.423 122.508,167.589 127,165.5C 127.934,166.858 128.768,168.192 129.5,169.5 Z"/></g>
<g><path style="opacity:1" fill="#98683f" d="M 74.5,174.5 C 75.1667,174.5 75.8333,174.5 76.5,174.5C 77.1667,175.5 77.8333,176.5 78.5,177.5C 78.0618,177.435 77.7284,177.601 77.5,178C 83.9736,183.705 86.307,190.872 84.5,199.5C 82.3633,202.973 79.3633,205.306 75.5,206.5C 75.5,205.833 75.5,205.167 75.5,204.5C 76.9952,204.011 78.3285,203.345 79.5,202.5C 80.7942,201.71 81.9609,200.71 83,199.5C 83.6667,195.833 83.6667,192.167 83,188.5C 82.6174,187.944 82.1174,187.611 81.5,187.5C 79.984,184.467 77.984,181.8 75.5,179.5C 75.634,177.708 75.3007,176.042 74.5,174.5 Z"/></g>
<g><path style="opacity:1" fill="#75581f" d="M 132.5,166.5 C 132.833,166.5 133.167,166.5 133.5,166.5C 133.5,169.5 133.5,172.5 133.5,175.5C 133.435,178.428 132.768,181.095 131.5,183.5C 132.194,178.195 132.528,172.862 132.5,167.5C 132.5,167.167 132.5,166.833 132.5,166.5 Z"/></g>
<g><path style="opacity:0.035" fill="#faedc4" d="M 47.5,141.5 C 47.0269,142.906 46.0269,143.573 44.5,143.5C 41.3481,144.779 39.3481,147.112 38.5,150.5C 36.1862,152.477 33.8528,154.477 31.5,156.5C 28.3837,156.92 25.7171,157.92 23.5,159.5C 21.5853,159.216 19.9187,159.549 18.5,160.5C 17.5084,167.648 17.175,174.981 17.5,182.5C 16.5233,185.287 16.19,188.287 16.5,191.5C 15.9078,181.421 15.7411,171.088 16,160.5C 16.8333,159.667 17.6667,158.833 18.5,158C 28.7302,157.395 36.0636,152.562 40.5,143.5C 41.1667,143.167 41.8333,142.833 42.5,142.5C 44.1172,141.962 45.7839,141.629 47.5,141.5 Z"/></g>
<g><path style="opacity:1" fill="#c98224" d="M 187.5,170.5 C 191.008,172.425 192.341,175.425 191.5,179.5C 190.055,181.063 188.389,182.396 186.5,183.5C 183.095,184.038 180.095,185.371 177.5,187.5C 178.261,183.775 180.594,181.941 184.5,182C 184.043,181.586 183.709,181.086 183.5,180.5C 184.648,178.851 185.981,177.351 187.5,176C 187.272,175.601 186.938,175.435 186.5,175.5C 187.091,174.849 187.757,174.182 188.5,173.5C 187.873,172.583 187.539,171.583 187.5,170.5 Z"/></g>
<g><path style="opacity:0.055" fill="#c89e73" d="M 186.5,183.5 C 183.124,186.194 179.457,188.527 175.5,190.5C 175.782,189.222 176.449,188.222 177.5,187.5C 180.095,185.371 183.095,184.038 186.5,183.5 Z"/></g>
<g><path style="opacity:0.473" fill="#e4b671" d="M 17.5,182.5 C 17.19,185.713 17.5233,188.713 18.5,191.5C 20.5952,192.412 22.5952,193.579 24.5,195C 26.74,195.977 29.0733,196.477 31.5,196.5C 32.5,197.167 33.5,197.833 34.5,198.5C 30.4052,198.192 26.4052,197.359 22.5,196C 19.8936,195.208 17.8936,193.708 16.5,191.5C 16.19,188.287 16.5233,185.287 17.5,182.5 Z"/></g>
<g><path style="opacity:1" fill="#f1a205" d="M 72.5,183.5 C 75.3584,187.959 76.3584,192.793 75.5,198C 70.9401,201.174 65.9401,202.174 60.5,201C 60.0426,200.586 59.7093,200.086 59.5,199.5C 56.4436,198.804 53.4436,197.97 50.5,197C 50.0698,196.08 49.7365,195.247 49.5,194.5C 44.8687,195.619 40.2021,195.619 35.5,194.5C 33.6672,194.585 32.3339,195.252 31.5,196.5C 29.0733,196.477 26.74,195.977 24.5,195C 22.5952,193.579 20.5952,192.412 18.5,191.5C 18.5,190.167 19.1667,189.5 20.5,189.5C 20.8333,189.5 21.1667,189.5 21.5,189.5C 21.5,190.833 22.1667,191.5 23.5,191.5C 24.4959,191.586 25.3292,191.252 26,190.5C 26.7455,191.99 27.9121,192.99 29.5,193.5C 33.4013,192.177 37.4013,191.177 41.5,190.5C 44.2633,189.896 46.5966,188.562 48.5,186.5C 53.3355,186.577 57.3355,188.41 60.5,192C 57.9178,192.896 55.5845,194.229 53.5,196C 56.6689,197.776 60.0022,197.943 63.5,196.5C 65.3178,197.636 67.3178,198.303 69.5,198.5C 72.3314,198.672 73.9981,197.339 74.5,194.5C 73.5102,190.895 72.8436,187.228 72.5,183.5 Z"/></g>
<g><path style="opacity:1" fill="#ee9705" d="M 186.5,175.5 C 186.938,175.435 187.272,175.601 187.5,176C 185.981,177.351 184.648,178.851 183.5,180.5C 183.709,181.086 184.043,181.586 184.5,182C 180.594,181.941 178.261,183.775 177.5,187.5C 175.436,187.687 173.436,188.187 171.5,189C 167.709,190.591 164.376,192.758 161.5,195.5C 156.278,197.397 151.278,199.731 146.5,202.5C 143.355,203.803 140.355,203.803 137.5,202.5C 141.999,201.08 146.666,200.08 151.5,199.5C 151.5,198.5 151.5,197.5 151.5,196.5C 155.346,195.581 159.013,194.081 162.5,192C 159.31,189.088 159.143,186.255 162,183.5C 162.195,185.207 162.195,186.874 162,188.5C 164.193,187.227 166.36,186.894 168.5,187.5C 174.787,183.871 180.787,179.871 186.5,175.5 Z"/></g>
<g><path style="opacity:1" fill="#1c1917" d="M 78.5,177.5 C 81.0316,178.596 83.3649,179.929 85.5,181.5C 84.475,181.897 84.3083,182.563 85,183.5C 89.0508,188.106 94.2174,190.439 100.5,190.5C 110.289,188.302 119.956,185.969 129.5,183.5C 129.5,184.833 129.5,186.167 129.5,187.5C 129.5,190.833 129.5,194.167 129.5,197.5C 128.732,196.737 128.232,195.737 128,194.5C 127.329,193.748 126.496,193.414 125.5,193.5C 126.209,192.596 127.209,192.263 128.5,192.5C 128.99,190.052 128.157,188.385 126,187.5C 113.461,191.395 100.628,193.395 87.5,193.5C 88.2427,194.182 88.9094,194.849 89.5,195.5C 86.6,195.408 84.9333,196.741 84.5,199.5C 86.307,190.872 83.9736,183.705 77.5,178C 77.7284,177.601 78.0618,177.435 78.5,177.5 Z"/></g>
<g><path style="opacity:0.553" fill="#9a6a34" d="M 175.5,190.5 C 173.469,192.522 171.135,194.189 168.5,195.5C 169.848,192.491 172.181,190.824 175.5,190.5 Z"/></g>
<g><path style="opacity:1" fill="#ab5c1a" d="M 81.5,187.5 C 82.1174,187.611 82.6174,187.944 83,188.5C 83.6667,192.167 83.6667,195.833 83,199.5C 81.9609,200.71 80.7942,201.71 79.5,202.5C 81.3169,197.759 81.9836,192.759 81.5,187.5 Z"/></g>
<g><path style="opacity:0.424" fill="#363637" d="M 125.5,193.5 C 122.742,194.761 119.742,195.594 116.5,196C 111.164,196.47 105.83,196.97 100.5,197.5C 96.6044,197.353 92.9377,196.686 89.5,195.5C 88.9094,194.849 88.2427,194.182 87.5,193.5C 100.628,193.395 113.461,191.395 126,187.5C 128.157,188.385 128.99,190.052 128.5,192.5C 127.209,192.263 126.209,192.596 125.5,193.5 Z"/></g>
<g><path style="opacity:0.51" fill="#7f5422" d="M 168.5,195.5 C 165.81,198.185 162.81,200.518 159.5,202.5C 160.802,200.31 162.469,198.31 164.5,196.5C 165.689,195.571 167.022,195.238 168.5,195.5 Z"/></g>
<g><path style="opacity:0.776" fill="#be8b3f" d="M 131.5,183.5 C 131.334,189.842 131.5,196.175 132,202.5C 132.383,203.056 132.883,203.389 133.5,203.5C 134.728,204.306 135.728,205.306 136.5,206.5C 136.5,206.833 136.5,207.167 136.5,207.5C 131.845,205.838 129.512,202.505 129.5,197.5C 129.5,194.167 129.5,190.833 129.5,187.5C 130.167,186.167 130.833,184.833 131.5,183.5 Z"/></g>
<g><path style="opacity:1" fill="#e28018" d="M 31.5,196.5 C 42.6295,196.45 53.2962,198.616 63.5,203C 66.4816,203.498 69.4816,203.665 72.5,203.5C 72.1344,204.695 71.301,205.361 70,205.5C 67.2305,204.652 64.3971,204.319 61.5,204.5C 60.1667,204.5 58.8333,204.5 57.5,204.5C 55.4855,203.076 53.1522,202.41 50.5,202.5C 45.5032,200.251 40.1698,198.917 34.5,198.5C 33.5,197.833 32.5,197.167 31.5,196.5 Z"/></g>
<g><path style="opacity:1" fill="#ee9005" d="M 70.5,175.5 C 70.8333,175.5 71.1667,175.5 71.5,175.5C 72.5874,180.341 74.7541,184.675 78,188.5C 78.6667,192.167 78.6667,195.833 78,199.5C 76.2258,200.965 74.3925,202.298 72.5,203.5C 69.4816,203.665 66.4816,203.498 63.5,203C 53.2962,198.616 42.6295,196.45 31.5,196.5C 32.3339,195.252 33.6672,194.585 35.5,194.5C 40.2021,195.619 44.8687,195.619 49.5,194.5C 49.7365,195.247 50.0698,196.08 50.5,197C 53.4436,197.97 56.4436,198.804 59.5,199.5C 59.7093,200.086 60.0426,200.586 60.5,201C 65.9401,202.174 70.9401,201.174 75.5,198C 76.3584,192.793 75.3584,187.959 72.5,183.5C 70.9493,181.087 70.2826,178.421 70.5,175.5 Z"/></g>
<g><path style="opacity:0.125" fill="#efc299" d="M 34.5,198.5 C 40.1698,198.917 45.5032,200.251 50.5,202.5C 44.9063,201.768 39.5729,200.435 34.5,198.5 Z"/></g>
<g><path style="opacity:0.369" fill="#ce9062" d="M 50.5,202.5 C 53.1522,202.41 55.4855,203.076 57.5,204.5C 54.8478,204.59 52.5145,203.924 50.5,202.5 Z"/></g>
<g><path style="opacity:1" fill="#ec8806" d="M 137.5,202.5 C 140.355,203.803 143.355,203.803 146.5,202.5C 151.278,199.731 156.278,197.397 161.5,195.5C 157.292,199.833 152.292,203.333 146.5,206C 143.183,206.498 139.85,206.665 136.5,206.5C 135.728,205.306 134.728,204.306 133.5,203.5C 131.567,191.994 132.9,191.661 137.5,202.5 Z"/></g>
<g><path style="opacity:0.953" fill="#d06d10" d="M 75.5,179.5 C 77.984,181.8 79.984,184.467 81.5,187.5C 81.9836,192.759 81.3169,197.759 79.5,202.5C 78.3285,203.345 76.9952,204.011 75.5,204.5C 70.7871,207.156 66.1204,207.156 61.5,204.5C 64.3971,204.319 67.2305,204.652 70,205.5C 71.301,205.361 72.1344,204.695 72.5,203.5C 74.3925,202.298 76.2258,200.965 78,199.5C 78.6667,195.833 78.6667,192.167 78,188.5C 74.7541,184.675 72.5874,180.341 71.5,175.5C 71.369,174.761 71.5357,174.094 72,173.5C 73.4585,175.432 74.6252,177.432 75.5,179.5 Z"/></g>
<g><path style="opacity:0.216" fill="#925c29" d="M 159.5,202.5 C 157.371,204.95 154.704,206.617 151.5,207.5C 153.159,204.167 155.825,202.5 159.5,202.5 Z"/></g>
<g><path style="opacity:0.42" fill="#bb773a" d="M 57.5,204.5 C 58.8333,204.5 60.1667,204.5 61.5,204.5C 66.1204,207.156 70.7871,207.156 75.5,204.5C 75.5,205.167 75.5,205.833 75.5,206.5C 73.9448,207.633 72.1114,208.299 70,208.5C 65.492,207.839 61.3253,206.506 57.5,204.5 Z"/></g>
<g><path style="opacity:0.702" fill="#cb751c" d="M 177.5,187.5 C 176.449,188.222 175.782,189.222 175.5,190.5C 172.181,190.824 169.848,192.491 168.5,195.5C 167.022,195.238 165.689,195.571 164.5,196.5C 162.469,198.31 160.802,200.31 159.5,202.5C 155.825,202.5 153.159,204.167 151.5,207.5C 146.5,208.833 141.5,208.833 136.5,207.5C 136.5,207.167 136.5,206.833 136.5,206.5C 139.85,206.665 143.183,206.498 146.5,206C 152.292,203.333 157.292,199.833 161.5,195.5C 164.376,192.758 167.709,190.591 171.5,189C 173.436,188.187 175.436,187.687 177.5,187.5 Z"/></g>
</svg>
