<?xml version="1.0" standalone="no"?>
<!DOCTYPE svg PUBLIC "-//W3C//DTD SVG 20010904//EN"
 "http://www.w3.org/TR/2001/REC-SVG-20010904/DTD/svg10.dtd">
<svg version="1.0" xmlns="http://www.w3.org/2000/svg"
 width="400.000000pt" height="400.000000pt" viewBox="0 0 400.000000 400.000000"
 preserveAspectRatio="xMidYMid meet">

<g transform="translate(0.000000,400.000000) scale(0.100000,-0.100000)"
fill="#000000" stroke="none">
<path d="M1995 3418 c-32 -90 -66 -184 -74 -210 -9 -26 -21 -48 -27 -48 -16 0
-36 -48 -21 -53 7 -2 -9 -61 -47 -173 -33 -93 -60 -170 -61 -172 -1 -1 -15 4
-31 13 -16 8 -36 15 -45 15 -23 0 -30 10 -19 31 6 11 6 20 1 23 -5 4 -11 0
-14 -6 -3 -9 -8 -10 -15 -3 -7 7 -6 20 3 43 17 38 40 44 33 7 -3 -14 -1 -25 3
-25 5 0 9 7 9 15 0 8 6 29 14 47 47 110 55 138 39 138 -10 0 -13 -6 -9 -17 4
-12 0 -10 -12 5 l-18 23 -22 -61 c-12 -33 -17 -58 -12 -55 6 3 10 14 11 23 0
12 3 11 9 -5 6 -14 6 -32 0 -45 -5 -13 -9 -18 -9 -12 -1 6 -7 11 -15 11 -8 0
-22 -23 -32 -54 -19 -55 -26 -60 -70 -43 -31 12 -30 13 -39 -22 -6 -24 -3 -29
29 -42 20 -8 36 -20 36 -25 0 -6 17 -11 38 -11 20 0 46 -7 56 -15 11 -8 28
-15 38 -15 10 0 18 -6 18 -13 0 -8 6 -14 13 -14 6 0 20 -4 30 -8 10 -4 17 -3
17 3 0 6 65 -12 145 -40 80 -28 147 -49 149 -47 3 2 7 16 11 30 6 26 4 27
-134 75 -78 27 -141 54 -141 60 0 11 109 326 115 332 2 3 64 -17 137 -43 73
-26 148 -52 166 -58 32 -11 44 -27 20 -27 -7 0 -73 21 -146 46 -73 26 -134 45
-136 43 -3 -2 -7 -15 -11 -29 -6 -25 -3 -27 134 -74 78 -27 141 -52 141 -56 0
-3 -26 -81 -59 -171 -32 -90 -56 -167 -52 -171 3 -4 17 -9 30 -10 22 -3 28 8
82 161 58 164 65 179 74 169 4 -4 -68 -220 -111 -331 -3 -10 5 -18 25 -25 34
-12 25 -30 104 197 24 69 49 127 55 129 6 2 -11 -60 -38 -138 -28 -78 -50
-143 -50 -145 0 -1 13 -8 29 -13 l29 -10 50 141 c42 121 53 141 68 138 42 -9
57 -5 65 17 7 19 4 24 -27 37 -41 17 -38 40 3 24 34 -13 53 -5 53 21 0 14 -10
24 -30 31 -16 6 -30 17 -30 25 0 18 -53 40 -58 25 -2 -6 -8 -11 -14 -11 -6 0
-8 7 -4 15 6 15 -13 20 -62 16 -12 -1 -21 3 -20 10 4 15 -55 36 -60 21 -2 -7
-64 10 -165 45 -89 31 -164 57 -165 59 -5 3 3 27 78 243 33 96 57 178 53 182
-5 4 -17 10 -29 13 -19 6 -26 -7 -79 -156z m-270 -389 c4 -5 1 -24 -6 -41 -12
-30 -13 -30 -21 -8 -14 38 9 80 27 49z m635 -99 c0 -5 -4 -10 -10 -10 -5 0
-10 5 -10 10 0 6 5 10 10 10 6 0 10 -4 10 -10z"/>
<path d="M1734 3195 c-10 -25 2 -40 39 -52 41 -12 47 -9 47 24 0 36 -74 60
-86 28z"/>
<path d="M2340 3134 c-14 -40 -14 -40 21 -49 24 -6 28 -3 39 30 10 31 10 39
-1 46 -28 18 -47 9 -59 -27z"/>
<path d="M2422 3115 c-18 -39 -15 -52 14 -59 31 -8 28 -10 43 33 9 27 9 36 -1
43 -24 15 -45 8 -56 -17z"/>
<path d="M2499 3089 c-14 -35 -8 -54 20 -62 17 -4 24 2 36 30 17 41 14 49 -19
55 -20 4 -27 -1 -37 -23z"/>
<path d="M1715 3080 c3 -5 16 -10 28 -9 21 0 21 1 2 9 -28 12 -37 12 -30 0z"/>
<path d="M1472 2655 c-7 -14 -12 -27 -12 -29 0 -2 18 -8 41 -15 29 -9 39 -16
35 -27 -17 -42 -18 -48 -2 -26 20 26 36 29 36 6 0 -8 -4 -13 -9 -10 -11 7 -23
-22 -15 -35 3 -5 10 -6 16 -3 6 4 5 10 -3 15 -11 7 -11 9 2 9 9 0 19 9 22 19
5 19 6 19 51 3 46 -17 47 -17 41 -54 -5 -30 -3 -38 14 -48 27 -14 38 -7 46 30
4 17 11 30 17 30 11 0 320 -109 326 -115 3 -2 -22 -79 -54 -170 -47 -138 -55
-168 -43 -176 36 -23 45 -11 103 156 32 91 63 165 68 165 6 0 7 -7 4 -16 -18
-47 -17 -63 2 -73 32 -17 40 -13 47 20 4 17 13 33 20 36 8 2 87 -21 175 -52
89 -31 166 -53 170 -49 5 5 10 17 12 28 2 15 -23 27 -164 78 -102 37 -168 65
-168 73 0 17 -34 28 -60 20 -14 -4 -20 -2 -20 8 0 17 -35 29 -65 21 -17 -4
-88 19 -307 98 -16 5 -28 16 -28 23 0 17 -53 31 -58 15 -3 -7 -10 -5 -23 6
-10 9 -30 17 -44 17 -15 0 -29 6 -32 13 -3 8 -9 11 -14 8 -5 -3 -9 -1 -9 4 0
5 -15 8 -32 8 -18 0 -42 3 -54 7 -16 6 -23 2 -32 -18z"/>
<path d="M1868 2091 c5 -116 -3 -171 -23 -171 -8 0 -30 11 -50 24 -106 72
-261 43 -336 -63 -51 -71 -62 -149 -33 -233 49 -145 237 -208 366 -123 46 30
64 31 71 5 3 -12 14 -20 26 -20 21 0 21 0 19 338 -3 330 -3 337 -23 340 -20 3
-21 -1 -17 -97z m-130 -166 c77 -33 122 -101 122 -187 0 -180 -203 -273 -337
-155 -87 76 -96 198 -21 283 62 70 154 93 236 59z"/>
<path d="M3810 2055 c0 -152 -1 -154 -68 -110 -47 30 -120 47 -172 39 -64 -10
-140 -62 -175 -118 -41 -67 -48 -169 -15 -239 42 -90 124 -140 228 -139 51 0
73 6 117 31 64 36 85 39 85 11 0 -13 7 -20 20 -20 20 0 20 7 20 340 0 333 0
340 -20 340 -19 0 -20 -7 -20 -135z m-89 -150 c95 -67 116 -203 45 -298 -11
-15 -44 -39 -73 -54 -45 -21 -63 -25 -108 -20 -214 22 -253 312 -53 397 13 5
51 9 85 7 50 -2 71 -9 104 -32z"/>
<path d="M328 1976 c-58 -16 -111 -55 -146 -109 -33 -53 -43 -170 -18 -228 54
-129 203 -185 335 -128 48 20 101 68 101 90 0 24 -32 19 -60 -9 -98 -98 -262
-74 -328 48 -19 37 -23 56 -20 107 5 78 42 136 108 169 82 42 174 28 238 -36
32 -32 62 -35 62 -6 0 18 -65 75 -104 91 -50 21 -117 25 -168 11z"/>
<path d="M1064 1976 c-87 -28 -146 -85 -174 -170 -18 -57 -8 -146 25 -201 46
-79 155 -132 246 -120 89 12 193 95 161 127 -9 9 -20 5 -44 -20 -43 -40 -96
-62 -154 -62 -58 0 -104 22 -148 70 -33 37 -61 104 -50 122 3 4 95 8 205 8
119 0 208 4 220 10 44 24 10 122 -63 184 -41 35 -119 67 -162 65 -12 0 -39 -6
-62 -13z m154 -57 c49 -24 102 -89 102 -126 l0 -23 -192 2 c-220 3 -222 4
-166 79 67 87 163 112 256 68z"/>
<path d="M2258 1976 c-142 -39 -218 -177 -176 -318 16 -54 88 -132 140 -153
54 -22 142 -22 193 0 48 20 105 72 105 97 0 26 -23 22 -51 -8 -74 -81 -211
-84 -292 -6 -132 125 -40 352 143 352 53 0 115 -27 149 -64 14 -14 30 -26 38
-26 23 0 14 40 -14 67 -65 59 -154 82 -235 59z"/>
<path d="M2719 1974 c-63 -19 -133 -83 -156 -142 -64 -169 50 -341 228 -344
47 -1 72 6 124 31 64 32 85 33 85 5 0 -8 9 -14 20 -14 19 0 20 7 20 225 0 218
-1 225 -20 225 -13 0 -20 -7 -20 -20 0 -25 -24 -26 -58 -1 -35 24 -115 51
-150 50 -15 0 -48 -7 -73 -15z m155 -48 c102 -43 156 -179 107 -274 -80 -156
-288 -163 -369 -12 -34 64 -28 152 13 212 55 77 164 110 249 74z"/>
<path d="M654 1947 c-2 -7 -3 -107 -2 -222 3 -185 5 -210 19 -213 15 -3 17 14
20 145 4 133 6 152 27 184 23 37 74 69 110 69 34 0 72 18 72 35 0 11 -11 15
-45 15 -46 0 -82 -12 -126 -42 -30 -20 -39 -15 -39 19 0 25 -27 33 -36 10z"/>
<path d="M1977 1953 c-4 -3 -7 -105 -7 -225 l0 -219 23 3 c22 3 22 3 25 226 2
210 1 222 -16 222 -10 0 -22 -3 -25 -7z"/>
<path d="M3114 1947 c-2 -7 -3 -107 -2 -222 3 -185 5 -210 19 -213 15 -3 17
14 21 145 3 116 8 155 21 181 19 35 71 64 142 79 26 5 41 14 43 26 7 34 -109
18 -169 -24 -30 -21 -39 -16 -39 18 0 25 -27 33 -36 10z"/>
</g>
</svg>
