<?xml version="1.0" standalone="no"?>
<!DOCTYPE svg PUBLIC "-//W3C//DTD SVG 20010904//EN"
 "http://www.w3.org/TR/2001/REC-SVG-20010904/DTD/svg10.dtd">
<svg version="1.0" xmlns="http://www.w3.org/2000/svg"
 width="360.000000pt" height="360.000000pt" viewBox="0 0 360.000000 360.000000"
 preserveAspectRatio="xMidYMid meet">

<g transform="translate(0.000000,360.000000) scale(0.100000,-0.100000)"
fill="#000000" stroke="none">
<path d="M1512 2778 c-6 -6 -12 -19 -12 -27 0 -8 -11 -33 -25 -57 -48 -82
-192 -126 -278 -85 -24 11 -48 21 -53 21 -13 0 -114 -103 -114 -117 0 -6 9
-30 20 -54 25 -57 25 -94 -1 -163 -25 -63 -83 -123 -129 -133 -45 -8 -51 -23
-48 -109 2 -56 7 -79 18 -84 109 -50 114 -54 144 -114 39 -80 44 -131 17 -191
-11 -26 -21 -53 -21 -60 0 -13 103 -115 116 -115 4 0 27 10 51 21 57 28 119
22 198 -17 57 -29 71 -45 115 -144 6 -12 26 -15 91 -15 l83 0 18 49 c22 61 47
89 107 115 63 27 73 40 69 98 l-3 48 -180 6 c-189 6 -226 14 -310 64 -23 13
-60 44 -82 68 -206 223 -111 573 182 670 16 5 111 13 210 16 l180 6 3 48 c4
58 -4 69 -72 100 -57 26 -88 62 -108 123 l-13 39 -80 3 c-54 2 -84 -1 -93 -10z"/>
<path d="M2111 2693 c-49 -26 -75 -66 -76 -116 0 -23 3 -51 7 -62 6 -15 -4
-32 -41 -72 l-49 -53 -164 0 c-176 0 -188 -3 -188 -50 0 -47 11 -50 209 -50
l186 0 65 69 c62 65 68 69 118 73 56 5 92 29 118 80 58 111 -74 240 -185 181z
m103 -74 c17 -14 26 -30 26 -50 0 -65 -80 -93 -119 -43 -27 35 -26 59 4 89 30
30 54 31 89 4z"/>
<path d="M2634 2450 c-22 -11 -47 -32 -54 -45 -13 -25 -15 -25 -143 -25 l-129
0 -93 -90 -93 -90 -249 0 c-266 0 -273 -1 -273 -50 0 -49 5 -50 293 -50 l269
0 93 90 93 90 109 0 108 0 17 -30 c33 -57 125 -77 186 -40 90 55 86 192 -8
240 -49 25 -75 25 -126 0z m91 -56 c8 -4 23 -20 31 -36 12 -24 13 -33 2 -56
-18 -37 -61 -51 -96 -31 -72 40 -15 152 63 123z"/>
<path d="M2293 2080 c-18 -10 -39 -31 -49 -45 l-16 -25 -302 0 c-323 0 -326
-1 -326 -50 0 -49 3 -50 326 -50 l302 0 16 -25 c38 -58 117 -81 174 -51 57 30
77 63 77 126 0 48 -4 63 -25 85 -53 57 -120 70 -177 35z m114 -72 c13 -12 23
-33 23 -47 0 -32 -37 -71 -67 -71 -30 0 -73 42 -73 70 0 28 43 70 71 70 13 0
33 -10 46 -22z"/>
<path d="M1612 1808 c-7 -7 -12 -24 -12 -38 0 -47 12 -50 191 -50 l167 0 37
-41 c24 -27 34 -46 30 -57 -25 -65 -1 -142 54 -175 64 -37 163 -11 196 52 48
94 -20 204 -127 204 -32 0 -44 7 -83 48 -25 27 -54 53 -64 59 -29 15 -374 13
-389 -2z m591 -196 c40 -35 9 -112 -46 -112 -38 0 -50 7 -66 37 -36 69 52 128
112 75z"/>
<path d="M2085 1340 c-37 -8 -332 -117 -435 -161 -25 -11 -54 -33 -65 -49 -11
-17 -26 -30 -34 -30 -7 0 -155 38 -327 85 -173 47 -330 85 -349 85 -50 0 -104
-51 -111 -105 -11 -82 -3 -88 439 -310 l397 -199 98 -4 c96 -3 99 -3 325 67
225 70 263 77 326 65 25 -5 36 -15 47 -44 13 -32 26 -42 93 -74 85 -40 124
-45 146 -18 8 9 61 111 117 225 123 253 124 242 -6 305 -77 38 -91 42 -115 32
-24 -10 -43 -4 -167 53 -182 84 -262 101 -379 77z m328 -139 c84 -39 137 -69
137 -78 0 -8 -28 -73 -62 -145 l-62 -130 -40 8 c-98 21 -162 10 -386 -61 -184
-59 -225 -69 -288 -69 l-72 0 -396 197 c-217 108 -397 204 -401 213 -8 22 9
48 35 52 32 5 696 -177 704 -193 5 -7 28 -21 53 -31 39 -14 64 -16 173 -9 70
4 149 10 176 14 55 7 78 29 60 58 -13 20 -12 20 -226 8 -155 -8 -178 -4 -178
35 0 22 20 32 250 118 228 86 209 81 305 78 75 -2 90 -6 218 -65z m302 -93
c25 -12 45 -25 45 -30 0 -7 -167 -358 -174 -365 -5 -5 -106 41 -106 49 0 16
173 368 181 368 5 0 29 -10 54 -22z"/>
<path d="M2660 1065 c-17 -20 -5 -45 20 -45 11 0 23 7 26 15 6 15 -11 45 -26
45 -4 0 -13 -7 -20 -15z"/>
</g>
</svg>
