<?xml version="1.0" standalone="no"?>
<!DOCTYPE svg PUBLIC "-//W3C//DTD SVG 20010904//EN"
 "http://www.w3.org/TR/2001/REC-SVG-20010904/DTD/svg10.dtd">
<svg version="1.0" xmlns="http://www.w3.org/2000/svg"
 width="659.000000pt" height="379.000000pt" viewBox="0 0 659.000000 379.000000"
 preserveAspectRatio="xMidYMid meet">

<g transform="translate(0.000000,379.000000) scale(0.100000,-0.100000)"
fill="#000000" stroke="none">
<path d="M2640 3765 c-613 -83 -997 -254 -1106 -493 -27 -58 -34 -86 -34 -135
0 -75 11 -94 88 -145 195 -131 552 -228 1036 -283 169 -19 228 -20 570 -16
209 2 424 10 476 16 315 41 517 84 729 156 112 37 291 122 291 136 0 5 5 9 11
9 7 0 23 12 36 27 24 25 25 32 21 112 -7 133 -60 221 -192 315 -189 135 -480
230 -911 297 -123 19 -880 22 -1015 4z"/>
<path d="M1506 2803 c-3 -4 -6 -137 -6 -296 l0 -289 41 -39 c51 -48 188 -114
348 -169 188 -64 396 -105 706 -141 170 -20 249 -24 530 -24 356 0 550 14 835
61 183 30 399 90 555 155 84 34 211 109 233 137 19 24 17 612 -2 612 -7 0 -18
-6 -24 -13 -10 -12 -100 -59 -172 -90 -199 -85 -571 -165 -920 -199 -181 -17
-834 -17 -995 0 -357 38 -674 105 -885 185 -36 13 -104 45 -152 70 -47 25 -89
43 -92 40z"/>
<path d="M1507 1943 c-4 -3 -7 -136 -7 -294 l0 -287 48 -41 c162 -140 619
-267 1132 -316 197 -19 467 -30 501 -22 20 5 27 16 37 64 48 226 125 370 286
536 53 55 68 76 46 62 -5 -3 -184 -6 -397 -6 -392 0 -518 8 -783 47 -237 34
-445 85 -600 147 -108 43 -218 95 -226 108 -6 11 -28 12 -37 2z"/>
<path d="M4090 1678 c-89 -18 -156 -42 -239 -85 -118 -62 -167 -102 -261 -209
-145 -167 -211 -397 -184 -644 21 -188 104 -360 238 -494 34 -33 131 -108 156
-119 8 -4 31 -17 50 -29 19 -11 79 -36 134 -55 95 -32 104 -33 255 -33 157 0
174 3 296 47 83 31 234 120 243 144 2 5 8 9 13 9 21 0 136 140 187 226 108
184 133 449 64 679 -15 49 -93 202 -109 214 -4 3 -27 32 -51 63 -24 31 -69 76
-100 100 -31 24 -59 45 -62 48 -21 21 -158 89 -220 109 -121 40 -298 52 -410
29z m385 -156 c106 -39 151 -65 233 -137 84 -74 121 -121 171 -222 60 -120 71
-171 71 -319 0 -101 -5 -143 -20 -193 -47 -150 -128 -272 -235 -356 -21 -16
-43 -35 -49 -41 -23 -22 -164 -83 -239 -103 -95 -26 -234 -28 -321 -5 -75 20
-185 63 -207 81 -8 7 -19 13 -22 13 -4 0 -15 6 -24 14 -10 8 -38 31 -61 50
-40 33 -108 111 -140 161 -67 105 -112 257 -112 379 0 72 28 222 49 264 5 10
17 35 27 57 11 22 21 42 24 45 3 3 23 31 44 62 38 56 119 138 136 138 4 0 10
3 12 8 9 20 122 82 193 105 102 33 125 36 270 32 102 -3 132 -8 200 -33z"/>
<path d="M4582 1207 c-18 -18 -32 -36 -32 -41 0 -4 -6 -13 -12 -21 -24 -24
-48 -55 -48 -61 0 -2 -18 -29 -40 -59 -22 -30 -40 -57 -40 -60 0 -3 -5 -11
-10 -18 -35 -41 -110 -148 -110 -156 0 -5 -3 -11 -7 -13 -5 -1 -20 -22 -35
-45 -21 -32 -32 -40 -48 -36 -11 3 -20 9 -20 12 0 4 -19 21 -42 38 -24 17 -53
39 -64 49 -119 104 -141 118 -179 108 -58 -15 -54 -89 9 -132 18 -12 47 -35
64 -50 16 -15 60 -52 97 -82 37 -30 73 -61 81 -67 7 -7 17 -13 22 -13 6 0 12
-7 16 -15 8 -21 62 -19 84 3 10 10 32 39 49 64 57 84 78 113 86 116 4 2 7 10
7 17 0 7 3 15 8 17 4 2 31 39 61 83 30 44 57 82 60 85 4 3 39 53 79 113 77
115 86 147 50 178 -32 26 -50 24 -86 -14z"/>
<path d="M1502 843 c3 -251 4 -271 26 -324 38 -96 158 -204 302 -274 41 -20
83 -40 92 -45 10 -6 24 -10 32 -10 8 0 27 -7 43 -14 94 -49 389 -115 669 -151
185 -24 926 -21 923 4 0 3 -19 22 -43 41 -79 66 -197 223 -247 330 -47 100
-79 209 -88 295 -4 33 -10 66 -14 73 -6 9 -53 12 -175 12 -157 0 -475 25 -642
50 -231 34 -549 115 -650 165 -144 72 -176 89 -180 95 -3 4 -15 11 -28 14
l-23 8 3 -269z"/>
</g>
</svg>
