<?xml version="1.0" standalone="no"?>
<!DOCTYPE svg PUBLIC "-//W3C//DTD SVG 20010904//EN"
 "http://www.w3.org/TR/2001/REC-SVG-20010904/DTD/svg10.dtd">
<svg version="1.0" xmlns="http://www.w3.org/2000/svg"
 width="405.000000pt" height="432.000000pt" viewBox="0 0 405.000000 432.000000"
 preserveAspectRatio="xMidYMid meet">

<g transform="translate(0.000000,432.000000) scale(0.100000,-0.100000)"
fill="#000000" stroke="none">
<path d="M1115 4095 c-77 -21 -105 -33 -111 -50 -3 -8 -10 -13 -15 -10 -4 3
-6 -4 -4 -15 2 -11 0 -18 -4 -15 -12 7 -64 -108 -77 -170 -2 -11 -6 -32 -9
-47 -7 -30 6 -61 43 -100 14 -15 24 -30 21 -32 -2 -2 -39 -31 -81 -65 -98 -77
-154 -147 -163 -203 -12 -67 -9 -198 5 -258 16 -68 40 -108 85 -140 25 -18 35
-33 35 -52 0 -16 -5 -28 -12 -28 -10 0 -9 -3 1 -9 10 -7 12 -21 7 -55 l-7 -45
-46 28 c-42 26 -83 31 -83 10 0 -4 27 -22 61 -40 l60 -32 -6 -56 c-4 -31 -15
-110 -25 -176 -10 -66 -22 -147 -25 -180 -4 -33 -9 -68 -11 -77 -4 -12 0 -18
11 -18 15 0 16 -8 11 -57 -3 -32 -8 -89 -11 -128 -4 -38 -12 -128 -20 -200
-39 -365 -41 -457 -15 -754 13 -152 25 -309 28 -349 4 -71 5 -74 41 -97 20
-13 56 -44 79 -68 66 -69 112 -96 180 -108 73 -13 120 -6 150 22 42 38 30 64
-77 165 l-99 95 -6 137 c-4 75 -11 207 -17 292 -6 96 -6 172 0 200 5 25 16 79
24 122 9 42 20 84 26 95 19 34 50 158 56 226 13 131 25 54 25 -159 0 -187 4
-244 31 -432 18 -128 29 -236 25 -264 -5 -51 4 -63 72 -86 19 -6 55 -27 82
-47 79 -58 154 -87 224 -88 85 -1 106 13 106 66 l-1 42 -100 60 c-158 94 -145
54 -148 444 -1 182 0 331 3 331 3 0 89 -52 191 -116 l186 -117 38 18 38 17 7
146 c3 81 9 214 12 297 3 82 6 150 7 151 1 1 59 -32 130 -74 l127 -76 0 -57
c0 -67 9 -119 21 -119 5 0 9 44 9 98 l-1 97 -276 165 c-249 148 -278 168 -285
196 -4 18 -19 39 -32 47 -22 15 -24 14 -45 -14 -23 -31 -49 -32 -78 -3 -12 11
-10 17 12 36 15 13 25 32 25 49 0 22 6 29 30 34 17 4 61 25 100 47 l69 40 60
-20 61 -21 20 72 c12 40 28 89 36 110 8 20 14 48 14 61 0 12 8 30 18 38 9 8
127 75 262 148 135 73 252 138 260 144 8 6 -1 -11 -21 -39 -19 -27 -42 -50
-50 -50 -26 -1 -41 -16 -29 -30 8 -9 4 -21 -17 -46 -15 -19 -28 -36 -30 -38
-2 -3 -20 5 -41 16 -35 19 -62 21 -62 4 0 -4 18 -17 40 -30 l40 -22 -30 -37
-29 -36 37 -21 c20 -11 44 -34 53 -51 l15 -31 47 44 c26 24 50 42 55 40 4 -2
56 -32 115 -67 l108 -62 -7 -84 c-6 -79 -6 -85 17 -102 21 -18 23 -29 31 -168
4 -82 12 -185 18 -229 14 -110 24 -620 15 -788 -8 -161 -4 -153 -150 -241 -84
-50 -90 -56 -93 -89 -4 -49 24 -67 104 -67 68 0 129 22 204 74 25 17 72 45
105 61 l60 30 -3 60 c-2 33 9 139 24 235 26 170 29 229 34 669 0 64 12 23 20
-71 5 -62 20 -132 43 -204 65 -202 70 -241 58 -479 -6 -115 -13 -246 -15 -290
l-4 -80 -96 -90 c-104 -99 -116 -125 -74 -165 18 -16 35 -20 96 -20 94 0 126
15 217 101 38 36 80 71 93 78 17 9 22 20 22 54 0 24 9 128 19 232 11 105 23
242 27 306 l7 117 263 163 264 164 -5 55 c-2 30 -7 104 -11 165 -6 105 -7 108
-19 71 -7 -21 -15 -38 -17 -40 -1 -1 -38 -25 -81 -54 -67 -45 -80 -51 -100
-42 -20 10 -21 10 -4 -3 19 -16 7 -34 -15 -21 -6 4 -8 3 -5 -3 7 -12 -186
-145 -212 -147 -9 -1 -15 5 -13 13 3 12 0 12 -12 1 -13 -10 -19 -10 -33 1 -16
13 -17 12 -4 -4 8 -10 20 -16 27 -13 25 10 24 -12 -1 -28 -14 -9 -25 -14 -25
-12 0 3 -11 -5 -24 -18 -40 -36 -128 -76 -154 -70 -27 8 -30 18 -35 171 l-5
123 59 36 c32 19 64 32 70 28 8 -5 9 -3 4 6 -6 10 -4 12 9 7 9 -4 15 -3 11 3
-7 12 113 82 128 74 7 -4 9 -4 5 1 -4 4 0 14 10 21 16 12 15 13 -6 14 -33 0
-38 27 -11 49 19 16 22 23 13 37 -16 27 -27 27 -64 2 -23 -16 -38 -37 -46 -63
-14 -48 -20 -35 -28 58 -5 54 -4 67 8 67 11 0 15 56 21 331 l7 330 29 -27 29
-28 0 -261 0 -261 85 1 c82 0 85 1 90 25 18 90 26 176 31 325 7 197 -3 260
-62 377 -44 88 -146 245 -227 351 -58 74 -210 206 -220 190 -3 -5 -21 -48 -42
-98 -38 -95 -56 -119 -92 -130 -21 -6 -23 -3 -23 33 0 48 -16 57 -56 31 -40
-26 -44 -24 -44 19 0 37 -2 40 -40 51 -44 13 -56 29 -66 90 -7 47 -9 47 -45
23 -67 -44 -111 -125 -199 -367 l-62 -170 -191 -103 c-442 -236 -407 -214
-407 -252 0 -34 -6 -36 -36 -16 -15 11 -19 23 -16 49 4 32 10 38 85 79 303
163 537 294 537 301 0 16 -29 4 -140 -56 -64 -34 -204 -109 -313 -167 -194
-103 -197 -106 -197 -137 0 -18 -3 -33 -6 -33 -3 0 -48 25 -99 55 l-93 55 -4
57 c-2 32 -5 111 -7 176 l-2 118 23 -12 c13 -7 109 -63 214 -124 149 -88 195
-110 208 -103 14 8 -28 37 -216 149 l-233 138 -7 53 c-3 29 -6 54 -5 54 1 1
132 -73 290 -163 239 -137 292 -164 309 -156 20 8 18 11 -23 35 -24 13 -155
89 -292 167 -139 80 -255 141 -266 139 -16 -2 -28 14 -61 79 -28 57 -56 96
-91 127 -28 25 -54 44 -59 41 -4 -2 -10 -25 -12 -50 -7 -55 -29 -82 -74 -91
l-34 -6 0 -108 c0 -59 -3 -123 -7 -141 -6 -31 -8 -28 -19 36 -7 39 -13 89 -13
111 -1 45 -13 56 -48 43 -23 -8 -25 -38 -3 -64 6 -8 10 -44 8 -87 l-3 -73 -41
80 c-23 44 -63 130 -89 192 -37 90 -50 111 -63 106 -13 -4 -12 -2 3 10 17 13
20 27 20 84 0 56 3 68 18 71 13 3 17 -4 18 -30 1 -18 3 -26 6 -16 5 20 44 35
105 41 30 3 49 0 51 -7 5 -15 72 9 116 42 26 19 33 21 28 9 -4 -10 -1 -17 6
-17 23 0 37 23 37 60 0 40 -42 154 -53 144 -4 -4 -7 0 -7 9 0 9 -9 25 -21 36
-25 23 -119 26 -194 6z m1542 -1232 c-3 -2 -25 9 -50 24 l-46 27 47 47 47 46
3 -70 c2 -38 1 -71 -1 -74z m-61 -7 l58 -34 -3 -58 c-1 -33 -4 -60 -6 -62 -1
-1 -46 23 -100 55 l-97 57 41 38 c22 21 42 38 45 38 3 0 31 -15 62 -34z m-941
-248 c14 -6 25 -14 25 -18 0 -7 -66 -40 -80 -40 -14 0 -12 44 2 58 15 15 21
15 53 0z m-197 -614 c-14 -14 -15 -14 -10 11 3 19 8 23 15 16 8 -8 7 -16 -5
-27z"/>
<path d="M2840 4067 c-66 -36 -82 -63 -74 -117 8 -52 47 -96 90 -105 16 -3 48
-10 72 -15 23 -6 55 -10 72 -10 36 0 60 -31 60 -77 0 -18 5 -33 10 -33 6 0 10
22 10 49 0 52 21 84 42 63 13 -13 15 -60 3 -87 -8 -17 -7 -18 7 -7 21 17 42
132 35 194 -13 105 -79 159 -207 165 -65 4 -81 1 -120 -20z"/>
<path d="M1611 2481 c-10 -7 -10 -11 2 -22 8 -8 170 -102 361 -209 l345 -195
1 -92 c0 -79 2 -92 15 -86 13 4 15 23 13 102 l-3 96 -325 187 c-179 103 -341
196 -360 207 -21 12 -41 17 -49 12z"/>
<path d="M3750 2399 c-41 -27 -80 -53 -87 -57 -8 -5 -10 -22 -6 -49 l5 -42 27
19 c14 10 66 41 114 69 71 41 87 47 82 31 -4 -11 -3 -20 2 -20 11 0 17 -46 18
-123 0 -31 4 -57 9 -57 10 0 0 166 -11 184 -4 6 -6 20 -5 31 2 15 -8 27 -35
42 l-38 21 -75 -49z"/>
<path d="M3739 2288 c-6 -20 -3 -45 7 -45 9 0 10 5 4 17 -5 10 -6 20 -3 24 3
3 3 6 0 6 -4 0 -7 -1 -8 -2z"/>
<path d="M3705 2271 c-3 -5 -2 -12 3 -15 5 -3 9 1 9 9 0 17 -3 19 -12 6z"/>
<path d="M3650 2235 c0 -6 6 -17 13 -24 10 -11 8 -12 -11 -6 -15 4 -24 2 -28
-9 -3 -9 -10 -14 -14 -11 -5 3 -12 0 -15 -6 -5 -6 0 -9 11 -8 11 2 26 -1 34
-6 12 -7 13 -6 3 7 -7 8 -10 17 -7 21 9 8 35 -4 29 -13 -3 -5 -1 -11 3 -14 13
-8 8 35 -6 59 -6 11 -12 15 -12 10z"/>
<path d="M3548 2163 c6 -2 18 -2 25 0 6 3 1 5 -13 5 -14 0 -19 -2 -12 -5z"/>
<path d="M3877 2159 c7 -7 15 -10 18 -7 3 3 -2 9 -12 12 -14 6 -15 5 -6 -5z"/>
<path d="M3499 2123 c-13 -16 -12 -17 4 -4 16 13 21 21 13 21 -2 0 -10 -8 -17
-17z"/>
<path d="M3890 2130 c-8 -5 -12 -12 -9 -15 4 -3 12 1 19 10 14 17 11 19 -10 5z"/>
<path d="M3812 2066 c7 -8 15 -12 17 -11 5 6 -10 25 -20 25 -5 0 -4 -6 3 -14z"/>
<path d="M3305 2020 c-3 -5 -2 -10 4 -10 5 0 13 5 16 10 3 6 2 10 -4 10 -5 0
-13 -4 -16 -10z"/>
<path d="M3256 2001 c-4 -6 -2 -11 5 -11 8 0 8 -4 -1 -15 -7 -9 -8 -15 -2 -15
14 0 22 24 12 39 -5 9 -10 10 -14 2z"/>
<path d="M3555 2000 c-3 -6 1 -7 9 -4 18 7 21 14 7 14 -6 0 -13 -4 -16 -10z"/>
<path d="M3585 1982 c-72 -39 -84 -64 -41 -83 18 -9 31 -7 62 9 43 22 71 50
68 70 -1 6 -2 17 -3 22 -2 17 -34 11 -86 -18z"/>
<path d="M3519 1983 c-13 -16 -12 -17 4 -4 16 13 21 21 13 21 -2 0 -10 -8 -17
-17z"/>
<path d="M2270 1739 c0 -89 2 -100 15 -89 11 9 15 35 15 101 0 72 -3 89 -15
89 -12 0 -15 -18 -15 -101z"/>
<path d="M3394 1811 c0 -11 -3 -19 -9 -18 -5 1 -9 8 -8 16 1 9 -2 10 -10 2 -7
-7 -7 -14 1 -24 7 -8 8 -18 4 -23 -4 -5 3 -1 15 10 12 10 28 15 35 11 7 -3 6
-1 -3 7 -9 7 -16 17 -17 21 -1 19 -9 16 -8 -2z"/>
<path d="M2108 1749 c8 -8 12 -44 12 -102 0 -66 3 -88 13 -84 8 2 12 31 12 98
0 93 0 94 -25 97 -20 3 -23 1 -12 -9z"/>
<path d="M3240 1743 c0 -6 8 -17 18 -24 16 -13 16 -13 2 6 -8 11 -16 22 -17
24 -2 2 -3 0 -3 -6z"/>
<path d="M3225 1710 c3 -5 8 -10 11 -10 2 0 4 5 4 10 0 6 -5 10 -11 10 -5 0
-7 -4 -4 -10z"/>
<path d="M2223 1613 c-9 -3 -13 -33 -13 -104 0 -54 -3 -99 -7 -99 -5 0 -8 -45
-8 -99 0 -93 1 -98 18 -89 17 9 18 21 15 109 -1 54 1 100 5 102 4 1 7 43 5 93
-2 67 -6 90 -15 87z"/>
<path d="M2065 1534 c-6 -3 -9 -42 -7 -99 3 -74 6 -95 18 -95 11 0 14 19 14
94 0 92 -4 107 -25 100z"/>
<path d="M2055 1319 c-6 -8 -8 -53 -5 -108 4 -74 8 -91 17 -80 8 10 9 42 5
108 -5 67 -10 90 -17 80z"/>
</g>
</svg>
