<?xml version="1.0" encoding="UTF-8"?>
<!DOCTYPE svg PUBLIC "-//W3C//DTD SVG 1.1//EN" "http://www.w3.org/Graphics/SVG/1.1/DTD/svg11.dtd">
<svg xmlns="http://www.w3.org/2000/svg" version="1.1" width="500px" height="500px" style="shape-rendering:geometricPrecision; text-rendering:geometricPrecision; image-rendering:optimizeQuality; fill-rule:evenodd; clip-rule:evenodd" xmlns:xlink="http://www.w3.org/1999/xlink">
<g><path style="opacity:0.627" fill="#a3a3a3" d="M 144.5,76.5 C 145.833,77.1667 146.833,78.1667 147.5,79.5C 145.5,79.5 144.5,78.5 144.5,76.5 Z"/></g>
<g><path style="opacity:0.294" fill="#b8b8b8" d="M 359.5,78.5 C 357.833,77.1667 356.167,77.1667 354.5,78.5C 356.167,74.5 357.833,74.5 359.5,78.5 Z"/></g>
<g><path style="opacity:0.004" fill="#d9d9d9" d="M 359.5,78.5 C 361.833,78.8333 363.167,80.1667 363.5,82.5C 361.833,81.5 360.5,80.1667 359.5,78.5 Z"/></g>
<g><path style="opacity:0.843" fill="#919191" d="M 350.5,82.5 C 350.5,83.8333 350.5,85.1667 350.5,86.5C 347.833,85.1667 347.833,83.8333 350.5,82.5 Z"/></g>
<g><path style="opacity:0.855" fill="#7e7e7e" d="M 363.5,82.5 C 365.587,83.5846 366.92,85.2512 367.5,87.5C 365.413,86.4154 364.08,84.7488 363.5,82.5 Z"/></g>
<g><path style="opacity:0.404" fill="#ababab" d="M 149.5,81.5 C 152.469,82.668 152.802,84.0013 150.5,85.5C 150.167,84.1667 149.833,82.8333 149.5,81.5 Z"/></g>
<g><path style="opacity:0.776" fill="#8d8d8d" d="M 241.5,84.5 C 238.201,86.4835 234.534,87.4835 230.5,87.5C 233.854,85.7424 237.521,84.7424 241.5,84.5 Z"/></g>
<g><path style="opacity:0.008" fill="#cecece" d="M 150.5,85.5 C 150.573,87.0269 149.906,88.0269 148.5,88.5C 148.427,86.9731 149.094,85.9731 150.5,85.5 Z"/></g>
<g><path style="opacity:0.847" fill="#8d8d8d" d="M 367.5,87.5 C 369.262,88.2623 370.262,89.5956 370.5,91.5C 368.738,90.7377 367.738,89.4044 367.5,87.5 Z"/></g>
<g><path style="opacity:0.933" fill="#919191" d="M 230.5,87.5 C 229.531,88.3094 228.698,89.3094 228,90.5C 226.989,89.6634 225.822,89.33 224.5,89.5C 226.214,88.2616 228.214,87.595 230.5,87.5 Z"/></g>
<g><path style="opacity:0.004" fill="#d5d5d5" d="M 147.5,88.5 C 147.262,90.4044 146.262,91.7377 144.5,92.5C 144.738,90.5956 145.738,89.2623 147.5,88.5 Z"/></g>
<g><path style="opacity:0.999" fill="#161616" d="M 304.5,104.5 C 304.973,105.906 305.973,106.573 307.5,106.5C 308.492,106.328 309.158,106.662 309.5,107.5C 309.821,109.048 310.821,109.715 312.5,109.5C 313.492,109.328 314.158,109.662 314.5,110.5C 315.035,112.446 316.368,113.446 318.5,113.5C 318.973,114.906 319.973,115.573 321.5,115.5C 324.135,116.811 326.469,118.478 328.5,120.5C 328.937,122.074 329.937,123.241 331.5,124C 330.944,124.383 330.611,124.883 330.5,125.5C 313.276,139.288 294.276,150.288 273.5,158.5C 270.848,158.41 268.515,159.076 266.5,160.5C 261.395,162.25 256.062,163.583 250.5,164.5C 245.077,163.748 239.744,162.748 234.5,161.5C 232.383,159.345 229.716,158.345 226.5,158.5C 217.964,155.897 209.964,152.23 202.5,147.5C 202.027,146.094 201.027,145.427 199.5,145.5C 197.181,145.008 195.181,144.008 193.5,142.5C 193.027,141.094 192.027,140.427 190.5,140.5C 190.027,139.094 189.027,138.427 187.5,138.5C 186.508,138.672 185.842,138.338 185.5,137.5C 185.027,136.094 184.027,135.427 182.5,135.5C 182.027,134.094 181.027,133.427 179.5,133.5C 178.738,131.738 177.404,130.738 175.5,130.5C 175.027,129.094 174.027,128.427 172.5,128.5C 171.738,126.738 170.404,125.738 168.5,125.5C 168.389,124.883 168.056,124.383 167.5,124C 168.71,122.961 169.71,121.794 170.5,120.5C 172.632,120.446 173.965,119.446 174.5,117.5C 176.027,117.573 177.027,116.906 177.5,115.5C 179.027,115.573 180.027,114.906 180.5,113.5C 182.027,113.573 183.027,112.906 183.5,111.5C 185.027,111.573 186.027,110.906 186.5,109.5C 188.027,109.573 189.027,108.906 189.5,107.5C 189.842,106.662 190.508,106.328 191.5,106.5C 193.027,106.573 194.027,105.906 194.5,104.5C 194.842,103.662 195.508,103.328 196.5,103.5C 198.027,103.573 199.027,102.906 199.5,101.5C 203.182,98.9922 207.182,96.9922 211.5,95.5C 213.153,95.3404 214.486,94.6737 215.5,93.5C 215.842,92.6618 216.508,92.3284 217.5,92.5C 220.481,92.8176 222.815,91.8176 224.5,89.5C 225.822,89.33 226.989,89.6634 228,90.5C 228.698,89.3094 229.531,88.3094 230.5,87.5C 234.534,87.4835 238.201,86.4835 241.5,84.5C 250.552,82.9593 259.552,83.7926 268.5,87C 281.224,91.5298 293.224,97.3632 304.5,104.5 Z M 263.5,99.5 C 264.262,101.262 265.596,102.262 267.5,102.5C 268.167,103.833 269.167,104.833 270.5,105.5C 270.427,107.027 271.094,108.027 272.5,108.5C 277.001,117.172 277.667,126.172 274.5,135.5C 273.326,136.514 272.66,137.847 272.5,139.5C 269.833,141.5 267.5,143.833 265.5,146.5C 263.973,146.427 262.973,147.094 262.5,148.5C 258.952,149.13 255.619,150.13 252.5,151.5C 248.846,151.058 245.179,150.724 241.5,150.5C 240.22,149.069 238.553,148.402 236.5,148.5C 235.564,147.026 234.23,146.026 232.5,145.5C 230.833,143.167 228.833,141.167 226.5,139.5C 219.78,125.895 221.446,113.562 231.5,102.5C 233.027,102.573 234.027,101.906 234.5,100.5C 244.014,95.6349 253.68,95.3016 263.5,99.5 Z M 210.5,109.5 C 211.338,109.842 211.672,110.508 211.5,111.5C 208.876,119.514 208.876,127.514 211.5,135.5C 211.5,136.833 210.833,137.5 209.5,137.5C 209.158,136.662 208.492,136.328 207.5,136.5C 206.71,135.599 205.71,134.932 204.5,134.5C 202.337,132.917 200.004,131.584 197.5,130.5C 196.71,129.599 195.71,128.932 194.5,128.5C 192.537,127.18 190.537,125.846 188.5,124.5C 188.5,123.833 188.5,123.167 188.5,122.5C 195.841,118.163 203.175,113.83 210.5,109.5 Z M 288.5,109.5 C 289.514,110.674 290.847,111.34 292.5,111.5C 292.973,112.906 293.973,113.573 295.5,113.5C 296.514,114.674 297.847,115.34 299.5,115.5C 299.973,116.906 300.973,117.573 302.5,117.5C 302.973,118.906 303.973,119.573 305.5,119.5C 305.842,120.338 306.508,120.672 307.5,120.5C 307.973,121.906 308.973,122.573 310.5,122.5C 310.443,123.609 310.11,124.609 309.5,125.5C 308.29,125.932 307.29,126.599 306.5,127.5C 304.973,127.427 303.973,128.094 303.5,129.5C 302.508,129.328 301.842,129.662 301.5,130.5C 299.973,130.427 298.973,131.094 298.5,132.5C 297.508,132.328 296.842,132.662 296.5,133.5C 294.973,133.427 293.973,134.094 293.5,135.5C 291.326,135.75 289.659,136.75 288.5,138.5C 287.596,137.791 287.263,136.791 287.5,135.5C 288.434,134.432 288.768,133.099 288.5,131.5C 289.164,129.022 289.497,126.355 289.5,123.5C 289.663,119.223 288.997,115.223 287.5,111.5C 287.328,110.508 287.662,109.842 288.5,109.5 Z"/></g>
<g><path style="opacity:0.922" fill="#949494" d="M 224.5,89.5 C 222.815,91.8176 220.481,92.8176 217.5,92.5C 219.185,90.1824 221.519,89.1824 224.5,89.5 Z"/></g>
<g><path style="opacity:0.729" fill="#939393" d="M 161.5,93.5 C 160.167,93.8333 158.833,94.1667 157.5,94.5C 158.668,91.5311 160.001,91.1978 161.5,93.5 Z"/></g>
<g><path style="opacity:0.999" fill="#171717" d="M 161.5,93.5 C 162.5,93.8333 163.167,94.5 163.5,95.5C 164.957,97.6282 165.957,99.9616 166.5,102.5C 165.167,104.5 163.5,106.167 161.5,107.5C 160.094,107.973 159.427,108.973 159.5,110.5C 158.773,112.954 157.773,115.287 156.5,117.5C 154.953,119.807 154.287,122.473 154.5,125.5C 154.505,127.696 154.838,129.696 155.5,131.5C 156.871,133.936 157.871,136.603 158.5,139.5C 158.427,141.027 159.094,142.027 160.5,142.5C 161.5,142.833 162.167,143.5 162.5,144.5C 163.415,146.754 164.748,148.754 166.5,150.5C 166.167,151.5 165.5,152.167 164.5,152.5C 163.5,152.833 162.833,153.5 162.5,154.5C 161.462,156.628 160.129,157.628 158.5,157.5C 158.167,156.5 157.5,155.833 156.5,155.5C 155.833,154.167 154.833,153.167 153.5,152.5C 150.185,149.875 147.851,146.542 146.5,142.5C 146.405,140.214 145.738,138.214 144.5,136.5C 142.544,131.239 142.21,125.906 143.5,120.5C 144.928,117.697 145.595,114.697 145.5,111.5C 145.992,109.181 146.992,107.181 148.5,105.5C 149.906,105.027 150.573,104.027 150.5,102.5C 151.906,102.027 152.573,101.027 152.5,99.5C 153.5,97.1667 155.167,95.5 157.5,94.5C 158.833,94.1667 160.167,93.8333 161.5,93.5 Z"/></g>
<g><path style="opacity:0.024" fill="#c8c8c8" d="M 340.5,93.5 C 343.833,94.8333 346.167,97.1667 347.5,100.5C 344.833,98.5 342.5,96.1667 340.5,93.5 Z"/></g>
<g><path style="opacity:0.008" fill="#c8c8c8" d="M 356.5,92.5 C 358.262,93.2623 359.262,94.5956 359.5,96.5C 357.738,95.7377 356.738,94.4044 356.5,92.5 Z"/></g>
<g><path style="opacity:0.014" fill="#e5e5e5" d="M 144.5,76.5 C 133.384,85.3671 125.718,96.7004 121.5,110.5C 123.91,96.0686 131.243,84.402 143.5,75.5C 144.107,75.6236 144.44,75.9569 144.5,76.5 Z"/></g>
<g><path style="opacity:0.459" fill="#bfbfbf" d="M 215.5,93.5 C 214.486,94.6737 213.153,95.3404 211.5,95.5C 212.287,93.8958 213.62,93.2291 215.5,93.5 Z"/></g>
<g><path style="opacity:0.999" fill="#121212" d="M 340.5,93.5 C 342.5,96.1667 344.833,98.5 347.5,100.5C 347.738,102.404 348.738,103.738 350.5,104.5C 352.008,106.181 353.008,108.181 353.5,110.5C 354.946,117.075 355.613,123.742 355.5,130.5C 354.343,133.273 353.676,136.273 353.5,139.5C 351.048,146.281 347.048,151.948 341.5,156.5C 339.435,156.483 337.435,156.15 335.5,155.5C 333.521,154.188 331.855,152.521 330.5,150.5C 332.188,148.146 334.188,146.146 336.5,144.5C 338.822,143.198 340.155,141.198 340.5,138.5C 342.213,137.365 342.88,135.698 342.5,133.5C 343.991,130.814 344.657,127.814 344.5,124.5C 344.713,121.473 344.047,118.807 342.5,116.5C 341.559,114.95 340.893,113.284 340.5,111.5C 340.446,109.368 339.446,108.035 337.5,107.5C 337.5,105.5 336.5,104.5 334.5,104.5C 334.489,102.983 333.823,101.816 332.5,101C 333.381,100.292 334.047,99.4584 334.5,98.5C 336.5,97.1667 338.167,95.5 339.5,93.5C 339.833,92.1667 340.167,92.1667 340.5,93.5 Z"/></g>
<g><path style="opacity:0.008" fill="#d3d3d3" d="M 142.5,94.5 C 142.573,96.0269 141.906,97.0269 140.5,97.5C 140.427,95.9731 141.094,94.9731 142.5,94.5 Z"/></g>
<g><path style="opacity:0.851" fill="#878787" d="M 163.5,95.5 C 165.479,96.8121 167.145,98.4788 168.5,100.5C 168.145,101.522 167.478,102.189 166.5,102.5C 165.957,99.9616 164.957,97.6282 163.5,95.5 Z"/></g>
<g><path style="opacity:0.349" fill="#c4c4c4" d="M 339.5,93.5 C 338.167,95.5 336.5,97.1667 334.5,98.5C 335.167,95.8333 336.833,94.1667 339.5,93.5 Z"/></g>
<g><path style="opacity:0.982" fill="#616161" d="M 359.5,96.5 C 361.759,97.344 362.759,99.0107 362.5,101.5C 361.11,100.101 360.11,98.4341 359.5,96.5 Z"/></g>
<g><path style="opacity:0.153" fill="#c6c6c6" d="M 372.5,95.5 C 373.906,95.9731 374.573,96.9731 374.5,98.5C 373.094,98.0269 372.427,97.0269 372.5,95.5 Z"/></g>
<g><path style="opacity:0.522" fill="#989898" d="M 263.5,99.5 C 265.404,99.7376 266.738,100.738 267.5,102.5C 265.596,102.262 264.262,101.262 263.5,99.5 Z"/></g>
<g><path style="opacity:0.239" fill="#c7c7c7" d="M 334.5,98.5 C 334.047,99.4584 333.381,100.292 332.5,101C 333.823,101.816 334.489,102.983 334.5,104.5C 330.604,102.241 330.604,100.241 334.5,98.5 Z"/></g>
<g><path style="opacity:0.361" fill="#aaaaaa" d="M 152.5,99.5 C 152.573,101.027 151.906,102.027 150.5,102.5C 150.427,100.973 151.094,99.9731 152.5,99.5 Z"/></g>
<g><path style="opacity:0.008" fill="#dddddd" d="M 234.5,100.5 C 234.027,101.906 233.027,102.573 231.5,102.5C 231.973,101.094 232.973,100.427 234.5,100.5 Z"/></g>
<g><path style="opacity:0.322" fill="#d1d1d1" d="M 199.5,101.5 C 199.027,102.906 198.027,103.573 196.5,103.5C 196.973,102.094 197.973,101.427 199.5,101.5 Z"/></g>
<g><path style="opacity:0.518" fill="#a3a3a3" d="M 347.5,100.5 C 349.262,101.262 350.262,102.596 350.5,104.5C 348.738,103.738 347.738,102.404 347.5,100.5 Z"/></g>
<g><path style="opacity:0.306" fill="#ababab" d="M 150.5,102.5 C 150.573,104.027 149.906,105.027 148.5,105.5C 148.427,103.973 149.094,102.973 150.5,102.5 Z"/></g>
<g><path style="opacity:0.008" fill="#dcdcdc" d="M 304.5,104.5 C 306.027,104.427 307.027,105.094 307.5,106.5C 305.973,106.573 304.973,105.906 304.5,104.5 Z"/></g>
<g><path style="opacity:0.525" fill="#b9b9b9" d="M 334.5,104.5 C 336.5,104.5 337.5,105.5 337.5,107.5C 336.167,106.833 335.167,105.833 334.5,104.5 Z"/></g>
<g><path style="opacity:0.502" fill="#bababa" d="M 194.5,104.5 C 194.027,105.906 193.027,106.573 191.5,106.5C 191.973,105.094 192.973,104.427 194.5,104.5 Z"/></g>
<g><path style="opacity:0.008" fill="#dadada" d="M 270.5,105.5 C 271.906,105.973 272.573,106.973 272.5,108.5C 271.094,108.027 270.427,107.027 270.5,105.5 Z"/></g>
<g><path style="opacity:0.012" fill="#ededed" d="M 189.5,107.5 C 189.027,108.906 188.027,109.573 186.5,109.5C 186.821,107.952 187.821,107.285 189.5,107.5 Z"/></g>
<g><path style="opacity:0.012" fill="#cecece" d="M 161.5,107.5 C 161.573,109.027 160.906,110.027 159.5,110.5C 159.427,108.973 160.094,107.973 161.5,107.5 Z"/></g>
<g><path style="opacity:0.055" fill="#bcbcbc" d="M 211.5,111.5 C 211.672,110.508 211.338,109.842 210.5,109.5C 211.172,108.733 212.005,108.066 213,107.5C 213.348,109.14 212.848,110.473 211.5,111.5 Z"/></g>
<g><path style="opacity:0.999" fill="#1d1d1d" d="M 243.5,107.5 C 247.167,107.5 250.833,107.5 254.5,107.5C 254.5,110.833 254.5,114.167 254.5,117.5C 251.447,117.111 248.78,117.777 246.5,119.5C 245.088,122.871 244.088,126.371 243.5,130C 239.833,130.667 236.167,130.667 232.5,130C 231.168,124.841 231.835,120.008 234.5,115.5C 235.906,115.027 236.573,114.027 236.5,112.5C 238.749,111.92 240.415,110.587 241.5,108.5C 241.842,107.662 242.508,107.328 243.5,107.5 Z"/></g>
<g><path style="opacity:0.808" fill="#959595" d="M 309.5,107.5 C 310.71,107.932 311.71,108.599 312.5,109.5C 310.821,109.715 309.821,109.048 309.5,107.5 Z"/></g>
<g><path style="opacity:0.558" fill="#757575" d="M 246.5,119.5 C 248.78,117.777 251.447,117.111 254.5,117.5C 254.5,114.167 254.5,110.833 254.5,107.5C 250.833,107.5 247.167,107.5 243.5,107.5C 247.042,106.531 250.709,106.031 254.5,106C 255.464,110.066 255.797,114.233 255.5,118.5C 252.455,118.508 249.455,118.841 246.5,119.5 Z"/></g>
<g><path style="opacity:0.09" fill="#bdbdbd" d="M 288.5,109.5 C 287.662,109.842 287.328,110.508 287.5,111.5C 286.152,110.473 285.652,109.14 286,107.5C 286.995,108.066 287.828,108.733 288.5,109.5 Z"/></g>
<g><path style="opacity:0.012" fill="#bbbbbb" d="M 337.5,107.5 C 339.446,108.035 340.446,109.368 340.5,111.5C 339.026,110.564 338.026,109.23 337.5,107.5 Z"/></g>
<g><path style="opacity:0.6" fill="#a7a7a7" d="M 186.5,109.5 C 186.027,110.906 185.027,111.573 183.5,111.5C 183.973,110.094 184.973,109.427 186.5,109.5 Z"/></g>
<g><path style="opacity:0.91" fill="#626262" d="M 241.5,108.5 C 240.415,110.587 238.749,111.92 236.5,112.5C 237.585,110.413 239.251,109.08 241.5,108.5 Z"/></g>
<g><path style="opacity:0.012" fill="#c0c0c0" d="M 314.5,110.5 C 316.23,111.026 317.564,112.026 318.5,113.5C 316.368,113.446 315.035,112.446 314.5,110.5 Z"/></g>
<g><path style="opacity:0.005" fill="#e4e4e4" d="M 121.5,111.5 C 121.142,114.689 120.475,117.689 119.5,120.5C 119.336,117.813 119.503,115.146 120,112.5C 120.383,111.944 120.883,111.611 121.5,111.5 Z"/></g>
<g><path style="opacity:0.518" fill="#aeaeae" d="M 183.5,111.5 C 183.027,112.906 182.027,113.573 180.5,113.5C 180.973,112.094 181.973,111.427 183.5,111.5 Z"/></g>
<g><path style="opacity:0.259" fill="#bdbdbd" d="M 292.5,111.5 C 294.027,111.427 295.027,112.094 295.5,113.5C 293.973,113.573 292.973,112.906 292.5,111.5 Z"/></g>
<g><path style="opacity:0.012" fill="#d0d0d0" d="M 318.5,113.5 C 320.027,113.427 321.027,114.094 321.5,115.5C 319.973,115.573 318.973,114.906 318.5,113.5 Z"/></g>
<g><path style="opacity:0.553" fill="#adadad" d="M 180.5,113.5 C 180.027,114.906 179.027,115.573 177.5,115.5C 177.973,114.094 178.973,113.427 180.5,113.5 Z"/></g>
<g><path style="opacity:0.576" fill="#898989" d="M 236.5,112.5 C 236.573,114.027 235.906,115.027 234.5,115.5C 234.427,113.973 235.094,112.973 236.5,112.5 Z"/></g>
<g><path style="opacity:0.518" fill="#b1b1b1" d="M 177.5,115.5 C 177.027,116.906 176.027,117.573 174.5,117.5C 174.973,116.094 175.973,115.427 177.5,115.5 Z"/></g>
<g><path style="opacity:0.396" fill="#9b9b9b" d="M 299.5,115.5 C 301.027,115.427 302.027,116.094 302.5,117.5C 300.973,117.573 299.973,116.906 299.5,115.5 Z"/></g>
<g><path style="opacity:0.435" fill="#bdbdbd" d="M 353.5,110.5 C 356.373,116.98 357.039,123.646 355.5,130.5C 355.613,123.742 354.946,117.075 353.5,110.5 Z"/></g>
<g><path style="opacity:0.443" fill="#a7a7a7" d="M 145.5,111.5 C 145.595,114.697 144.928,117.697 143.5,120.5C 142.957,120.44 142.624,120.107 142.5,119.5C 143.516,116.718 144.516,114.051 145.5,111.5 Z"/></g>
<g><path style="opacity:0.388" fill="#a8a8a8" d="M 302.5,117.5 C 304.027,117.427 305.027,118.094 305.5,119.5C 303.973,119.573 302.973,118.906 302.5,117.5 Z"/></g>
<g><path style="opacity:0.675" fill="#8b8b8b" d="M 174.5,117.5 C 173.965,119.446 172.632,120.446 170.5,120.5C 171.436,119.026 172.77,118.026 174.5,117.5 Z"/></g>
<g><path style="opacity:0.999" fill="#141414" d="M 144.5,76.5 C 144.5,78.5 145.5,79.5 147.5,79.5C 148.5,79.8333 149.167,80.5 149.5,81.5C 149.833,82.8333 150.167,84.1667 150.5,85.5C 149.094,85.9731 148.427,86.9731 148.5,88.5C 148.167,88.5 147.833,88.5 147.5,88.5C 145.738,89.2623 144.738,90.5956 144.5,92.5C 144.167,93.5 143.5,94.1667 142.5,94.5C 141.094,94.9731 140.427,95.9731 140.5,97.5C 137.873,102.418 135.54,107.418 133.5,112.5C 132.732,113.263 132.232,114.263 132,115.5C 131.178,123.012 131.345,130.345 132.5,137.5C 133.404,138.209 133.737,139.209 133.5,140.5C 133.054,143.01 133.72,145.01 135.5,146.5C 137.008,148.181 138.008,150.181 138.5,152.5C 138.427,154.027 139.094,155.027 140.5,155.5C 140.427,157.027 141.094,158.027 142.5,158.5C 143.167,158.5 143.5,158.833 143.5,159.5C 143.5,161.5 144.5,162.5 146.5,162.5C 148.145,163.479 149.479,164.812 150.5,166.5C 148.08,169.926 145.08,172.592 141.5,174.5C 140.833,173.167 139.833,172.167 138.5,171.5C 137.833,171.5 137.5,171.167 137.5,170.5C 136.833,169.167 135.833,168.167 134.5,167.5C 133.662,167.158 133.328,166.492 133.5,165.5C 132.598,163.659 131.264,162.326 129.5,161.5C 127.992,159.819 126.992,157.819 126.5,155.5C 126.34,153.847 125.674,152.514 124.5,151.5C 124.598,149.447 123.931,147.78 122.5,146.5C 122.435,143.572 121.768,140.905 120.5,138.5C 118.84,132.558 118.506,126.558 119.5,120.5C 120.475,117.689 121.142,114.689 121.5,111.5C 121.5,111.167 121.5,110.833 121.5,110.5C 125.718,96.7004 133.384,85.3671 144.5,76.5 Z"/></g>
<g><path style="opacity:0.01" fill="#d9d9d9" d="M 133.5,112.5 C 132.629,120.8 132.295,129.133 132.5,137.5C 131.345,130.345 131.178,123.012 132,115.5C 132.232,114.263 132.732,113.263 133.5,112.5 Z"/></g>
<g><path style="opacity:0.4" fill="#b6b6b6" d="M 170.5,120.5 C 169.71,121.794 168.71,122.961 167.5,124C 168.056,124.383 168.389,124.883 168.5,125.5C 165.864,123.079 166.531,121.412 170.5,120.5 Z"/></g>
<g><path style="opacity:0.494" fill="#989898" d="M 307.5,120.5 C 309.027,120.427 310.027,121.094 310.5,122.5C 308.973,122.573 307.973,121.906 307.5,120.5 Z"/></g>
<g><path style="opacity:0.555" fill="#999999" d="M 287.5,111.5 C 288.997,115.223 289.663,119.223 289.5,123.5C 289.497,126.355 289.164,129.022 288.5,131.5C 288.609,124.804 288.276,118.137 287.5,111.5 Z"/></g>
<g><path style="opacity:0.659" fill="#979797" d="M 328.5,120.5 C 330.464,120.977 331.798,122.144 332.5,124C 332.164,125.03 331.497,125.53 330.5,125.5C 330.611,124.883 330.944,124.383 331.5,124C 329.937,123.241 328.937,122.074 328.5,120.5 Z"/></g>
<g><path style="opacity:0.004" fill="#e7e7e7" d="M 188.5,122.5 C 188.5,123.167 188.5,123.833 188.5,124.5C 186.067,124.214 186.067,123.548 188.5,122.5 Z"/></g>
<g><path style="opacity:0.194" fill="#b6b6b6" d="M 342.5,116.5 C 344.047,118.807 344.713,121.473 344.5,124.5C 344.657,127.814 343.991,130.814 342.5,133.5C 343.768,127.825 343.768,122.158 342.5,116.5 Z"/></g>
<g><path style="opacity:0.565" fill="#b2b2b2" d="M 310.5,122.5 C 313.048,124.013 312.715,125.013 309.5,125.5C 310.11,124.609 310.443,123.609 310.5,122.5 Z"/></g>
<g><path style="opacity:0.999" fill="#141414" d="M 359.5,78.5 C 360.5,80.1667 361.833,81.5 363.5,82.5C 364.08,84.7488 365.413,86.4154 367.5,87.5C 367.738,89.4044 368.738,90.7377 370.5,91.5C 371.674,92.5137 372.34,93.847 372.5,95.5C 372.427,97.0269 373.094,98.0269 374.5,98.5C 376.372,101.917 377.372,105.583 377.5,109.5C 378.377,118.133 378.711,126.8 378.5,135.5C 377.03,147.101 372.363,157.101 364.5,165.5C 362.086,166.911 360.419,168.911 359.5,171.5C 359.5,172.167 359.167,172.5 358.5,172.5C 356.973,172.427 355.973,173.094 355.5,174.5C 355.167,174.5 354.833,174.5 354.5,174.5C 353.833,171.833 352.167,170.167 349.5,169.5C 348.972,168.153 348.805,166.819 349,165.5C 352.112,162.899 354.612,159.899 356.5,156.5C 357.906,156.027 358.573,155.027 358.5,153.5C 358.328,152.508 358.662,151.842 359.5,151.5C 360.906,151.027 361.573,150.027 361.5,148.5C 361.66,146.847 362.326,145.514 363.5,144.5C 365.472,141.916 366.472,138.916 366.5,135.5C 368.257,123.798 366.923,112.465 362.5,101.5C 362.759,99.0107 361.759,97.344 359.5,96.5C 359.262,94.5956 358.262,93.2623 356.5,92.5C 354.167,90.8333 352.167,88.8333 350.5,86.5C 350.5,85.1667 350.5,83.8333 350.5,82.5C 351.5,80.8333 352.833,79.5 354.5,78.5C 356.167,77.1667 357.833,77.1667 359.5,78.5 Z"/></g>
<g><path style="opacity:0.704" fill="#8a8a8a" d="M 377.5,109.5 C 380.498,118.117 380.831,126.783 378.5,135.5C 378.711,126.8 378.377,118.133 377.5,109.5 Z"/></g>
<g><path style="opacity:0.2" fill="#acacac" d="M 156.5,117.5 C 155.686,122.119 155.353,126.786 155.5,131.5C 154.838,129.696 154.505,127.696 154.5,125.5C 154.287,122.473 154.953,119.807 156.5,117.5 Z"/></g>
<g><path style="opacity:0.545" fill="#999999" d="M 168.5,125.5 C 170.404,125.738 171.738,126.738 172.5,128.5C 170.596,128.262 169.262,127.262 168.5,125.5 Z"/></g>
<g><path style="opacity:0.561" fill="#ababab" d="M 306.5,127.5 C 306.027,128.906 305.027,129.573 303.5,129.5C 303.973,128.094 304.973,127.427 306.5,127.5 Z"/></g>
<g><path style="opacity:0.408" fill="#a0a0a0" d="M 172.5,128.5 C 174.027,128.427 175.027,129.094 175.5,130.5C 173.973,130.573 172.973,129.906 172.5,128.5 Z"/></g>
<g><path style="opacity:0.882" fill="#828282" d="M 194.5,128.5 C 195.71,128.932 196.71,129.599 197.5,130.5C 195.821,130.715 194.821,130.048 194.5,128.5 Z"/></g>
<g><path style="opacity:0.478" fill="#a3a3a3" d="M 175.5,130.5 C 177.404,130.738 178.738,131.738 179.5,133.5C 177.596,133.262 176.262,132.262 175.5,130.5 Z"/></g>
<g><path style="opacity:0.557" fill="#b1b1b1" d="M 301.5,130.5 C 301.027,131.906 300.027,132.573 298.5,132.5C 298.973,131.094 299.973,130.427 301.5,130.5 Z"/></g>
<g><path style="opacity:0.102" fill="#c6c6c6" d="M 355.5,130.5 C 355.785,133.829 355.118,136.829 353.5,139.5C 353.676,136.273 354.343,133.273 355.5,130.5 Z"/></g>
<g><path style="opacity:0.184" fill="#c5c5c5" d="M 179.5,133.5 C 181.027,133.427 182.027,134.094 182.5,135.5C 180.973,135.573 179.973,134.906 179.5,133.5 Z"/></g>
<g><path style="opacity:0.667" fill="#9d9d9d" d="M 296.5,133.5 C 296.027,134.906 295.027,135.573 293.5,135.5C 293.973,134.094 294.973,133.427 296.5,133.5 Z"/></g>
<g><path style="opacity:0.933" fill="#7d7d7d" d="M 204.5,134.5 C 205.71,134.932 206.71,135.599 207.5,136.5C 205.821,136.715 204.821,136.048 204.5,134.5 Z"/></g>
<g><path style="opacity:0.235" fill="#cecece" d="M 182.5,135.5 C 184.027,135.427 185.027,136.094 185.5,137.5C 183.973,137.573 182.973,136.906 182.5,135.5 Z"/></g>
<g><path style="opacity:0.765" fill="#989898" d="M 342.5,133.5 C 342.88,135.698 342.213,137.365 340.5,138.5C 340.796,136.597 341.463,134.93 342.5,133.5 Z"/></g>
<g><path style="opacity:0.014" fill="#d0d0d0" d="M 211.5,135.5 C 212.249,136.531 212.915,137.698 213.5,139C 211.648,139.773 210.314,139.273 209.5,137.5C 210.833,137.5 211.5,136.833 211.5,135.5 Z"/></g>
<g><path style="opacity:0.816" fill="#6b6b6b" d="M 293.5,135.5 C 292.514,137.408 290.848,138.408 288.5,138.5C 289.659,136.75 291.326,135.75 293.5,135.5 Z"/></g>
<g><path style="opacity:0.212" fill="#cacaca" d="M 274.5,135.5 C 274.771,137.38 274.104,138.713 272.5,139.5C 272.66,137.847 273.326,136.514 274.5,135.5 Z"/></g>
<g><path style="opacity:0.157" fill="#b7b7b7" d="M 287.5,135.5 C 287.263,136.791 287.596,137.791 288.5,138.5C 287.749,139.573 286.749,139.74 285.5,139C 286.085,137.698 286.751,136.531 287.5,135.5 Z"/></g>
<g><path style="opacity:0.894" fill="#848484" d="M 366.5,135.5 C 366.472,138.916 365.472,141.916 363.5,144.5C 363.928,141.215 364.928,138.215 366.5,135.5 Z"/></g>
<g><path style="opacity:0.004" fill="#cacaca" d="M 144.5,136.5 C 145.738,138.214 146.405,140.214 146.5,142.5C 144.926,140.898 144.259,138.898 144.5,136.5 Z"/></g>
<g><path style="opacity:0.286" fill="#b5b5b5" d="M 187.5,138.5 C 189.027,138.427 190.027,139.094 190.5,140.5C 188.973,140.573 187.973,139.906 187.5,138.5 Z"/></g>
<g><path style="opacity:0.075" fill="#cacaca" d="M 340.5,138.5 C 340.155,141.198 338.822,143.198 336.5,144.5C 337.34,142.147 338.674,140.147 340.5,138.5 Z"/></g>
<g><path style="opacity:0.006" fill="#cecece" d="M 120.5,138.5 C 121.768,140.905 122.435,143.572 122.5,146.5C 120.96,144.162 120.294,141.495 120.5,138.5 Z"/></g>
<g><path style="opacity:0.208" fill="#bababa" d="M 158.5,139.5 C 159.906,139.973 160.573,140.973 160.5,142.5C 159.094,142.027 158.427,141.027 158.5,139.5 Z"/></g>
<g><path style="opacity:0.153" fill="#cdcdcd" d="M 190.5,140.5 C 192.027,140.427 193.027,141.094 193.5,142.5C 191.973,142.573 190.973,141.906 190.5,140.5 Z"/></g>
<g><path style="opacity:0.282" fill="#bdbdbd" d="M 226.5,139.5 C 228.833,141.167 230.833,143.167 232.5,145.5C 229.5,144.5 227.5,142.5 226.5,139.5 Z"/></g>
<g><path style="opacity:0.906" fill="#878787" d="M 133.5,140.5 C 134.458,142.302 135.125,144.302 135.5,146.5C 133.72,145.01 133.054,143.01 133.5,140.5 Z"/></g>
<g><path style="opacity:0.541" fill="#9f9f9f" d="M 272.5,139.5 C 271.167,142.833 268.833,145.167 265.5,146.5C 267.5,143.833 269.833,141.5 272.5,139.5 Z"/></g>
<g><path style="opacity:0.761" fill="#9e9e9e" d="M 162.5,144.5 C 164.129,145.625 165.629,146.959 167,148.5C 167.692,149.437 167.525,150.103 166.5,150.5C 164.748,148.754 163.415,146.754 162.5,144.5 Z"/></g>
<g><path style="opacity:0.333" fill="#9e9e9e" d="M 199.5,145.5 C 201.027,145.427 202.027,146.094 202.5,147.5C 200.973,147.573 199.973,146.906 199.5,145.5 Z"/></g>
<g><path style="opacity:0.016" fill="#bababa" d="M 232.5,145.5 C 234.23,146.026 235.564,147.026 236.5,148.5C 234.368,148.446 233.035,147.446 232.5,145.5 Z"/></g>
<g><path style="opacity:0.012" fill="#e2e2e2" d="M 122.5,146.5 C 123.931,147.78 124.598,149.447 124.5,151.5C 122.233,150.354 121.566,148.687 122.5,146.5 Z"/></g>
<g><path style="opacity:0.482" fill="#b8b8b8" d="M 265.5,146.5 C 265.027,147.906 264.027,148.573 262.5,148.5C 262.973,147.094 263.973,146.427 265.5,146.5 Z"/></g>
<g><path style="opacity:0.275" fill="#c0c0c0" d="M 236.5,148.5 C 238.553,148.402 240.22,149.069 241.5,150.5C 239.447,150.598 237.78,149.931 236.5,148.5 Z"/></g>
<g><path style="opacity:0.188" fill="#c6c6c6" d="M 361.5,148.5 C 361.573,150.027 360.906,151.027 359.5,151.5C 359.427,149.973 360.094,148.973 361.5,148.5 Z"/></g>
<g><path style="opacity:0.531" fill="#8f8f8f" d="M 241.5,150.5 C 245.179,150.724 248.846,151.058 252.5,151.5C 248.735,152.774 245.069,152.441 241.5,150.5 Z"/></g>
<g><path style="opacity:0.161" fill="#c3c3c3" d="M 124.5,151.5 C 125.674,152.514 126.34,153.847 126.5,155.5C 124.238,154.655 123.571,153.322 124.5,151.5 Z"/></g>
<g><path style="opacity:0.008" fill="#c9c9c9" d="M 153.5,152.5 C 154.833,153.167 155.833,154.167 156.5,155.5C 154.5,155.5 153.5,154.5 153.5,152.5 Z"/></g>
<g><path style="opacity:0.004" fill="#d1d1d1" d="M 164.5,152.5 C 164.5,153.833 163.833,154.5 162.5,154.5C 162.833,153.5 163.5,152.833 164.5,152.5 Z"/></g>
<g><path style="opacity:0.18" fill="#c7c7c7" d="M 138.5,152.5 C 139.906,152.973 140.573,153.973 140.5,155.5C 139.094,155.027 138.427,154.027 138.5,152.5 Z"/></g>
<g><path style="opacity:0.404" fill="#aaaaaa" d="M 358.5,153.5 C 358.573,155.027 357.906,156.027 356.5,156.5C 356.427,154.973 357.094,153.973 358.5,153.5 Z"/></g>
<g><path style="opacity:0.004" fill="#d3d3d3" d="M 156.5,155.5 C 157.5,155.833 158.167,156.5 158.5,157.5C 157.167,157.5 156.5,156.833 156.5,155.5 Z"/></g>
<g><path style="opacity:0.98" fill="#6c6c6c" d="M 335.5,155.5 C 337.435,156.15 339.435,156.483 341.5,156.5C 339.185,159.189 337.185,158.855 335.5,155.5 Z"/></g>
<g><path style="opacity:0.306" fill="#bfbfbf" d="M 140.5,155.5 C 141.906,155.973 142.573,156.973 142.5,158.5C 141.094,158.027 140.427,157.027 140.5,155.5 Z"/></g>
<g><path style="opacity:0.976" fill="#797979" d="M 226.5,158.5 C 229.716,158.345 232.383,159.345 234.5,161.5C 231.514,161.097 228.848,160.097 226.5,158.5 Z"/></g>
<g><path style="opacity:0.004" fill="#d0d0d0" d="M 273.5,158.5 C 271.485,159.924 269.152,160.59 266.5,160.5C 268.515,159.076 270.848,158.41 273.5,158.5 Z"/></g>
<g><path style="opacity:0.878" fill="#7f7f7f" d="M 143.5,159.5 C 144.833,160.167 145.833,161.167 146.5,162.5C 144.5,162.5 143.5,161.5 143.5,159.5 Z"/></g>
<g><path style="opacity:0.012" fill="#b2b2b2" d="M 129.5,161.5 C 131.264,162.326 132.598,163.659 133.5,165.5C 131.29,165.106 129.957,163.773 129.5,161.5 Z"/></g>
<g><path style="opacity:0.569" fill="#a0a0a0" d="M 356.5,156.5 C 354.612,159.899 352.112,162.899 349,165.5C 348.805,166.819 348.972,168.153 349.5,169.5C 348.373,168.878 347.373,168.045 346.5,167C 349.335,162.999 352.668,159.499 356.5,156.5 Z"/></g>
<g><path style="opacity:0.024" fill="#d9d9d9" d="M 364.5,165.5 C 363.581,168.089 361.914,170.089 359.5,171.5C 360.419,168.911 362.086,166.911 364.5,165.5 Z"/></g>
<g><path style="opacity:0.004" fill="#dcdcdc" d="M 134.5,167.5 C 135.833,168.167 136.833,169.167 137.5,170.5C 135.5,170.5 134.5,169.5 134.5,167.5 Z"/></g>
<g><path style="opacity:0.616" fill="#a8a8a8" d="M 349.5,169.5 C 352.167,170.167 353.833,171.833 354.5,174.5C 352.5,173.167 350.833,171.5 349.5,169.5 Z"/></g>
<g><path style="opacity:0.004" fill="#d9d9d9" d="M 138.5,171.5 C 139.833,172.167 140.833,173.167 141.5,174.5C 139.5,174.5 138.5,173.5 138.5,171.5 Z"/></g>
<g><path style="opacity:0.024" fill="#d5d5d5" d="M 358.5,172.5 C 358.027,173.906 357.027,174.573 355.5,174.5C 355.973,173.094 356.973,172.427 358.5,172.5 Z"/></g>
<g><path style="opacity:0.4" fill="#a1a1a1" d="M 77.5,185.5 C 74.8333,185.5 72.1667,185.5 69.5,185.5C 69.5,249.5 69.5,313.5 69.5,377.5C 71.5,377.5 73.5,377.5 75.5,377.5C 72.8223,378.909 70.1557,378.743 67.5,377C 67.8777,313.202 68.211,249.035 68.5,184.5C 71.7131,184.19 74.7131,184.523 77.5,185.5 Z"/></g>
<g><path style="opacity:0.392" fill="#9b9b9b" d="M 423.5,185.5 C 425.607,184.532 427.941,184.198 430.5,184.5C 430.5,249.167 430.5,313.833 430.5,378.5C 419.659,378.177 408.993,377.51 398.5,376.5C 408.85,376.44 419.183,376.774 429.5,377.5C 429.5,313.5 429.5,249.5 429.5,185.5C 427.5,185.5 425.5,185.5 423.5,185.5 Z"/></g>
<g><path style="opacity:0.999" fill="#090909" d="M 77.5,185.5 C 83.3015,186.682 89.3015,187.348 95.5,187.5C 114.808,188.832 134.141,189.498 153.5,189.5C 155.631,190.314 157.964,190.814 160.5,191C 156.81,193.169 155.143,196.336 155.5,200.5C 150.167,200.5 144.833,200.5 139.5,200.5C 121.471,200.498 103.471,199.832 85.5,198.5C 84.0813,197.549 82.4147,197.216 80.5,197.5C 79.8313,252.236 79.1646,307.069 78.5,362C 78.9743,363.729 79.9743,364.895 81.5,365.5C 88.4122,364.538 95.4122,364.205 102.5,364.5C 114.19,364.695 125.856,364.361 137.5,363.5C 147.084,362.527 156.75,362.194 166.5,362.5C 182.833,362.5 199.167,362.5 215.5,362.5C 238.006,362.831 260.34,362.497 282.5,361.5C 282.833,361.5 283.167,361.5 283.5,361.5C 299.992,362.497 316.658,362.83 333.5,362.5C 355.32,362.377 377.32,363.044 399.5,364.5C 404.985,365.327 410.652,365.827 416.5,366C 417.416,366.374 418.25,366.874 419,367.5C 419.273,365.899 419.773,364.399 420.5,363C 420.224,308.029 419.891,252.863 419.5,197.5C 415.298,197.183 411.298,197.517 407.5,198.5C 400.588,199.462 393.588,199.795 386.5,199.5C 373.302,199.304 360.302,199.971 347.5,201.5C 345.833,201.5 344.167,201.5 342.5,201.5C 335.492,201.666 328.492,201.5 321.5,201C 325.037,197.631 328.371,194.131 331.5,190.5C 344.346,190.311 357.013,189.644 369.5,188.5C 387.451,187.102 405.451,186.102 423.5,185.5C 425.5,185.5 427.5,185.5 429.5,185.5C 429.5,249.5 429.5,313.5 429.5,377.5C 419.183,376.774 408.85,376.44 398.5,376.5C 382.633,376.45 366.633,375.783 350.5,374.5C 330.523,373.561 310.523,373.228 290.5,373.5C 282.833,373.5 275.167,373.5 267.5,373.5C 266.505,385.989 266.171,398.656 266.5,411.5C 290.833,411.5 315.167,411.5 339.5,411.5C 339.5,415.167 339.5,418.833 339.5,422.5C 279.5,422.5 219.5,422.5 159.5,422.5C 159.5,418.833 159.5,415.167 159.5,411.5C 183.833,411.5 208.167,411.5 232.5,411.5C 232.5,398.833 232.5,386.167 232.5,373.5C 224.833,372.167 217.167,372.167 209.5,373.5C 179.858,374.58 150.192,375.246 120.5,375.5C 107.311,375.476 94.3105,376.143 81.5,377.5C 79.6112,378.742 77.6112,378.742 75.5,377.5C 73.5,377.5 71.5,377.5 69.5,377.5C 69.5,313.5 69.5,249.5 69.5,185.5C 72.1667,185.5 74.8333,185.5 77.5,185.5 Z M 85.5,198.5 C 103.471,199.832 121.471,200.498 139.5,200.5C 144.651,201.327 149.984,201.827 155.5,202C 156.762,203.927 157.762,203.76 158.5,201.5C 173.582,202.393 188.915,202.726 204.5,202.5C 238.482,203.768 272.482,203.768 306.5,202.5C 318.678,202.828 330.678,202.495 342.5,201.5C 344.167,201.5 345.833,201.5 347.5,201.5C 360.681,201.341 373.681,200.675 386.5,199.5C 393.588,199.795 400.588,199.462 407.5,198.5C 411.167,198.5 414.833,198.5 418.5,198.5C 418.5,253.833 418.5,309.167 418.5,364.5C 412.167,364.5 405.833,364.5 399.5,364.5C 377.32,363.044 355.32,362.377 333.5,362.5C 318.431,361.826 303.265,361.159 288,360.5C 286.316,361.193 284.816,361.526 283.5,361.5C 283.167,361.5 282.833,361.5 282.5,361.5C 260.944,360.459 238.611,360.459 215.5,361.5C 215.565,361.062 215.399,360.728 215,360.5C 198.735,361.16 182.569,361.826 166.5,362.5C 156.75,362.194 147.084,362.527 137.5,363.5C 136.378,362.844 135.045,362.511 133.5,362.5C 123.006,363.07 112.673,363.736 102.5,364.5C 95.4122,364.205 88.4122,364.538 81.5,365.5C 80.962,363.883 80.6287,362.216 80.5,360.5C 81.499,306.669 81.8323,252.669 81.5,198.5C 82.8333,198.5 84.1667,198.5 85.5,198.5 Z M 388.5,321.5 C 389.209,322.404 390.209,322.737 391.5,322.5C 392.167,323.833 393.167,324.833 394.5,325.5C 395.833,328.167 395.833,330.833 394.5,333.5C 392.809,334.864 391.142,336.197 389.5,337.5C 371.164,337.667 352.83,337.5 334.5,337C 329.169,333.529 328.169,329.029 331.5,323.5C 333.179,323.108 334.846,322.608 336.5,322C 353.83,321.5 371.163,321.333 388.5,321.5 Z M 176.5,259.5 C 178.117,260.038 179.784,260.371 181.5,260.5C 181.047,284.003 181.047,306.67 181.5,328.5C 181.5,329.5 181.5,330.5 181.5,331.5C 178.167,331.5 174.833,331.5 171.5,331.5C 171.19,328.287 171.523,325.287 172.5,322.5C 171.388,316.942 171.388,311.609 172.5,306.5C 171.504,291.342 171.17,276.009 171.5,260.5C 173.415,260.784 175.081,260.451 176.5,259.5 Z M 126.5,276.5 C 129.518,276.335 132.518,276.502 135.5,277C 136.059,277.725 136.392,278.558 136.5,279.5C 136.453,296.673 136.453,314.007 136.5,331.5C 133.167,331.5 129.833,331.5 126.5,331.5C 126.5,313.167 126.5,294.833 126.5,276.5 Z M 216.5,231.5 C 219.833,231.5 223.167,231.5 226.5,231.5C 226.5,264.833 226.5,298.167 226.5,331.5C 223.167,331.5 219.833,331.5 216.5,331.5C 216.5,298.167 216.5,264.833 216.5,231.5 Z M 245.5,373.5 C 248.5,373.5 251.5,373.5 254.5,373.5C 254.5,385.833 254.5,398.167 254.5,410.5C 251.167,410.5 247.833,410.5 244.5,410.5C 244.187,398.087 244.521,385.753 245.5,373.5 Z"/></g>
<g><path style="opacity:0.784" fill="#454545" d="M 407.5,198.5 C 411.298,197.517 415.298,197.183 419.5,197.5C 419.891,252.863 420.224,308.029 420.5,363C 419.773,364.399 419.273,365.899 419,367.5C 418.25,366.874 417.416,366.374 416.5,366C 410.652,365.827 404.985,365.327 399.5,364.5C 405.833,364.5 412.167,364.5 418.5,364.5C 418.5,309.167 418.5,253.833 418.5,198.5C 414.833,198.5 411.167,198.5 407.5,198.5 Z"/></g>
<g><path style="opacity:0.773" fill="#3a3a3a" d="M 80.5,197.5 C 80.5,251.833 80.5,306.167 80.5,360.5C 80.6287,362.216 80.962,363.883 81.5,365.5C 79.9743,364.895 78.9743,363.729 78.5,362C 79.1646,307.069 79.8313,252.236 80.5,197.5 Z"/></g>
<g><path style="opacity:0.518" fill="#959595" d="M 333.5,362.5 C 316.658,362.83 299.992,362.497 283.5,361.5C 284.816,361.526 286.316,361.193 288,360.5C 303.265,361.159 318.431,361.826 333.5,362.5 Z"/></g>
<g><path style="opacity:0.884" fill="#7b7b7b" d="M 282.5,361.5 C 260.34,362.497 238.006,362.831 215.5,362.5C 215.5,362.167 215.5,361.833 215.5,361.5C 238.611,360.459 260.944,360.459 282.5,361.5 Z"/></g>
<g><path style="opacity:0.598" fill="#8c8c8c" d="M 215.5,361.5 C 215.5,361.833 215.5,362.167 215.5,362.5C 199.167,362.5 182.833,362.5 166.5,362.5C 182.569,361.826 198.735,361.16 215,360.5C 215.399,360.728 215.565,361.062 215.5,361.5 Z"/></g>
<g><path style="opacity:0.243" fill="#bebebe" d="M 324.5,345.5 C 326.027,345.427 327.027,346.094 327.5,347.5C 325.973,347.573 324.973,346.906 324.5,345.5 Z"/></g>
<g><path style="opacity:0.281" fill="#b0b0b0" d="M 254.5,331.5 C 266.167,331.5 277.833,331.5 289.5,331.5C 289.5,335.833 289.5,340.167 289.5,344.5C 277.833,344.5 266.167,344.5 254.5,344.5C 254.5,340.167 254.5,335.833 254.5,331.5 Z"/></g>
<g><path style="opacity:0.012" fill="#d2d2d2" d="M 404.5,340.5 C 404.573,342.027 403.906,343.027 402.5,343.5C 402.427,341.973 403.094,340.973 404.5,340.5 Z"/></g>
<g><path style="opacity:0.098" fill="#cccccc" d="M 318.5,337.5 C 319.674,338.514 320.34,339.847 320.5,341.5C 318.896,340.713 318.229,339.38 318.5,337.5 Z"/></g>
<g><path style="opacity:0.998" fill="#000000" d="M 255.5,332.5 C 266.5,332.5 277.5,332.5 288.5,332.5C 288.5,336.167 288.5,339.833 288.5,343.5C 277.5,343.5 266.5,343.5 255.5,343.5C 255.5,339.833 255.5,336.167 255.5,332.5 Z"/></g>
<g><path style="opacity:0.796" fill="#909090" d="M 406.5,322.5 C 409.076,327.184 409.076,331.851 406.5,336.5C 406.5,331.833 406.5,327.167 406.5,322.5 Z"/></g>
<g><path style="opacity:0.284" fill="#d1d1d1" d="M 318.5,322.5 C 317.564,326.735 317.231,331.069 317.5,335.5C 316.268,333.625 315.602,331.792 315.5,330C 315.846,327.06 316.846,324.56 318.5,322.5 Z"/></g>
<g><path style="opacity:1" fill="#5f5f5f" d="M 194.5,308.5 C 193.833,308.5 193.5,308.833 193.5,309.5C 193.5,313.833 193.5,318.167 193.5,322.5C 194.071,324.36 194.071,326.027 193.5,327.5C 193.5,329.167 193.5,330.833 193.5,332.5C 192.778,332.082 192.278,331.416 192,330.5C 187.605,335.064 183.105,339.398 178.5,343.5C 177.5,343.5 176.5,343.5 175.5,343.5C 170.785,338.788 166.452,333.788 162.5,328.5C 162.828,324.561 162.995,320.561 163,316.5C 165.37,313.961 167.87,311.628 170.5,309.5C 170.5,310.5 170.5,311.5 170.5,312.5C 168.537,313.96 166.704,315.627 165,317.5C 165.265,321.039 165.099,324.539 164.5,328C 167.966,333.3 172.299,337.8 177.5,341.5C 181.007,339.539 182.34,336.539 181.5,332.5C 181.5,332.167 181.5,331.833 181.5,331.5C 181.5,330.5 181.5,329.5 181.5,328.5C 181.833,328.5 182.167,328.5 182.5,328.5C 182.369,329.239 182.536,329.906 183,330.5C 185.682,327.65 188.516,324.984 191.5,322.5C 192.662,317.869 192.828,313.202 192,308.5C 189.427,305.233 186.261,304.566 182.5,306.5C 182.5,305.833 182.5,305.167 182.5,304.5C 186.261,302.566 189.427,303.233 192,306.5C 192.5,287.17 192.667,267.836 192.5,248.5C 181.5,248.5 170.5,248.5 159.5,248.5C 159.5,248.167 159.5,247.833 159.5,247.5C 170.674,246.176 182.007,246.176 193.5,247.5C 194.469,267.966 194.803,288.299 194.5,308.5 Z"/></g>
<g><path style="opacity:0.998" fill="#060606" d="M 170.5,312.5 C 170.5,319.167 170.5,325.833 170.5,332.5C 174.167,332.5 177.833,332.5 181.5,332.5C 182.34,336.539 181.007,339.539 177.5,341.5C 172.299,337.8 167.966,333.3 164.5,328C 165.099,324.539 165.265,321.039 165,317.5C 166.704,315.627 168.537,313.96 170.5,312.5 Z"/></g>
<g><path style="opacity:0.646" fill="#5b5b5b" d="M 277.5,320.5 C 284.833,320.5 292.167,320.5 299.5,320.5C 299.5,317.167 299.5,313.833 299.5,310.5C 292.167,310.5 284.833,310.5 277.5,310.5C 277.783,309.711 278.283,309.044 279,308.5C 285.667,309.833 292.333,309.833 299,308.5C 300.431,312.635 300.931,316.968 300.5,321.5C 292.648,321.825 284.982,321.492 277.5,320.5 Z"/></g>
<g><path style="opacity:0.376" fill="#a2a2a2" d="M 403.5,317.5 C 404.906,317.973 405.573,318.973 405.5,320.5C 404.094,320.027 403.427,319.027 403.5,317.5 Z"/></g>
<g><path style="opacity:1" fill="#424242" d="M 325.5,313.5 C 327.101,315.479 328.434,317.645 329.5,320C 328.46,322.131 326.96,323.964 325,325.5C 324.833,325.167 324.667,324.833 324.5,324.5C 326.415,322.929 327.415,320.929 327.5,318.5C 325.516,318.383 323.85,319.05 322.5,320.5C 322.167,320.333 321.833,320.167 321.5,320C 324.17,317.585 324.17,316.418 321.5,316.5C 321.5,315.167 322.167,314.5 323.5,314.5C 324.167,314.167 324.833,313.833 325.5,313.5 Z"/></g>
<g><path style="opacity:0.361" fill="#bebebe" d="M 321.5,316.5 C 321.262,318.404 320.262,319.738 318.5,320.5C 317.957,320.44 317.624,320.107 317.5,319.5C 318.852,318.476 320.185,317.476 321.5,316.5 Z"/></g>
<g><path style="opacity:0.966" fill="#3d3d3d" d="M 182.5,314.5 C 185.436,315.515 186.769,317.682 186.5,321C 186.602,324.062 185.269,326.229 182.5,327.5C 182.5,323.167 182.5,318.833 182.5,314.5 Z"/></g>
<g><path style="opacity:0.012" fill="#c9c9c9" d="M 399.5,313.5 C 401.833,313.833 403.167,315.167 403.5,317.5C 401.833,316.5 400.5,315.167 399.5,313.5 Z"/></g>
<g><path style="opacity:0.01" fill="#f8f8f8" d="M 170.5,259.5 C 172.5,259.5 174.5,259.5 176.5,259.5C 175.081,260.451 173.415,260.784 171.5,260.5C 171.17,276.009 171.504,291.342 172.5,306.5C 171.388,311.609 171.388,316.942 172.5,322.5C 171.523,325.287 171.19,328.287 171.5,331.5C 174.833,331.5 178.167,331.5 181.5,331.5C 181.5,331.833 181.5,332.167 181.5,332.5C 177.833,332.5 174.167,332.5 170.5,332.5C 170.5,325.833 170.5,319.167 170.5,312.5C 170.5,311.5 170.5,310.5 170.5,309.5C 170.5,292.833 170.5,276.167 170.5,259.5 Z"/></g>
<g><path style="opacity:0.008" fill="#e5e5e5" d="M 328.5,309.5 C 328.5,310.167 328.833,310.5 329.5,310.5C 328.694,311.728 327.694,312.728 326.5,313.5C 326.167,313.5 325.833,313.5 325.5,313.5C 324.833,313.833 324.167,314.167 323.5,314.5C 323.389,313.883 323.056,313.383 322.5,313C 324.853,312.287 326.853,311.121 328.5,309.5 Z"/></g>
<g><path style="opacity:0.999" fill="#161616" d="M 394.5,310.5 C 396.674,310.75 398.341,311.75 399.5,313.5C 400.5,315.167 401.833,316.5 403.5,317.5C 403.427,319.027 404.094,320.027 405.5,320.5C 406.338,320.842 406.672,321.508 406.5,322.5C 406.5,327.167 406.5,331.833 406.5,336.5C 406.34,338.153 405.674,339.486 404.5,340.5C 403.094,340.973 402.427,341.973 402.5,343.5C 399.288,346.942 395.288,349.109 390.5,350C 371.5,350.667 352.5,350.667 333.5,350C 331.148,349.76 329.148,348.927 327.5,347.5C 327.027,346.094 326.027,345.427 324.5,345.5C 322.833,344.5 321.5,343.167 320.5,341.5C 320.34,339.847 319.674,338.514 318.5,337.5C 317.662,337.158 317.328,336.492 317.5,335.5C 317.231,331.069 317.564,326.735 318.5,322.5C 318.5,321.833 318.5,321.167 318.5,320.5C 320.262,319.738 321.262,318.404 321.5,316.5C 324.17,316.418 324.17,317.585 321.5,320C 321.833,320.167 322.167,320.333 322.5,320.5C 323.85,319.05 325.516,318.383 327.5,318.5C 327.415,320.929 326.415,322.929 324.5,324.5C 324.667,324.833 324.833,325.167 325,325.5C 326.96,323.964 328.46,322.131 329.5,320C 328.434,317.645 327.101,315.479 325.5,313.5C 325.833,313.5 326.167,313.5 326.5,313.5C 328.481,315.144 330.481,316.81 332.5,318.5C 333.223,316.836 332.89,315.169 331.5,313.5C 332.922,312.453 334.422,312.453 336,313.5C 337.826,312.99 337.993,312.156 336.5,311C 355.83,310.5 375.164,310.333 394.5,310.5 Z M 388.5,321.5 C 389.209,322.404 390.209,322.737 391.5,322.5C 392.167,323.833 393.167,324.833 394.5,325.5C 395.833,328.167 395.833,330.833 394.5,333.5C 392.809,334.864 391.142,336.197 389.5,337.5C 371.164,337.667 352.83,337.5 334.5,337C 329.169,333.529 328.169,329.029 331.5,323.5C 333.179,323.108 334.846,322.608 336.5,322C 353.83,321.5 371.163,321.333 388.5,321.5 Z"/></g>
<g><path style="opacity:0.992" fill="#757575" d="M 394.5,333.5 C 394.213,336.484 392.546,337.817 389.5,337.5C 391.142,336.197 392.809,334.864 394.5,333.5 Z"/></g>
<g><path style="opacity:0.651" fill="#a9a9a9" d="M 391.5,322.5 C 393.5,322.5 394.5,323.5 394.5,325.5C 393.167,324.833 392.167,323.833 391.5,322.5 Z"/></g>
<g><path style="opacity:0.644" fill="#676767" d="M 388.5,321.5 C 371.163,321.333 353.83,321.5 336.5,322C 334.846,322.608 333.179,323.108 331.5,323.5C 332.347,322.034 333.68,321.2 335.5,321C 353.338,320.171 371.005,320.338 388.5,321.5 Z"/></g>
<g><path style="opacity:1" fill="#0f0f0f" d="M 277.5,310.5 C 284.833,310.5 292.167,310.5 299.5,310.5C 299.5,313.833 299.5,317.167 299.5,320.5C 292.167,320.5 284.833,320.5 277.5,320.5C 276.167,317.167 276.167,313.833 277.5,310.5 Z"/></g>
<g><path style="opacity:0.705" fill="#4f4f4f" d="M 339.5,309.5 C 340.5,309.5 341.5,309.5 342.5,309.5C 360.008,309.17 377.341,309.503 394.5,310.5C 375.164,310.333 355.83,310.5 336.5,311C 337.993,312.156 337.826,312.99 336,313.5C 334.422,312.453 332.922,312.453 331.5,313.5C 332.89,315.169 333.223,316.836 332.5,318.5C 330.481,316.81 328.481,315.144 326.5,313.5C 327.694,312.728 328.694,311.728 329.5,310.5C 330.222,310.082 330.722,309.416 331,308.5C 332.398,309.051 333.732,309.384 335,309.5C 335.333,308.833 335.667,308.167 336,307.5C 336.816,308.823 337.983,309.489 339.5,309.5 Z"/></g>
<g><path style="opacity:0.011" fill="#fdfdfd" d="M 193.5,309.5 C 193.833,309.5 194.167,309.5 194.5,309.5C 194.384,313.581 194.717,317.748 195.5,322C 194.906,322.464 194.239,322.631 193.5,322.5C 193.5,318.167 193.5,313.833 193.5,309.5 Z"/></g>
<g><path style="opacity:0.017" fill="#fefffe" d="M 342.5,309.5 C 341.5,309.5 340.5,309.5 339.5,309.5C 339.957,307.443 340.957,307.443 342.5,309.5 Z"/></g>
<g><path style="opacity:1" fill="#030303" d="M 182.5,328.5 C 182.5,328.167 182.5,327.833 182.5,327.5C 185.269,326.229 186.602,324.062 186.5,321C 186.769,317.682 185.436,315.515 182.5,314.5C 182.5,311.833 182.5,309.167 182.5,306.5C 186.261,304.566 189.427,305.233 192,308.5C 192.828,313.202 192.662,317.869 191.5,322.5C 188.516,324.984 185.682,327.65 183,330.5C 182.536,329.906 182.369,329.239 182.5,328.5 Z"/></g>
<g><path style="opacity:0.209" fill="#c2c2c2" d="M 300.5,287.5 C 285.5,287.5 270.5,287.5 255.5,287.5C 255.5,291.167 255.5,294.833 255.5,298.5C 270.5,298.5 285.5,298.5 300.5,298.5C 285.342,299.496 270.009,299.83 254.5,299.5C 254.5,295.167 254.5,290.833 254.5,286.5C 270.009,286.17 285.342,286.504 300.5,287.5 Z"/></g>
<g><path style="opacity:0.469" fill="#939393" d="M 406.5,292.5 C 406.833,292.5 407.167,292.5 407.5,292.5C 395.007,293.331 382.34,293.831 369.5,294C 368.594,295.699 368.261,297.533 368.5,299.5C 364.298,299.817 360.298,299.483 356.5,298.5C 360.167,298.5 363.833,298.5 367.5,298.5C 367.5,296.5 367.5,294.5 367.5,292.5C 380.5,292.5 393.5,292.5 406.5,292.5 Z"/></g>
<g><path style="opacity:0.467" fill="#979797" d="M 317.5,281.5 C 317.5,281.833 317.5,282.167 317.5,282.5C 317.5,285.833 317.5,289.167 317.5,292.5C 330.876,291.852 343.876,292.519 356.5,294.5C 350.755,292.937 345.088,293.271 339.5,295.5C 337.627,295.518 337.294,295.018 338.5,294C 331.174,293.5 323.841,293.334 316.5,293.5C 316.183,289.298 316.517,285.298 317.5,281.5 Z"/></g>
<g><path style="opacity:0.998" fill="#040404" d="M 300.5,287.5 C 300.5,291.167 300.5,294.833 300.5,298.5C 285.5,298.5 270.5,298.5 255.5,298.5C 255.5,294.833 255.5,291.167 255.5,287.5C 270.5,287.5 285.5,287.5 300.5,287.5 Z"/></g>
<g><path style="opacity:0.798" fill="#606060" d="M 407.5,292.5 C 407.167,292.5 406.833,292.5 406.5,292.5C 406.5,289.167 406.5,285.833 406.5,282.5C 393.656,282.829 380.989,282.495 368.5,281.5C 370.833,281.5 373.167,281.5 375.5,281.5C 386.042,280.8 396.709,280.634 407.5,281C 407.515,284.931 407.515,288.765 407.5,292.5 Z"/></g>
<g><path style="opacity:0.797" fill="#757575" d="M 356.5,280.5 C 343.876,282.481 330.876,283.148 317.5,282.5C 317.5,282.167 317.5,281.833 317.5,281.5C 330.205,280.631 343.205,280.298 356.5,280.5 Z"/></g>
<g><path style="opacity:0.999" fill="#020202" d="M 356.5,276.5 C 360.167,276.5 363.833,276.5 367.5,276.5C 367.216,278.415 367.549,280.081 368.5,281.5C 380.989,282.495 393.656,282.829 406.5,282.5C 406.5,285.833 406.5,289.167 406.5,292.5C 393.5,292.5 380.5,292.5 367.5,292.5C 367.5,294.5 367.5,296.5 367.5,298.5C 363.833,298.5 360.167,298.5 356.5,298.5C 356.5,297.167 356.5,295.833 356.5,294.5C 343.876,292.519 330.876,291.852 317.5,292.5C 317.5,289.167 317.5,285.833 317.5,282.5C 330.876,283.148 343.876,282.481 356.5,280.5C 356.5,279.167 356.5,277.833 356.5,276.5 Z"/></g>
<g><path style="opacity:0.576" fill="#989898" d="M 356.5,276.5 C 360.298,275.517 364.298,275.183 368.5,275.5C 368.5,277.167 368.5,278.833 368.5,280.5C 371.059,280.198 373.393,280.532 375.5,281.5C 373.167,281.5 370.833,281.5 368.5,281.5C 367.549,280.081 367.216,278.415 367.5,276.5C 363.833,276.5 360.167,276.5 356.5,276.5 Z"/></g>
<g><path style="opacity:0.509" fill="#919191" d="M 255.5,264.5 C 255.5,268.167 255.5,271.833 255.5,275.5C 262.833,275.5 270.167,275.5 277.5,275.5C 277.5,271.833 277.5,268.167 277.5,264.5C 278.483,268.298 278.817,272.298 278.5,276.5C 270.5,276.5 262.5,276.5 254.5,276.5C 254.183,272.298 254.517,268.298 255.5,264.5 Z"/></g>
<g><path style="opacity:0.854" fill="#737373" d="M 238.5,343.5 C 238.167,343.5 237.833,343.5 237.5,343.5C 237.667,316.831 237.5,290.165 237,263.5C 234.234,266.777 231.067,269.443 227.5,271.5C 227.5,271.167 227.5,270.833 227.5,270.5C 230.66,267.534 233.827,264.534 237,261.5C 237.061,247.693 237.227,234.027 237.5,220.5C 226.639,221.144 215.639,221.144 204.5,220.5C 204.5,220.167 204.5,219.833 204.5,219.5C 209.99,218.834 215.657,218.501 221.5,218.5C 227.577,218.525 233.41,219.191 239,220.5C 239.525,261.457 239.358,302.457 238.5,343.5 Z"/></g>
<g><path style="opacity:0.8" fill="#868686" d="M 103.5,331.5 C 103.5,331.833 103.5,332.167 103.5,332.5C 102.502,295.337 102.168,258.004 102.5,220.5C 99.1667,220.5 95.8333,220.5 92.5,220.5C 92.9492,261.213 92.9492,302.213 92.5,343.5C 120.167,343.5 147.833,343.5 175.5,343.5C 176.5,343.5 177.5,343.5 178.5,343.5C 198.167,343.5 217.833,343.5 237.5,343.5C 237.833,343.5 238.167,343.5 238.5,343.5C 189.665,344.831 140.665,344.831 91.5,343.5C 90.3393,302.541 90.1726,261.541 91,220.5C 92.6977,219.267 94.6977,218.6 97,218.5C 99.0937,218.536 101.094,218.869 103,219.5C 103.5,256.832 103.667,294.165 103.5,331.5 Z"/></g>
<g><path style="opacity:0.775" fill="#616161" d="M 384.5,264.5 C 385.451,265.919 385.784,267.585 385.5,269.5C 388.833,269.5 392.167,269.5 395.5,269.5C 395.5,267.833 395.5,266.167 395.5,264.5C 399.5,264.5 403.5,264.5 407.5,264.5C 404.038,265.482 400.371,265.815 396.5,265.5C 396.5,267.167 396.5,268.833 396.5,270.5C 392.5,270.5 388.5,270.5 384.5,270.5C 384.5,268.833 384.5,267.167 384.5,265.5C 384.5,265.167 384.5,264.833 384.5,264.5 Z"/></g>
<g><path style="opacity:0.998" fill="#0d0d0d" d="M 277.5,264.5 C 277.5,268.167 277.5,271.833 277.5,275.5C 270.167,275.5 262.833,275.5 255.5,275.5C 255.5,271.833 255.5,268.167 255.5,264.5C 262.933,263.635 270.266,263.635 277.5,264.5 Z"/></g>
<g><path style="opacity:0.233" fill="#bdbdbd" d="M 317.5,253.5 C 317.5,257.167 317.5,260.833 317.5,264.5C 339.833,264.5 362.167,264.5 384.5,264.5C 384.5,264.833 384.5,265.167 384.5,265.5C 361.833,265.5 339.167,265.5 316.5,265.5C 316.183,261.298 316.517,257.298 317.5,253.5 Z"/></g>
<g><path style="opacity:0.626" fill="#686868" d="M 170.5,259.5 C 174.233,258.179 178.066,258.179 182,259.5C 182.5,274.496 182.667,289.496 182.5,304.5C 182.5,305.167 182.5,305.833 182.5,306.5C 182.5,309.167 182.5,311.833 182.5,314.5C 182.5,318.833 182.5,323.167 182.5,327.5C 182.5,327.833 182.5,328.167 182.5,328.5C 182.167,328.5 181.833,328.5 181.5,328.5C 181.047,306.67 181.047,284.003 181.5,260.5C 179.784,260.371 178.117,260.038 176.5,259.5C 174.5,259.5 172.5,259.5 170.5,259.5 Z"/></g>
<g><path style="opacity:0.213" fill="#c7c7c7" d="M 159.5,247.5 C 159.5,247.833 159.5,248.167 159.5,248.5C 159.5,276.5 159.5,304.5 159.5,332.5C 155.833,332.5 152.167,332.5 148.5,332.5C 148.5,331.833 148.5,331.167 148.5,330.5C 151.728,331.414 155.061,331.747 158.5,331.5C 158.169,303.328 158.502,275.328 159.5,247.5 Z"/></g>
<g><path style="opacity:0.999" fill="#060606" d="M 407.5,253.5 C 407.602,257.138 407.602,260.805 407.5,264.5C 403.5,264.5 399.5,264.5 395.5,264.5C 395.5,266.167 395.5,267.833 395.5,269.5C 392.167,269.5 388.833,269.5 385.5,269.5C 385.784,267.585 385.451,265.919 384.5,264.5C 362.167,264.5 339.833,264.5 317.5,264.5C 317.5,260.833 317.5,257.167 317.5,253.5C 340.167,253.5 362.833,253.5 385.5,253.5C 385.215,251.712 385.548,250.045 386.5,248.5C 389.319,248.742 392.319,248.742 395.5,248.5C 395.5,250.167 395.5,251.833 395.5,253.5C 399.5,253.5 403.5,253.5 407.5,253.5 Z"/></g>
<g><path style="opacity:0.999" fill="#020202" d="M 103.5,332.5 C 107.167,332.5 110.833,332.5 114.5,332.5C 114.169,309.994 114.503,287.66 115.5,265.5C 126.016,265.735 136.682,265.735 147.5,265.5C 147.169,288.006 147.503,310.34 148.5,332.5C 152.167,332.5 155.833,332.5 159.5,332.5C 159.5,304.5 159.5,276.5 159.5,248.5C 170.5,248.5 181.5,248.5 192.5,248.5C 192.667,267.836 192.5,287.17 192,306.5C 189.427,303.233 186.261,302.566 182.5,304.5C 182.667,289.496 182.5,274.496 182,259.5C 178.066,258.179 174.233,258.179 170.5,259.5C 170.5,276.167 170.5,292.833 170.5,309.5C 167.87,311.628 165.37,313.961 163,316.5C 162.995,320.561 162.828,324.561 162.5,328.5C 166.452,333.788 170.785,338.788 175.5,343.5C 147.833,343.5 120.167,343.5 92.5,343.5C 92.9492,302.213 92.9492,261.213 92.5,220.5C 95.8333,220.5 99.1667,220.5 102.5,220.5C 102.168,258.004 102.502,295.337 103.5,332.5 Z M 126.5,276.5 C 129.518,276.335 132.518,276.502 135.5,277C 136.059,277.725 136.392,278.558 136.5,279.5C 136.453,296.673 136.453,314.007 136.5,331.5C 133.167,331.5 129.833,331.5 126.5,331.5C 126.5,313.167 126.5,294.833 126.5,276.5 Z"/></g>
<g><path style="opacity:0.725" fill="#4c4c4c" d="M 125.5,276.5 C 128.976,275.357 132.642,275.19 136.5,276C 137.167,277.667 137.833,279.333 138.5,281C 137.84,298.265 137.173,315.431 136.5,332.5C 136.5,332.167 136.5,331.833 136.5,331.5C 136.453,314.007 136.453,296.673 136.5,279.5C 136.392,278.558 136.059,277.725 135.5,277C 132.518,276.502 129.518,276.335 126.5,276.5C 126.167,276.5 125.833,276.5 125.5,276.5 Z"/></g>
<g><path style="opacity:0.008" fill="#f8f8f8" d="M 125.5,276.5 C 125.833,276.5 126.167,276.5 126.5,276.5C 126.5,294.833 126.5,313.167 126.5,331.5C 129.833,331.5 133.167,331.5 136.5,331.5C 136.5,331.833 136.5,332.167 136.5,332.5C 132.833,332.5 129.167,332.5 125.5,332.5C 125.5,313.833 125.5,295.167 125.5,276.5 Z"/></g>
<g><path style="opacity:0.297" fill="#b4b4b4" d="M 115.5,264.5 C 115.5,264.833 115.5,265.167 115.5,265.5C 114.503,287.66 114.169,309.994 114.5,332.5C 110.833,332.5 107.167,332.5 103.5,332.5C 103.5,332.167 103.5,331.833 103.5,331.5C 106.833,331.5 110.167,331.5 113.5,331.5C 113.333,309.164 113.5,286.831 114,264.5C 114.69,263.262 115.19,263.262 115.5,264.5 Z"/></g>
<g><path style="opacity:0.786" fill="#656565" d="M 148.5,330.5 C 148.5,331.167 148.5,331.833 148.5,332.5C 147.503,310.34 147.169,288.006 147.5,265.5C 136.682,265.735 126.016,265.735 115.5,265.5C 115.5,265.167 115.5,264.833 115.5,264.5C 126.128,264.494 136.961,264.494 148,264.5C 148.5,286.497 148.667,308.497 148.5,330.5 Z"/></g>
<g><path style="opacity:0.712" fill="#9f9f9f" d="M 407.5,253.5 C 403.5,253.5 399.5,253.5 395.5,253.5C 395.5,251.833 395.5,250.167 395.5,248.5C 392.319,248.742 389.319,248.742 386.5,248.5C 385.548,250.045 385.215,251.712 385.5,253.5C 362.833,253.5 340.167,253.5 317.5,253.5C 339.66,252.503 361.994,252.169 384.5,252.5C 384.5,250.833 384.5,249.167 384.5,247.5C 388.106,247.789 391.606,247.456 395,246.5C 396.319,248.25 396.819,250.25 396.5,252.5C 400.371,252.185 404.038,252.518 407.5,253.5 Z"/></g>
<g><path style="opacity:0.709" fill="#898989" d="M 407.5,236.5 C 386.996,237.167 366.329,237.833 345.5,238.5C 346.833,239.5 346.833,240.5 345.5,241.5C 341.893,242.489 338.226,242.823 334.5,242.5C 334.5,242.167 334.5,241.833 334.5,241.5C 337.833,241.5 341.167,241.5 344.5,241.5C 344.5,239.833 344.5,238.167 344.5,236.5C 365.5,236.5 386.5,236.5 407.5,236.5 Z"/></g>
<g><path style="opacity:0.329" fill="#adadad" d="M 254.5,241.5 C 269.833,241.5 285.167,241.5 300.5,241.5C 300.5,245.833 300.5,250.167 300.5,254.5C 285.167,254.5 269.833,254.5 254.5,254.5C 254.5,250.167 254.5,245.833 254.5,241.5 Z"/></g>
<g><path style="opacity:0.998" fill="#000000" d="M 255.5,242.5 C 270.167,242.5 284.833,242.5 299.5,242.5C 299.5,246.167 299.5,249.833 299.5,253.5C 284.833,253.5 270.167,253.5 255.5,253.5C 255.5,249.833 255.5,246.167 255.5,242.5 Z"/></g>
<g><path style="opacity:0.355" fill="#b3b3b3" d="M 266.5,219.5 C 266.5,223.167 266.5,226.833 266.5,230.5C 277.833,230.5 289.167,230.5 300.5,230.5C 289.012,231.495 277.345,231.828 265.5,231.5C 265.183,227.298 265.517,223.298 266.5,219.5 Z"/></g>
<g><path style="opacity:0.357" fill="#a3a3a3" d="M 345.5,223.5 C 366.265,224.156 386.931,224.822 407.5,225.5C 386.473,226.155 365.806,225.488 345.5,223.5 Z"/></g>
<g><path style="opacity:0.356" fill="#ababab" d="M 334.5,219.5 C 334.5,221.5 334.5,223.5 334.5,225.5C 328.833,225.5 323.167,225.5 317.5,225.5C 317.5,229.167 317.5,232.833 317.5,236.5C 323.167,236.5 328.833,236.5 334.5,236.5C 334.5,238.167 334.5,239.833 334.5,241.5C 334.5,241.833 334.5,242.167 334.5,242.5C 333.549,241.081 333.216,239.415 333.5,237.5C 327.833,237.5 322.167,237.5 316.5,237.5C 316.5,233.167 316.5,228.833 316.5,224.5C 322.167,224.5 327.833,224.5 333.5,224.5C 333.216,222.585 333.549,220.919 334.5,219.5 Z"/></g>
<g><path style="opacity:0.139" fill="#dbdbdb" d="M 204.5,219.5 C 204.5,219.833 204.5,220.167 204.5,220.5C 204.5,257.833 204.5,295.167 204.5,332.5C 200.833,332.5 197.167,332.5 193.5,332.5C 193.5,330.833 193.5,329.167 193.5,327.5C 194.239,327.369 194.906,327.536 195.5,328C 194.663,329.011 194.33,330.178 194.5,331.5C 197.5,331.5 200.5,331.5 203.5,331.5C 203.772,327.098 203.439,322.765 202.5,318.5C 203.16,285.373 203.827,252.373 204.5,219.5 Z"/></g>
<g><path style="opacity:0.999" fill="#070707" d="M 345.5,223.5 C 365.806,225.488 386.473,226.155 407.5,225.5C 407.578,229.066 407.578,232.732 407.5,236.5C 386.5,236.5 365.5,236.5 344.5,236.5C 344.5,238.167 344.5,239.833 344.5,241.5C 341.167,241.5 337.833,241.5 334.5,241.5C 334.5,239.833 334.5,238.167 334.5,236.5C 328.833,236.5 323.167,236.5 317.5,236.5C 317.5,232.833 317.5,229.167 317.5,225.5C 323.167,225.5 328.833,225.5 334.5,225.5C 334.5,223.5 334.5,221.5 334.5,219.5C 337.962,218.518 341.629,218.185 345.5,218.5C 345.5,220.167 345.5,221.833 345.5,223.5 Z"/></g>
<g><path style="opacity:0.999" fill="#1a1a1a" d="M 300.5,230.5 C 289.167,230.5 277.833,230.5 266.5,230.5C 266.5,226.833 266.5,223.167 266.5,219.5C 277.654,218.505 288.988,218.172 300.5,218.5C 300.5,222.5 300.5,226.5 300.5,230.5 Z"/></g>
<g><path style="opacity:0.999" fill="#010101" d="M 204.5,220.5 C 215.639,221.144 226.639,221.144 237.5,220.5C 237.227,234.027 237.061,247.693 237,261.5C 233.827,264.534 230.66,267.534 227.5,270.5C 227.5,257.167 227.5,243.833 227.5,230.5C 223.298,230.183 219.298,230.517 215.5,231.5C 215.5,265.167 215.5,298.833 215.5,332.5C 219.167,332.5 222.833,332.5 226.5,332.5C 227.497,312.34 227.83,292.007 227.5,271.5C 231.067,269.443 234.234,266.777 237,263.5C 237.5,290.165 237.667,316.831 237.5,343.5C 217.833,343.5 198.167,343.5 178.5,343.5C 183.105,339.398 187.605,335.064 192,330.5C 192.278,331.416 192.778,332.082 193.5,332.5C 197.167,332.5 200.833,332.5 204.5,332.5C 204.5,295.167 204.5,257.833 204.5,220.5 Z M 216.5,231.5 C 219.833,231.5 223.167,231.5 226.5,231.5C 226.5,264.833 226.5,298.167 226.5,331.5C 223.167,331.5 219.833,331.5 216.5,331.5C 216.5,298.167 216.5,264.833 216.5,231.5 Z"/></g>
<g><path style="opacity:0.066" fill="#ececec" d="M 215.5,231.5 C 215.833,231.5 216.167,231.5 216.5,231.5C 216.5,264.833 216.5,298.167 216.5,331.5C 219.833,331.5 223.167,331.5 226.5,331.5C 226.5,331.833 226.5,332.167 226.5,332.5C 222.833,332.5 219.167,332.5 215.5,332.5C 215.5,298.833 215.5,265.167 215.5,231.5 Z"/></g>
<g><path style="opacity:0.54" fill="#767676" d="M 215.5,231.5 C 219.298,230.517 223.298,230.183 227.5,230.5C 227.5,243.833 227.5,257.167 227.5,270.5C 227.5,270.833 227.5,271.167 227.5,271.5C 227.83,292.007 227.497,312.34 226.5,332.5C 226.5,332.167 226.5,331.833 226.5,331.5C 226.5,298.167 226.5,264.833 226.5,231.5C 223.167,231.5 219.833,231.5 216.5,231.5C 216.167,231.5 215.833,231.5 215.5,231.5 Z"/></g>
<g><path style="opacity:0.012" fill="#d3d3d3" d="M 386.5,199.5 C 373.681,200.675 360.681,201.341 347.5,201.5C 360.302,199.971 373.302,199.304 386.5,199.5 Z"/></g>
<g><path style="opacity:0.51" fill="#c0c0c0" d="M 139.5,200.5 C 144.833,200.5 150.167,200.5 155.5,200.5C 156.391,201.11 157.391,201.443 158.5,201.5C 157.762,203.76 156.762,203.927 155.5,202C 149.984,201.827 144.651,201.327 139.5,200.5 Z"/></g>
<g><path style="opacity:0.006" fill="#fefefe" d="M 80.5,197.5 C 82.4147,197.216 84.0813,197.549 85.5,198.5C 84.1667,198.5 82.8333,198.5 81.5,198.5C 81.8323,252.669 81.499,306.669 80.5,360.5C 80.5,306.167 80.5,251.833 80.5,197.5 Z"/></g>
<g><path style="opacity:1" fill="#2e2e2e" d="M 153.5,189.5 C 155.833,189.5 158.167,189.5 160.5,189.5C 163.167,189.5 165.833,189.5 168.5,189.5C 168.5,189.833 168.5,190.167 168.5,190.5C 161.469,190.519 161.136,191.019 167.5,192C 171.5,195 171.5,198 167.5,201C 180.007,201.169 192.34,201.669 204.5,202.5C 188.915,202.726 173.582,202.393 158.5,201.5C 157.391,201.443 156.391,201.11 155.5,200.5C 155.143,196.336 156.81,193.169 160.5,191C 157.964,190.814 155.631,190.314 153.5,189.5 Z"/></g>
<g><path style="opacity:1" fill="#565656" d="M 308.5,190.5 C 309.833,190.5 311.167,190.5 312.5,190.5C 311.737,191.268 310.737,191.768 309.5,192C 312.089,195.097 315.089,197.597 318.5,199.5C 320.029,199.471 321.196,198.804 322,197.5C 322.497,195.19 322.663,192.857 322.5,190.5C 325.5,190.5 328.5,190.5 331.5,190.5C 328.371,194.131 325.037,197.631 321.5,201C 328.492,201.5 335.492,201.666 342.5,201.5C 330.678,202.495 318.678,202.828 306.5,202.5C 309.305,201.681 312.305,201.181 315.5,201C 312.296,197.964 309.296,194.797 306.5,191.5C 307.492,191.672 308.158,191.338 308.5,190.5 Z"/></g>
<g><path style="opacity:0.999" fill="#040404" d="M 312.5,190.5 C 312.833,190.5 313.167,190.5 313.5,190.5C 313.833,190.5 314.167,190.5 314.5,190.5C 317.167,190.5 319.833,190.5 322.5,190.5C 322.663,192.857 322.497,195.19 322,197.5C 321.196,198.804 320.029,199.471 318.5,199.5C 315.089,197.597 312.089,195.097 309.5,192C 310.737,191.768 311.737,191.268 312.5,190.5 Z"/></g>
<g><path style="opacity:0.698" fill="#a2a2a2" d="M 306.5,190.5 C 307.167,190.5 307.833,190.5 308.5,190.5C 308.158,191.338 307.492,191.672 306.5,191.5C 273.5,191.5 240.5,191.5 207.5,191.5C 207.5,191.167 207.5,190.833 207.5,190.5C 239.89,191.155 272.057,190.488 304,188.5C 304.708,189.381 305.542,190.047 306.5,190.5 Z"/></g>
<g><path style="opacity:0.504" fill="#777777" d="M 207.5,190.5 C 207.5,190.833 207.5,191.167 207.5,191.5C 201.31,191.823 195.31,191.49 189.5,190.5C 195.389,190.226 201.389,190.226 207.5,190.5 Z"/></g>
<g><path style="opacity:0.998" fill="#101010" d="M 168.5,190.5 C 175.167,190.5 181.833,190.5 188.5,190.5C 188.833,190.5 189.167,190.5 189.5,190.5C 195.31,191.49 201.31,191.823 207.5,191.5C 240.5,191.5 273.5,191.5 306.5,191.5C 309.296,194.797 312.296,197.964 315.5,201C 312.305,201.181 309.305,201.681 306.5,202.5C 272.482,203.768 238.482,203.768 204.5,202.5C 192.34,201.669 180.007,201.169 167.5,201C 171.5,198 171.5,195 167.5,192C 161.136,191.019 161.469,190.519 168.5,190.5 Z"/></g>
<g><path style="opacity:0.804" fill="#8d8d8d" d="M 369.5,188.5 C 357.013,189.644 344.346,190.311 331.5,190.5C 328.5,190.5 325.5,190.5 322.5,190.5C 319.833,190.5 317.167,190.5 314.5,190.5C 320.901,189.816 327.401,189.15 334,188.5C 345.745,188.75 357.578,188.75 369.5,188.5 Z"/></g>
<g><path style="opacity:0.302" fill="#d0d0d0" d="M 188.5,190.5 C 181.833,190.5 175.167,190.5 168.5,190.5C 168.5,190.167 168.5,189.833 168.5,189.5C 170.773,189.601 172.939,189.267 175,188.5C 179.601,189.142 184.101,189.809 188.5,190.5 Z"/></g>
<g><path style="opacity:0.012" fill="#fefffe" d="M 313.5,190.5 C 313.167,190.5 312.833,190.5 312.5,190.5C 311.167,190.5 309.833,190.5 308.5,190.5C 307.833,190.5 307.167,190.5 306.5,190.5C 306.369,189.761 306.536,189.094 307,188.5C 309.277,189.117 311.444,189.784 313.5,190.5 Z"/></g>
<g><path style="opacity:0.333" fill="#b6b6b6" d="M 95.5,187.5 C 95.5,187.167 95.5,186.833 95.5,186.5C 117.325,187.473 138.991,188.473 160.5,189.5C 158.167,189.5 155.833,189.5 153.5,189.5C 134.141,189.498 114.808,188.832 95.5,187.5 Z"/></g>
<g><path style="opacity:0.51" fill="#8b8b8b" d="M 77.5,185.5 C 83.5293,185.425 89.5293,185.759 95.5,186.5C 95.5,186.833 95.5,187.167 95.5,187.5C 89.3015,187.348 83.3015,186.682 77.5,185.5 Z"/></g>
<g><path style="opacity:0.502" fill="#b9b9b9" d="M 137.5,363.5 C 125.856,364.361 114.19,364.695 102.5,364.5C 112.673,363.736 123.006,363.07 133.5,362.5C 135.045,362.511 136.378,362.844 137.5,363.5 Z"/></g>
<g><path style="opacity:0.673" fill="#686868" d="M 209.5,373.5 C 217.167,372.167 224.833,372.167 232.5,373.5C 232.167,373.5 231.833,373.5 231.5,373.5C 224.197,373.536 216.864,373.536 209.5,373.5 Z"/></g>
<g><path style="opacity:0.005" fill="#c6c6c6" d="M 290.5,373.5 C 310.523,373.228 330.523,373.561 350.5,374.5C 349.726,375.147 348.726,375.48 347.5,375.5C 328.346,374.87 309.346,374.203 290.5,373.5 Z"/></g>
<g><path style="opacity:0.013" fill="#cfcfcf" d="M 120.5,375.5 C 107.689,376.857 94.6895,377.524 81.5,377.5C 94.3105,376.143 107.311,375.476 120.5,375.5 Z"/></g>
<g><path style="opacity:0.486" fill="#8a8a8a" d="M 243.5,372.5 C 247.5,372.5 251.5,372.5 255.5,372.5C 255.5,385.5 255.5,398.5 255.5,411.5C 251.5,411.5 247.5,411.5 243.5,411.5C 243.5,398.5 243.5,385.5 243.5,372.5 Z M 245.5,373.5 C 244.521,385.753 244.187,398.087 244.5,410.5C 247.833,410.5 251.167,410.5 254.5,410.5C 254.5,398.167 254.5,385.833 254.5,373.5C 251.5,373.5 248.5,373.5 245.5,373.5 Z"/></g>
<g><path style="opacity:0.158" fill="#d8d8d8" d="M 267.5,373.5 C 267.5,385.833 267.5,398.167 267.5,410.5C 291.833,410.5 316.167,410.5 340.5,410.5C 340.817,414.702 340.483,418.702 339.5,422.5C 339.5,418.833 339.5,415.167 339.5,411.5C 315.167,411.5 290.833,411.5 266.5,411.5C 266.171,398.656 266.505,385.989 267.5,373.5 Z"/></g>
<g><path style="opacity:0.087" fill="#e1e1e1" d="M 231.5,373.5 C 231.833,373.5 232.167,373.5 232.5,373.5C 232.5,386.167 232.5,398.833 232.5,411.5C 208.167,411.5 183.833,411.5 159.5,411.5C 159.5,415.167 159.5,418.833 159.5,422.5C 219.5,422.5 279.5,422.5 339.5,422.5C 279.336,423.499 219.002,423.832 158.5,423.5C 158.5,419.167 158.5,414.833 158.5,410.5C 182.833,410.5 207.167,410.5 231.5,410.5C 231.5,398.167 231.5,385.833 231.5,373.5 Z"/></g>
</svg>
