<?xml version="1.0" encoding="UTF-8"?>
<!DOCTYPE svg PUBLIC "-//W3C//DTD SVG 1.1//EN" "http://www.w3.org/Graphics/SVG/1.1/DTD/svg11.dtd">
<svg xmlns="http://www.w3.org/2000/svg" version="1.1" width="225px" height="225px" style="shape-rendering:geometricPrecision; text-rendering:geometricPrecision; image-rendering:optimizeQuality; fill-rule:evenodd; clip-rule:evenodd" xmlns:xlink="http://www.w3.org/1999/xlink">
<g><path style="opacity:0.998" fill="#010101" d="M 6.5,6.5 C 8.83333,6.5 11.1667,6.5 13.5,6.5C 13.5,8.83333 13.5,11.1667 13.5,13.5C 11.1667,13.5 8.83333,13.5 6.5,13.5C 6.5,11.1667 6.5,8.83333 6.5,6.5 Z"/></g>
<g><path style="opacity:0.999" fill="#0c0c0c" d="M 20.5,6.5 C 30.1667,6.5 39.8333,6.5 49.5,6.5C 49.5,8.83333 49.5,11.1667 49.5,13.5C 39.8333,13.5 30.1667,13.5 20.5,13.5C 20.5,11.1667 20.5,8.83333 20.5,6.5 Z"/></g>
<g><path style="opacity:1" fill="#161616" d="M 7.5,91.5 C 23.8333,91.5 40.1667,91.5 56.5,91.5C 56.5,81.5 56.5,71.5 56.5,61.5C 58.1667,55.1667 62.1667,51.1667 68.5,49.5C 70.4753,39.5541 71.1419,29.2208 70.5,18.5C 72.5921,13.2395 76.2588,9.40616 81.5,7C 110.167,6.33333 138.833,6.33333 167.5,7C 174.974,9.14032 179.807,13.9736 182,21.5C 182.5,53.8316 182.667,86.1649 182.5,118.5C 193.505,118.333 204.505,118.5 215.5,119C 216,119.5 216.5,120 217,120.5C 217.89,127.914 217.557,135.247 216,142.5C 212.632,148.203 207.799,152.037 201.5,154C 188.171,154.5 174.837,154.667 161.5,154.5C 161.667,171.503 161.5,188.503 161,205.5C 158.833,211 155,214.833 149.5,217C 122.167,217.667 94.8333,217.667 67.5,217C 58.5006,213.176 54.5006,206.343 55.5,196.5C 39.2558,196.825 23.0891,196.491 7,195.5C 6.16908,160.664 6.33574,125.998 7.5,91.5 Z M 140.5,23.5 C 139.503,40.9921 139.17,58.6588 139.5,76.5C 118.833,76.5 98.1667,76.5 77.5,76.5C 77.5,57.8333 77.5,39.1667 77.5,20.5C 79.4754,17.0393 82.4754,14.8727 86.5,14C 105.833,13.3333 125.167,13.3333 144.5,14C 142.098,16.7034 140.765,19.8701 140.5,23.5 Z M 179.5,146.5 C 173.5,146.5 167.5,146.5 161.5,146.5C 161.831,117.995 161.498,89.6618 160.5,61.5C 158.833,55.1667 154.833,51.1667 148.5,49.5C 147.533,41.5856 147.199,33.5856 147.5,25.5C 151.397,15.2147 158.397,12.0481 168.5,16C 171.135,17.9605 172.969,20.4605 174,23.5C 174.333,61.1667 174.667,98.8333 175,136.5C 175.703,140.236 177.203,143.569 179.5,146.5 Z M 68.5,57.5 C 69.1667,65.8333 69.8333,74.1667 70.5,82.5C 70.6107,83.1174 70.944,83.6174 71.5,84C 96.1667,84.6667 120.833,84.6667 145.5,84C 146.056,83.6174 146.389,83.1174 146.5,82.5C 146.845,73.9501 147.845,65.6168 149.5,57.5C 150.836,59.0103 152.003,60.6769 153,62.5C 153.667,109.5 153.667,156.5 153,203.5C 151.332,207.165 148.499,209.332 144.5,210C 120.5,210.667 96.5,210.667 72.5,210C 68.5013,209.332 65.668,207.165 64,203.5C 63.3333,156.5 63.3333,109.5 64,62.5C 64.9959,60.3395 66.4959,58.6728 68.5,57.5 Z M 13.5,98.5 C 18.1667,98.5 22.8333,98.5 27.5,98.5C 27.5,128.5 27.5,158.5 27.5,188.5C 22.8333,188.5 18.1667,188.5 13.5,188.5C 13.5,158.5 13.5,128.5 13.5,98.5 Z M 41.5,98.5 C 41.5,128.5 41.5,158.5 41.5,188.5C 39.5,188.5 37.5,188.5 35.5,188.5C 35.5,158.5 35.5,128.5 35.5,98.5C 37.5,98.5 39.5,98.5 41.5,98.5 Z M 55.5,98.5 C 55.5,128.5 55.5,158.5 55.5,188.5C 53.5,188.5 51.5,188.5 49.5,188.5C 49.5,158.5 49.5,128.5 49.5,98.5C 51.5,98.5 53.5,98.5 55.5,98.5 Z M 77.5,105.5 C 98.1667,105.5 118.833,105.5 139.5,105.5C 139.5,107.5 139.5,109.5 139.5,111.5C 118.833,111.5 98.1667,111.5 77.5,111.5C 77.5,109.5 77.5,107.5 77.5,105.5 Z M 210.5,126.5 C 211.083,142.605 203.749,148.605 188.5,144.5C 187.5,142.833 186.167,141.5 184.5,140.5C 184.443,139.391 184.11,138.391 183.5,137.5C 182.756,133.881 182.423,130.215 182.5,126.5C 191.833,126.5 201.167,126.5 210.5,126.5 Z M 133.5,133.5 C 135.5,133.5 137.5,133.5 139.5,133.5C 139.5,135.5 139.5,137.5 139.5,139.5C 137.5,139.5 135.5,139.5 133.5,139.5C 133.5,137.5 133.5,135.5 133.5,133.5 Z M 77.5,133.5 C 79.5,133.5 81.5,133.5 83.5,133.5C 83.5,135.5 83.5,137.5 83.5,139.5C 81.5,139.5 79.5,139.5 77.5,139.5C 77.5,137.5 77.5,135.5 77.5,133.5 Z M 105.5,133.5 C 107.5,133.5 109.5,133.5 111.5,133.5C 111.5,135.5 111.5,137.5 111.5,139.5C 109.5,139.5 107.5,139.5 105.5,139.5C 105.5,137.5 105.5,135.5 105.5,133.5 Z M 133.5,161.5 C 135.5,161.5 137.5,161.5 139.5,161.5C 139.5,163.5 139.5,165.5 139.5,167.5C 137.5,167.5 135.5,167.5 133.5,167.5C 133.5,165.5 133.5,163.5 133.5,161.5 Z M 77.5,161.5 C 79.5,161.5 81.5,161.5 83.5,161.5C 83.5,163.5 83.5,165.5 83.5,167.5C 81.5,167.5 79.5,167.5 77.5,167.5C 77.5,165.5 77.5,163.5 77.5,161.5 Z M 105.5,161.5 C 107.5,161.5 109.5,161.5 111.5,161.5C 111.5,163.5 111.5,165.5 111.5,167.5C 109.5,167.5 107.5,167.5 105.5,167.5C 105.5,165.5 105.5,163.5 105.5,161.5 Z M 77.5,189.5 C 79.5,189.5 81.5,189.5 83.5,189.5C 83.8016,192.059 83.4682,194.393 82.5,196.5C 81.0813,195.549 79.4147,195.216 77.5,195.5C 77.5,193.5 77.5,191.5 77.5,189.5 Z M 139.5,189.5 C 139.5,191.5 139.5,193.5 139.5,195.5C 137.585,195.216 135.919,195.549 134.5,196.5C 133.532,194.393 133.198,192.059 133.5,189.5C 135.5,189.5 137.5,189.5 139.5,189.5 Z M 105.5,189.5 C 107.5,189.5 109.5,189.5 111.5,189.5C 111.5,191.5 111.5,193.5 111.5,195.5C 109.5,195.5 107.5,195.5 105.5,195.5C 105.5,193.5 105.5,191.5 105.5,189.5 Z"/></g>
<g><path style="opacity:0.539" fill="#7b7b7b" d="M 70.5,18.5 C 71.1419,29.2208 70.4753,39.5541 68.5,49.5C 69.1447,39.068 69.8114,28.7347 70.5,18.5 Z"/></g>
<g><path style="opacity:0.501" fill="#7e7e7e" d="M 147.5,25.5 C 147.199,33.5856 147.533,41.5856 148.5,49.5C 147.176,45.893 146.509,41.893 146.5,37.5C 146.501,33.3188 146.834,29.3188 147.5,25.5 Z"/></g>
<g><path style="opacity:0.999" fill="#202020" d="M 6.5,27.5 C 8.83333,27.5 11.1667,27.5 13.5,27.5C 13.5,30.1667 13.5,32.8333 13.5,35.5C 11.1667,35.5 8.83333,35.5 6.5,35.5C 6.5,32.8333 6.5,30.1667 6.5,27.5 Z"/></g>
<g><path style="opacity:1" fill="#252525" d="M 20.5,27.5 C 30.1667,27.5 39.8333,27.5 49.5,27.5C 49.7683,30.1194 49.435,32.6194 48.5,35C 39.1726,35.4998 29.8393,35.6665 20.5,35.5C 20.5,32.8333 20.5,30.1667 20.5,27.5 Z"/></g>
<g><path style="opacity:0.999" fill="#232323" d="M 6.5,48.5 C 8.83333,48.5 11.1667,48.5 13.5,48.5C 13.5,51.1667 13.5,53.8333 13.5,56.5C 11.1667,56.5 8.83333,56.5 6.5,56.5C 6.5,53.8333 6.5,51.1667 6.5,48.5 Z"/></g>
<g><path style="opacity:1" fill="#101010" d="M 48.5,48.5 C 48.5,50.8333 48.5,53.1667 48.5,55.5C 39.1667,55.5 29.8333,55.5 20.5,55.5C 20.5,53.1667 20.5,50.8333 20.5,48.5C 29.8333,48.5 39.1667,48.5 48.5,48.5 Z"/></g>
<g><path style="opacity:0.118" fill="#dddddd" d="M 48.5,48.5 C 49.4731,50.9479 49.8064,53.6146 49.5,56.5C 39.6522,56.8271 29.9856,56.4938 20.5,55.5C 29.8333,55.5 39.1667,55.5 48.5,55.5C 48.5,53.1667 48.5,50.8333 48.5,48.5 Z"/></g>
<g><path style="opacity:0.502" fill="#818181" d="M 149.5,57.5 C 147.845,65.6168 146.845,73.9501 146.5,82.5C 146.5,73.8333 146.5,65.1667 146.5,56.5C 147.791,56.2627 148.791,56.596 149.5,57.5 Z"/></g>
<g><path style="opacity:0.539" fill="#797979" d="M 68.5,57.5 C 68.56,56.9569 68.8933,56.6236 69.5,56.5C 70.498,65.1411 70.8314,73.8078 70.5,82.5C 69.8333,74.1667 69.1667,65.8333 68.5,57.5 Z"/></g>
<g><path style="opacity:0.502" fill="#9d9d9d" d="M 77.5,20.5 C 77.5,39.1667 77.5,57.8333 77.5,76.5C 98.1667,76.5 118.833,76.5 139.5,76.5C 139.17,58.6588 139.503,40.9921 140.5,23.5C 140.5,41.5 140.5,59.5 140.5,77.5C 119.167,77.5 97.8333,77.5 76.5,77.5C 76.1697,58.326 76.503,39.326 77.5,20.5 Z"/></g>
<g><path style="opacity:0.682" fill="#727272" d="M 103.5,61.5 C 105.176,62.1834 105.843,63.5168 105.5,65.5C 107.5,65.5 109.5,65.5 111.5,65.5C 111.263,64.209 111.596,63.209 112.5,62.5C 112.5,63.8333 112.5,65.1667 112.5,66.5C 109.833,66.5 107.167,66.5 104.5,66.5C 104.634,64.7085 104.301,63.0418 103.5,61.5 Z"/></g>
<g><path style="opacity:0.135" fill="#cbcbcb" d="M 105.5,53.5 C 103.283,52.6314 100.95,52.298 98.5,52.5C 98.5,53.5 98.5,54.5 98.5,55.5C 97.5655,54.4324 97.2322,53.099 97.5,51.5C 100.698,50.9644 103.365,51.631 105.5,53.5 Z"/></g>
<g><path style="opacity:0.502" fill="#8a8a8a" d="M 118.5,35.5 C 119.404,36.209 119.737,37.209 119.5,38.5C 116.615,38.8064 113.948,38.4731 111.5,37.5C 114.388,38.0102 116.721,37.3435 118.5,35.5 Z"/></g>
<g><path style="opacity:1" fill="#1d1d1d" d="M 112.5,28.5 C 115.946,29.6118 117.946,31.9452 118.5,35.5C 116.721,37.3435 114.388,38.0102 111.5,37.5C 110.341,35.6231 108.674,35.1231 106.5,36C 105.483,37.0495 105.316,38.2161 106,39.5C 110.694,40.5244 114.694,42.8577 118,46.5C 120.952,53.5764 119.119,58.9098 112.5,62.5C 111.596,63.209 111.263,64.209 111.5,65.5C 109.5,65.5 107.5,65.5 105.5,65.5C 105.843,63.5168 105.176,62.1834 103.5,61.5C 100.438,60.7322 98.7717,58.7322 98.5,55.5C 98.5,54.5 98.5,53.5 98.5,52.5C 100.95,52.298 103.283,52.6314 105.5,53.5C 109.24,56.2783 111.073,55.2783 111,50.5C 107.248,49.5829 103.748,48.0829 100.5,46C 95.5309,38.5498 96.8643,32.7164 104.5,28.5C 105.434,27.4324 105.768,26.099 105.5,24.5C 107.5,24.5 109.5,24.5 111.5,24.5C 111.232,26.099 111.566,27.4324 112.5,28.5 Z"/></g>
<g><path style="opacity:0.249" fill="#b2b2b2" d="M 112.5,28.5 C 111.566,27.4324 111.232,26.099 111.5,24.5C 109.5,24.5 107.5,24.5 105.5,24.5C 105.768,26.099 105.434,27.4324 104.5,28.5C 104.5,26.8333 104.5,25.1667 104.5,23.5C 107.167,23.5 109.833,23.5 112.5,23.5C 112.5,25.1667 112.5,26.8333 112.5,28.5 Z"/></g>
<g><path style="opacity:0.436" fill="#838383" d="M 56.5,61.5 C 56.5,71.5 56.5,81.5 56.5,91.5C 40.1667,91.5 23.8333,91.5 7.5,91.5C 23.3246,90.5036 39.3246,90.1703 55.5,90.5C 55.1729,80.6522 55.5062,70.9856 56.5,61.5 Z"/></g>
<g><path style="opacity:1" fill="#1a1a1a" d="M 71.5,97.5 C 96.1689,97.3334 120.836,97.5 145.5,98C 146,98.5 146.5,99 147,99.5C 147.667,105.5 147.667,111.5 147,117.5C 146.5,118 146,118.5 145.5,119C 120.833,119.667 96.1667,119.667 71.5,119C 71,118.5 70.5,118 70,117.5C 69.3333,111.5 69.3333,105.5 70,99.5C 70.7172,98.9558 71.2172,98.2891 71.5,97.5 Z M 77.5,105.5 C 77.5,107.5 77.5,109.5 77.5,111.5C 98.1667,111.5 118.833,111.5 139.5,111.5C 139.5,109.5 139.5,107.5 139.5,105.5C 118.833,105.5 98.1667,105.5 77.5,105.5 Z"/></g>
<g><path style="opacity:0.048" fill="#e6e6e6" d="M 41.5,98.5 C 39.5,98.5 37.5,98.5 35.5,98.5C 35.5,128.5 35.5,158.5 35.5,188.5C 37.5,188.5 39.5,188.5 41.5,188.5C 39.3926,189.468 37.0593,189.802 34.5,189.5C 34.5,158.833 34.5,128.167 34.5,97.5C 37.0593,97.1984 39.3926,97.5318 41.5,98.5 Z"/></g>
<g><path style="opacity:0.815" fill="#4d4d4d" d="M 13.5,98.5 C 18.3054,97.5128 23.3054,97.1795 28.5,97.5C 28.5,128.167 28.5,158.833 28.5,189.5C 23.3054,189.821 18.3054,189.487 13.5,188.5C 18.1667,188.5 22.8333,188.5 27.5,188.5C 27.5,158.5 27.5,128.5 27.5,98.5C 22.8333,98.5 18.1667,98.5 13.5,98.5 Z"/></g>
<g><path style="opacity:0.096" fill="#dddddd" d="M 55.5,98.5 C 53.5,98.5 51.5,98.5 49.5,98.5C 49.5,128.5 49.5,158.5 49.5,188.5C 51.5,188.5 53.5,188.5 55.5,188.5C 53.3926,189.468 51.0593,189.802 48.5,189.5C 48.5,158.833 48.5,128.167 48.5,97.5C 51.0593,97.1984 53.3926,97.5318 55.5,98.5 Z"/></g>
<g><path style="opacity:0.341" fill="#a7a7a7" d="M 76.5,104.5 C 97.8333,104.5 119.167,104.5 140.5,104.5C 140.5,107.167 140.5,109.833 140.5,112.5C 119.167,112.5 97.8333,112.5 76.5,112.5C 76.5,109.833 76.5,107.167 76.5,104.5 Z M 77.5,105.5 C 77.5,107.5 77.5,109.5 77.5,111.5C 98.1667,111.5 118.833,111.5 139.5,111.5C 139.5,109.5 139.5,107.5 139.5,105.5C 118.833,105.5 98.1667,105.5 77.5,105.5 Z"/></g>
<g><path style="opacity:0.402" fill="#898989" d="M 210.5,126.5 C 201.167,126.5 191.833,126.5 182.5,126.5C 182.423,130.215 182.756,133.881 183.5,137.5C 182.778,137.082 182.278,136.416 182,135.5C 181.502,132.183 181.335,128.85 181.5,125.5C 191.348,125.173 201.014,125.506 210.5,126.5 Z"/></g>
<g><path style="opacity:1" fill="#1f1f1f" d="M 71.5,125.5 C 77.5092,125.334 83.5092,125.501 89.5,126C 90,126.5 90.5,127 91,127.5C 91.6667,133.5 91.6667,139.5 91,145.5C 90.5,146 90,146.5 89.5,147C 83.5,147.667 77.5,147.667 71.5,147C 71,146.5 70.5,146 70,145.5C 69.3333,139.5 69.3333,133.5 70,127.5C 70.7172,126.956 71.2172,126.289 71.5,125.5 Z M 77.5,133.5 C 77.5,135.5 77.5,137.5 77.5,139.5C 79.5,139.5 81.5,139.5 83.5,139.5C 83.5,137.5 83.5,135.5 83.5,133.5C 81.5,133.5 79.5,133.5 77.5,133.5 Z"/></g>
<g><path style="opacity:1" fill="#1f1f1f" d="M 99.5,125.5 C 105.509,125.334 111.509,125.501 117.5,126C 118,126.5 118.5,127 119,127.5C 119.667,133.5 119.667,139.5 119,145.5C 118.5,146 118,146.5 117.5,147C 111.5,147.667 105.5,147.667 99.5,147C 99,146.5 98.5,146 98,145.5C 97.3333,139.5 97.3333,133.5 98,127.5C 98.7172,126.956 99.2172,126.289 99.5,125.5 Z M 105.5,133.5 C 105.5,135.5 105.5,137.5 105.5,139.5C 107.5,139.5 109.5,139.5 111.5,139.5C 111.5,137.5 111.5,135.5 111.5,133.5C 109.5,133.5 107.5,133.5 105.5,133.5 Z"/></g>
<g><path style="opacity:1" fill="#1f1f1f" d="M 127.5,125.5 C 133.509,125.334 139.509,125.501 145.5,126C 146,126.5 146.5,127 147,127.5C 147.667,133.5 147.667,139.5 147,145.5C 146.5,146 146,146.5 145.5,147C 139.5,147.667 133.5,147.667 127.5,147C 127,146.5 126.5,146 126,145.5C 125.333,139.5 125.333,133.5 126,127.5C 126.717,126.956 127.217,126.289 127.5,125.5 Z M 133.5,133.5 C 133.5,135.5 133.5,137.5 133.5,139.5C 135.5,139.5 137.5,139.5 139.5,139.5C 139.5,137.5 139.5,135.5 139.5,133.5C 137.5,133.5 135.5,133.5 133.5,133.5 Z"/></g>
<g><path style="opacity:0.437" fill="#999999" d="M 132.5,132.5 C 135.167,132.5 137.833,132.5 140.5,132.5C 140.5,135.167 140.5,137.833 140.5,140.5C 137.833,140.5 135.167,140.5 132.5,140.5C 132.5,137.833 132.5,135.167 132.5,132.5 Z M 133.5,133.5 C 133.5,135.5 133.5,137.5 133.5,139.5C 135.5,139.5 137.5,139.5 139.5,139.5C 139.5,137.5 139.5,135.5 139.5,133.5C 137.5,133.5 135.5,133.5 133.5,133.5 Z"/></g>
<g><path style="opacity:0.462" fill="#969696" d="M 76.5,132.5 C 79.1667,132.5 81.8333,132.5 84.5,132.5C 84.5,135.167 84.5,137.833 84.5,140.5C 81.8333,140.5 79.1667,140.5 76.5,140.5C 76.5,137.833 76.5,135.167 76.5,132.5 Z M 77.5,133.5 C 77.5,135.5 77.5,137.5 77.5,139.5C 79.5,139.5 81.5,139.5 83.5,139.5C 83.5,137.5 83.5,135.5 83.5,133.5C 81.5,133.5 79.5,133.5 77.5,133.5 Z"/></g>
<g><path style="opacity:0.337" fill="#9e9e9e" d="M 104.5,132.5 C 107.167,132.5 109.833,132.5 112.5,132.5C 112.5,135.167 112.5,137.833 112.5,140.5C 109.833,140.5 107.167,140.5 104.5,140.5C 104.5,137.833 104.5,135.167 104.5,132.5 Z M 105.5,133.5 C 105.5,135.5 105.5,137.5 105.5,139.5C 107.5,139.5 109.5,139.5 111.5,139.5C 111.5,137.5 111.5,135.5 111.5,133.5C 109.5,133.5 107.5,133.5 105.5,133.5 Z"/></g>
<g><path style="opacity:0.941" fill="#696969" d="M 184.5,140.5 C 186.167,141.5 187.5,142.833 188.5,144.5C 187.883,144.611 187.383,144.944 187,145.5C 185.906,143.922 185.072,142.255 184.5,140.5 Z"/></g>
<g><path style="opacity:0.193" fill="#9b9b9b" d="M 160.5,61.5 C 161.498,89.6618 161.831,117.995 161.5,146.5C 167.5,146.5 173.5,146.5 179.5,146.5C 173.927,147.5 167.594,147.833 160.5,147.5C 160.5,118.833 160.5,90.1667 160.5,61.5 Z"/></g>
<g><path style="opacity:1" fill="#1d1d1d" d="M 71.5,153.5 C 77.1764,153.334 82.8431,153.501 88.5,154C 89.3081,154.308 89.9747,154.808 90.5,155.5C 91.6236,161.448 91.7903,167.448 91,173.5C 90.5,174 90,174.5 89.5,175C 83.5,175.667 77.5,175.667 71.5,175C 71,174.5 70.5,174 70,173.5C 69.3333,167.5 69.3333,161.5 70,155.5C 70.7172,154.956 71.2172,154.289 71.5,153.5 Z M 77.5,161.5 C 77.5,163.5 77.5,165.5 77.5,167.5C 79.5,167.5 81.5,167.5 83.5,167.5C 83.5,165.5 83.5,163.5 83.5,161.5C 81.5,161.5 79.5,161.5 77.5,161.5 Z"/></g>
<g><path style="opacity:1" fill="#1e1e1e" d="M 99.5,153.5 C 105.509,153.334 111.509,153.501 117.5,154C 118,154.5 118.5,155 119,155.5C 119.667,161.5 119.667,167.5 119,173.5C 118.5,174 118,174.5 117.5,175C 111.5,175.667 105.5,175.667 99.5,175C 99,174.5 98.5,174 98,173.5C 97.3333,167.5 97.3333,161.5 98,155.5C 98.7172,154.956 99.2172,154.289 99.5,153.5 Z M 105.5,161.5 C 105.5,163.5 105.5,165.5 105.5,167.5C 107.5,167.5 109.5,167.5 111.5,167.5C 111.5,165.5 111.5,163.5 111.5,161.5C 109.5,161.5 107.5,161.5 105.5,161.5 Z"/></g>
<g><path style="opacity:1" fill="#1d1d1d" d="M 128.5,153.5 C 134.176,153.334 139.843,153.501 145.5,154C 146,154.5 146.5,155 147,155.5C 147.667,161.5 147.667,167.5 147,173.5C 146.5,174 146,174.5 145.5,175C 139.5,175.667 133.5,175.667 127.5,175C 127,174.5 126.5,174 126,173.5C 125.333,167.833 125.333,162.167 126,156.5C 126.698,155.309 127.531,154.309 128.5,153.5 Z M 133.5,161.5 C 133.5,163.5 133.5,165.5 133.5,167.5C 135.5,167.5 137.5,167.5 139.5,167.5C 139.5,165.5 139.5,163.5 139.5,161.5C 137.5,161.5 135.5,161.5 133.5,161.5 Z"/></g>
<g><path style="opacity:0.433" fill="#969696" d="M 132.5,160.5 C 135.167,160.5 137.833,160.5 140.5,160.5C 140.5,163.167 140.5,165.833 140.5,168.5C 137.833,168.5 135.167,168.5 132.5,168.5C 132.5,165.833 132.5,163.167 132.5,160.5 Z M 133.5,161.5 C 133.5,163.5 133.5,165.5 133.5,167.5C 135.5,167.5 137.5,167.5 139.5,167.5C 139.5,165.5 139.5,163.5 139.5,161.5C 137.5,161.5 135.5,161.5 133.5,161.5 Z"/></g>
<g><path style="opacity:0.461" fill="#929292" d="M 76.5,160.5 C 79.1667,160.5 81.8333,160.5 84.5,160.5C 84.5,163.167 84.5,165.833 84.5,168.5C 81.8333,168.5 79.1667,168.5 76.5,168.5C 76.5,165.833 76.5,163.167 76.5,160.5 Z M 77.5,161.5 C 77.5,163.5 77.5,165.5 77.5,167.5C 79.5,167.5 81.5,167.5 83.5,167.5C 83.5,165.5 83.5,163.5 83.5,161.5C 81.5,161.5 79.5,161.5 77.5,161.5 Z"/></g>
<g><path style="opacity:0.333" fill="#9b9b9b" d="M 104.5,160.5 C 107.167,160.5 109.833,160.5 112.5,160.5C 112.5,163.167 112.5,165.833 112.5,168.5C 109.833,168.5 107.167,168.5 104.5,168.5C 104.5,165.833 104.5,163.167 104.5,160.5 Z M 105.5,161.5 C 105.5,163.5 105.5,165.5 105.5,167.5C 107.5,167.5 109.5,167.5 111.5,167.5C 111.5,165.5 111.5,163.5 111.5,161.5C 109.5,161.5 107.5,161.5 105.5,161.5 Z"/></g>
<g><path style="opacity:0.106" fill="#dcdcdc" d="M 203.5,168.5 C 194.167,168.5 184.833,168.5 175.5,168.5C 175.5,170.833 175.5,173.167 175.5,175.5C 174.527,173.052 174.194,170.385 174.5,167.5C 184.348,167.173 194.014,167.506 203.5,168.5 Z"/></g>
<g><path style="opacity:1" fill="#101010" d="M 203.5,168.5 C 203.5,170.833 203.5,173.167 203.5,175.5C 194.167,175.5 184.833,175.5 175.5,175.5C 175.5,173.167 175.5,170.833 175.5,168.5C 184.833,168.5 194.167,168.5 203.5,168.5 Z"/></g>
<g><path style="opacity:0.999" fill="#232323" d="M 210.5,167.5 C 212.833,167.5 215.167,167.5 217.5,167.5C 217.5,170.167 217.5,172.833 217.5,175.5C 215.167,175.5 212.833,175.5 210.5,175.5C 210.5,172.833 210.5,170.167 210.5,167.5 Z"/></g>
<g><path style="opacity:1" fill="#1f1f1f" d="M 71.5,181.5 C 77.1764,181.334 82.8431,181.501 88.5,182C 89.3081,182.308 89.9747,182.808 90.5,183.5C 91.6236,189.448 91.7903,195.448 91,201.5C 90.5,202 90,202.5 89.5,203C 82.9184,203.81 76.4184,203.643 70,202.5C 69.3333,196.167 69.3333,189.833 70,183.5C 70.7172,182.956 71.2172,182.289 71.5,181.5 Z M 77.5,189.5 C 79.5,189.5 81.5,189.5 83.5,189.5C 83.8016,192.059 83.4682,194.393 82.5,196.5C 81.0813,195.549 79.4147,195.216 77.5,195.5C 77.5,193.5 77.5,191.5 77.5,189.5 Z"/></g>
<g><path style="opacity:1" fill="#1d1d1d" d="M 100.5,181.5 C 105.844,181.334 111.177,181.501 116.5,182C 117.416,182.374 118.25,182.874 119,183.5C 119.667,189.5 119.667,195.5 119,201.5C 118.5,202 118,202.5 117.5,203C 111.5,203.667 105.5,203.667 99.5,203C 99,202.5 98.5,202 98,201.5C 97.3333,195.5 97.3333,189.5 98,183.5C 98.9947,182.934 99.828,182.267 100.5,181.5 Z M 105.5,189.5 C 107.5,189.5 109.5,189.5 111.5,189.5C 111.5,191.5 111.5,193.5 111.5,195.5C 109.5,195.5 107.5,195.5 105.5,195.5C 105.5,193.5 105.5,191.5 105.5,189.5 Z"/></g>
<g><path style="opacity:1" fill="#1f1f1f" d="M 128.5,181.5 C 133.844,181.334 139.177,181.501 144.5,182C 145.416,182.374 146.25,182.874 147,183.5C 147.81,190.082 147.643,196.582 146.5,203C 140.167,203.667 133.833,203.667 127.5,203C 127,202.5 126.5,202 126,201.5C 125.333,195.833 125.333,190.167 126,184.5C 126.698,183.309 127.531,182.309 128.5,181.5 Z M 139.5,189.5 C 139.5,191.5 139.5,193.5 139.5,195.5C 137.585,195.216 135.919,195.549 134.5,196.5C 133.532,194.393 133.198,192.059 133.5,189.5C 135.5,189.5 137.5,189.5 139.5,189.5 Z"/></g>
<g><path style="opacity:0.999" fill="#1e1e1e" d="M 203.5,190.5 C 202.549,191.919 202.216,193.585 202.5,195.5C 193.5,195.5 184.5,195.5 175.5,195.5C 175.5,193.5 175.5,191.5 175.5,189.5C 179.988,188.834 184.654,188.501 189.5,188.5C 194.551,188.507 199.217,189.173 203.5,190.5 Z"/></g>
<g><path style="opacity:0.998" fill="#212121" d="M 210.5,188.5 C 212.833,188.5 215.167,188.5 217.5,188.5C 217.5,191.167 217.5,193.833 217.5,196.5C 215.167,196.5 212.833,196.5 210.5,196.5C 210.5,193.833 210.5,191.167 210.5,188.5 Z"/></g>
<g><path style="opacity:0.202" fill="#d4d4d4" d="M 77.5,189.5 C 77.5,191.5 77.5,193.5 77.5,195.5C 79.4147,195.216 81.0813,195.549 82.5,196.5C 80.5,196.5 78.5,196.5 76.5,196.5C 76.1984,193.941 76.5318,191.607 77.5,189.5 Z"/></g>
<g><path style="opacity:0.336" fill="#b1b1b1" d="M 105.5,189.5 C 105.5,191.5 105.5,193.5 105.5,195.5C 107.5,195.5 109.5,195.5 111.5,195.5C 111.5,193.5 111.5,191.5 111.5,189.5C 112.468,191.607 112.802,193.941 112.5,196.5C 109.833,196.5 107.167,196.5 104.5,196.5C 104.198,193.941 104.532,191.607 105.5,189.5 Z M 105.5,189.5 C 107.5,189.5 109.5,189.5 111.5,189.5C 111.5,191.5 111.5,193.5 111.5,195.5C 109.5,195.5 107.5,195.5 105.5,195.5C 105.5,193.5 105.5,191.5 105.5,189.5 Z"/></g>
<g><path style="opacity:0.22" fill="#d1d1d1" d="M 139.5,189.5 C 140.468,191.607 140.802,193.941 140.5,196.5C 138.5,196.5 136.5,196.5 134.5,196.5C 135.919,195.549 137.585,195.216 139.5,195.5C 139.5,193.5 139.5,191.5 139.5,189.5 Z"/></g>
<g><path style="opacity:0.815" fill="#454545" d="M 175.5,189.5 C 175.5,191.5 175.5,193.5 175.5,195.5C 184.5,195.5 193.5,195.5 202.5,195.5C 202.216,193.585 202.549,191.919 203.5,190.5C 203.5,192.5 203.5,194.5 203.5,196.5C 193.833,196.5 184.167,196.5 174.5,196.5C 174.198,193.941 174.532,191.607 175.5,189.5 Z"/></g>
<g><path style="opacity:1" fill="#0c0c0c" d="M 174.5,210.5 C 184.167,210.5 193.833,210.5 203.5,210.5C 203.5,212.833 203.5,215.167 203.5,217.5C 193.833,217.5 184.167,217.5 174.5,217.5C 174.5,215.167 174.5,212.833 174.5,210.5 Z"/></g>
<g><path style="opacity:0.999" fill="#010101" d="M 210.5,210.5 C 212.833,210.5 215.167,210.5 217.5,210.5C 217.5,212.833 217.5,215.167 217.5,217.5C 215.167,217.5 212.833,217.5 210.5,217.5C 210.5,215.167 210.5,212.833 210.5,210.5 Z"/></g>
</svg>
