<?xml version="1.0" encoding="UTF-8"?>
<!DOCTYPE svg PUBLIC "-//W3C//DTD SVG 1.1//EN" "http://www.w3.org/Graphics/SVG/1.1/DTD/svg11.dtd">
<svg xmlns="http://www.w3.org/2000/svg" version="1.1" width="707px" height="353px" style="shape-rendering:geometricPrecision; text-rendering:geometricPrecision; image-rendering:optimizeQuality; fill-rule:evenodd; clip-rule:evenodd" xmlns:xlink="http://www.w3.org/1999/xlink">
<g><path style="opacity:1" fill="#01bbf2" d="M 76.5,111.5 C 87.0484,109.365 97.7151,108.031 108.5,107.5C 114.065,106.52 119.565,106.52 125,107.5C 127.941,106.941 130.775,106.107 133.5,105C 141.804,103.339 149.971,102.506 158,102.5C 158.5,125.831 158.667,149.164 158.5,172.5C 131.167,172.5 103.833,172.5 76.5,172.5C 76.5,152.167 76.5,131.833 76.5,111.5 Z"/></g>
<g><path style="opacity:1" fill="#24b0db" d="M 73.5,111.5 C 73.5,111.833 73.5,112.167 73.5,112.5C 69.343,114.021 65.0097,114.854 60.5,115C 59.8742,115.75 59.3742,116.584 59,117.5C 52.7232,116.291 46.7232,116.291 41,117.5C 40.5,118 40,118.5 39.5,119C 36.0445,119.18 32.7111,119.847 29.5,121C 29.9574,121.414 30.2907,121.914 30.5,122.5C 28.5,123.833 26.5,123.833 24.5,122.5C 25.0253,121.808 25.6919,121.308 26.5,121C 23.3378,120.398 20.3378,120.898 17.5,122.5C 17.8333,123.167 18.1667,123.833 18.5,124.5C 17.1667,125.5 15.8333,126.5 14.5,127.5C 13.9041,126.284 13.7374,124.951 14,123.5C 12.9887,122.663 11.8221,122.33 10.5,122.5C 10.4208,123.93 10.7542,125.264 11.5,126.5C 9.53659,141.994 8.86992,157.661 9.5,173.5C 30.8333,173.5 52.1667,173.5 73.5,173.5C 59.6766,174.496 45.6766,174.829 31.5,174.5C 24.1667,174.5 16.8333,174.5 9.5,174.5C 8.50322,156.674 8.16988,138.674 8.5,120.5C 30.1522,117.427 51.8189,114.427 73.5,111.5 Z"/></g>
<g><path style="opacity:1" fill="#02bbf2" d="M 73.5,112.5 C 73.5,132.833 73.5,153.167 73.5,173.5C 52.1667,173.5 30.8333,173.5 9.5,173.5C 8.86992,157.661 9.53659,141.994 11.5,126.5C 10.7542,125.264 10.4208,123.93 10.5,122.5C 11.8221,122.33 12.9887,122.663 14,123.5C 13.7374,124.951 13.9041,126.284 14.5,127.5C 15.8333,126.5 17.1667,125.5 18.5,124.5C 18.1667,123.833 17.8333,123.167 17.5,122.5C 20.3378,120.898 23.3378,120.398 26.5,121C 25.6919,121.308 25.0253,121.808 24.5,122.5C 26.5,123.833 28.5,123.833 30.5,122.5C 30.2907,121.914 29.9574,121.414 29.5,121C 32.7111,119.847 36.0445,119.18 39.5,119C 40,118.5 40.5,118 41,117.5C 46.7232,116.291 52.7232,116.291 59,117.5C 59.3742,116.584 59.8742,115.75 60.5,115C 65.0097,114.854 69.343,114.021 73.5,112.5 Z"/></g>
<g><path style="opacity:1" fill="#10b9ec" d="M 472.5,124.5 C 476.167,124.5 479.833,124.5 483.5,124.5C 483.5,156.833 483.5,189.167 483.5,221.5C 479.833,221.5 476.167,221.5 472.5,221.5C 472.813,218.753 472.48,216.086 471.5,213.5C 458.847,226.042 445.513,226.708 431.5,215.5C 423.515,203.595 421.348,190.595 425,176.5C 431.523,157.987 444.357,151.153 463.5,156C 466.341,157.586 469.007,159.42 471.5,161.5C 472.499,149.185 472.832,136.851 472.5,124.5 Z M 448.5,164.5 C 459.308,162.358 467.141,166.024 472,175.5C 472.667,183.5 472.667,191.5 472,199.5C 465.811,213.373 455.978,216.873 442.5,210C 432.793,197.8 431.959,184.966 440,171.5C 442.464,168.519 445.297,166.186 448.5,164.5 Z"/></g>
<g><path style="opacity:1" fill="#19b7e8" d="M 332.5,128.5 C 337.203,127.717 341.037,129.05 344,132.5C 344.639,137.882 342.306,141.215 337,142.5C 330.852,141.287 328.852,137.62 331,131.5C 332.039,130.756 332.539,129.756 332.5,128.5 Z"/></g>
<g><path style="opacity:1" fill="#2faad1" d="M 331.5,155.5 C 335.167,155.5 338.833,155.5 342.5,155.5C 342.5,177.5 342.5,199.5 342.5,221.5C 338.833,221.5 335.167,221.5 331.5,221.5C 331.5,199.5 331.5,177.5 331.5,155.5 Z"/></g>
<g><path style="opacity:1" fill="#13b8eb" d="M 383.5,154.5 C 401.261,152.105 410.761,159.772 412,177.5C 412.5,192.163 412.667,206.83 412.5,221.5C 408.833,221.5 405.167,221.5 401.5,221.5C 401.901,205.79 401.401,190.123 400,174.5C 396.683,165.092 390.183,161.926 380.5,165C 374.656,168.163 370.823,172.996 369,179.5C 368.5,193.496 368.333,207.496 368.5,221.5C 364.833,221.5 361.167,221.5 357.5,221.5C 357.5,199.5 357.5,177.5 357.5,155.5C 361.167,155.5 364.833,155.5 368.5,155.5C 368.183,158.572 368.516,161.572 369.5,164.5C 371.5,162.5 373.5,160.5 375.5,158.5C 378.259,157.121 380.925,155.787 383.5,154.5 Z"/></g>
<g><path style="opacity:1" fill="#20a0cb" d="M 159.5,174.5 C 152.167,174.5 144.833,174.5 137.5,174.5C 116.091,174.822 94.7579,174.488 73.5,173.5C 73.5,153.167 73.5,132.833 73.5,112.5C 73.5,112.167 73.5,111.833 73.5,111.5C 74.5,111.5 75.5,111.5 76.5,111.5C 76.5,131.833 76.5,152.167 76.5,172.5C 103.833,172.5 131.167,172.5 158.5,172.5C 158.667,149.164 158.5,125.831 158,102.5C 149.971,102.506 141.804,103.339 133.5,105C 130.775,106.107 127.941,106.941 125,107.5C 119.565,106.52 114.065,106.52 108.5,107.5C 125.038,104.845 141.705,102.178 158.5,99.5C 159.086,99.7093 159.586,100.043 160,100.5C 160.83,125.337 160.663,150.003 159.5,174.5 Z"/></g>
<g><path style="opacity:0.933" fill="#001a34" d="M 9.5,174.5 C 16.8333,174.5 24.1667,174.5 31.5,174.5C 31.1667,175.167 30.8333,175.833 30.5,176.5C 23.5,176.5 16.5,176.5 9.5,176.5C 9.5,175.833 9.5,175.167 9.5,174.5 Z"/></g>
<g><path style="opacity:0.87" fill="#011837" d="M 137.5,174.5 C 144.833,174.5 152.167,174.5 159.5,174.5C 159.5,175.167 159.5,175.833 159.5,176.5C 152.167,176.5 144.833,176.5 137.5,176.5C 137.5,175.833 137.5,175.167 137.5,174.5 Z"/></g>
<g><path style="opacity:1" fill="#2c8fb2" d="M 137.5,176.5 C 144.833,176.5 152.167,176.5 159.5,176.5C 160.498,201.328 160.831,226.328 160.5,251.5C 157.941,251.802 155.607,251.468 153.5,250.5C 155.167,250.5 156.833,250.5 158.5,250.5C 159.461,226.193 159.794,201.859 159.5,177.5C 131.5,177.5 103.5,177.5 75.5,177.5C 75.3334,197.836 75.5,218.169 76,238.5C 77.3024,239.085 78.469,239.751 79.5,240.5C 77.3792,240.675 75.3792,240.341 73.5,239.5C 73.5,218.833 73.5,198.167 73.5,177.5C 94.7579,176.512 116.091,176.178 137.5,176.5 Z"/></g>
<g><path style="opacity:1" fill="#0fb9ed" d="M 205.5,130.5 C 209.767,130.203 213.934,130.536 218,131.5C 224.333,154.833 230.667,178.167 237,201.5C 237.414,201.957 237.914,202.291 238.5,202.5C 245.814,178.576 252.814,154.576 259.5,130.5C 263.5,130.5 267.5,130.5 271.5,130.5C 277.839,154.856 284.339,179.19 291,203.5C 298.325,180.933 304.658,157.933 310,134.5C 310.5,133.5 311,132.5 311.5,131.5C 315.5,130.167 319.5,130.167 323.5,131.5C 314.567,161.357 306.233,191.357 298.5,221.5C 293.833,221.5 289.167,221.5 284.5,221.5C 278.47,198.38 271.97,175.38 265,152.5C 257.716,174.967 251.049,197.634 245,220.5C 240.599,221.467 236.099,221.8 231.5,221.5C 222.688,191.26 214.022,160.927 205.5,130.5 Z"/></g>
<g><path style="opacity:1" fill="#05bbf1" d="M 9.5,176.5 C 16.5,176.5 23.5,176.5 30.5,176.5C 45.0097,176.171 59.3431,176.504 73.5,177.5C 73.5,198.167 73.5,218.833 73.5,239.5C 52.0792,237.015 30.7458,234.015 9.5,230.5C 8.17264,212.338 8.17264,194.338 9.5,176.5 Z"/></g>
<g><path style="opacity:1" fill="#02bbf2" d="M 153.5,250.5 C 128.684,247.982 104.017,244.648 79.5,240.5C 78.469,239.751 77.3024,239.085 76,238.5C 75.5,218.169 75.3334,197.836 75.5,177.5C 103.5,177.5 131.5,177.5 159.5,177.5C 159.794,201.859 159.461,226.193 158.5,250.5C 156.833,250.5 155.167,250.5 153.5,250.5 Z"/></g>
<g><path style="opacity:1" fill="#12b7ea" d="M 564.5,155.5 C 568.437,155.207 572.27,155.54 576,156.5C 580.274,173.397 585.107,190.064 590.5,206.5C 595.979,189.571 600.979,172.571 605.5,155.5C 609.167,155.5 612.833,155.5 616.5,155.5C 620.656,172.789 625.49,189.789 631,206.5C 635.946,189.598 640.446,172.598 644.5,155.5C 648.703,155.076 652.703,155.576 656.5,157C 649.024,178.174 642.358,199.674 636.5,221.5C 632.5,221.5 628.5,221.5 624.5,221.5C 620.327,205.485 615.827,189.485 611,173.5C 604.758,189.061 599.592,205.061 595.5,221.5C 591.5,221.5 587.5,221.5 583.5,221.5C 576.556,199.732 570.223,177.732 564.5,155.5 Z"/></g>
<g><path style="opacity:1" fill="#12b7ea" d="M 675.5,154.5 C 680.511,154.334 685.511,154.501 690.5,155C 692.676,155.163 694.509,155.996 696,157.5C 696.667,161.167 696.667,164.833 696,168.5C 690.018,164.788 683.518,163.621 676.5,165C 668.829,169.737 668.495,175.07 675.5,181C 683.503,183.751 690.67,187.918 697,193.5C 702.633,205.268 699.8,214.435 688.5,221C 678.78,224.329 669.113,224.163 659.5,220.5C 659.174,216.116 659.508,211.783 660.5,207.5C 667.64,213.486 675.64,214.986 684.5,212C 689.727,207.314 689.727,202.647 684.5,198C 678.077,194.857 671.744,191.524 665.5,188C 654.77,172.595 658.103,161.428 675.5,154.5 Z"/></g>
<g><path style="opacity:1" fill="#03baf1" d="M 332.5,156.5 C 335.711,156.012 338.544,156.679 341,158.5C 341.5,179.164 341.667,199.831 341.5,220.5C 338.5,220.5 335.5,220.5 332.5,220.5C 332.5,199.167 332.5,177.833 332.5,156.5 Z"/></g>
<g><path style="opacity:1" fill="#11b8eb" d="M 522.5,154.5 C 540.762,151.541 553.262,158.541 560,175.5C 561.133,185.985 560.467,196.318 558,206.5C 549.917,219.656 538.084,225.156 522.5,223C 502.388,217.156 493.888,203.656 497,182.5C 499.484,167.523 507.984,158.19 522.5,154.5 Z M 522.5,164.5 C 540.904,162 549.904,170 549.5,188.5C 549.076,209.709 538.743,217.209 518.5,211C 510.126,204.231 506.626,195.398 508,184.5C 509.212,175.029 514.046,168.363 522.5,164.5 Z"/></g>
</svg>
